<?xml version="1.0" encoding="UTF-8"?><svg id="a" xmlns="http://www.w3.org/2000/svg" viewBox="0 0 409.6 419"><defs><style>.b{fill:#fff;}</style></defs><path d="M384.85,414.6H23.95c-.6-.27-1.22-.52-1.8-.83-3.88-2.04-5.56-5.45-4.7-9.53,.81-3.84,3.63-6.23,7.93-6.56,1.98-.15,3.99-.09,5.98-.09,6.47,0,12.95,0,19.74,0v-5.64c0-125.11,.02-250.22-.06-375.33,0-5.32,1.48-9.32,6.45-11.63H351.31c4.97,2.31,6.45,6.31,6.45,11.63-.08,125.24-.06,250.48-.06,375.73v5.24c8.6,0,16.57-.08,24.53,.03,5.6,.08,8.94,2.98,9.36,7.79,.36,4.07-1.58,6.72-6.74,9.19ZM68.39,22.2V397.28h84.91v-4.68c0-22.93,0-45.87,0-68.8,0-8.65,2.9-11.6,11.42-11.6,26.48,0,52.96,0,79.44,0,8.33,0,11.33,2.99,11.33,11.29,.01,23.2,0,46.4,0,69.6v4.14h84.88V22.2H68.39Zm102.19,307.21v67.92h67.57v-67.92h-67.57Z"/><path class="b" d="M384.85,414.6c5.16-2.47,7.1-5.12,6.74-9.19-.43-4.81-3.77-7.71-9.36-7.79-7.96-.11-15.92-.03-24.53-.03v-5.24c0-125.24-.02-250.48,.06-375.73,0-5.32-1.48-9.32-6.45-11.63h58.29V414.6h-24.75Z"/><path class="b" d="M57.49,5c-4.97,2.31-6.45,6.31-6.45,11.63,.08,125.11,.06,250.22,.06,375.33v5.64c-6.79,0-13.26,0-19.74,0-1.99,0-4-.06-5.98,.09-4.3,.32-7.12,2.71-7.93,6.56-.86,4.08,.82,7.49,4.7,9.53,.58,.31,1.2,.55,1.8,.83H0C0,278.07,0,141.53,0,5c19.16,0,38.33,0,57.49,0Z"/><path class="b" d="M68.39,22.2H340.38V397.23h-84.88v-4.14c0-23.2,0-46.4,0-69.6,0-8.3-3-11.28-11.33-11.29-26.48,0-52.96,0-79.44,0-8.52,0-11.42,2.95-11.42,11.6,0,22.93,0,45.87,0,68.8v4.68H68.39V22.2Zm170.14,238.89c0-7.73,.03-15.45,0-23.18-.04-7.77-3.19-11.05-10.79-11.08-15.56-.06-31.12-.06-46.67,0-7.45,.03-10.73,3.28-10.76,10.7-.06,15.59-.06,31.18,0,46.76,.03,7.66,3.27,10.86,10.99,10.88,15.42,.05,30.85,.05,46.27,0,7.7-.02,10.91-3.24,10.96-10.91,.06-7.73,.01-15.45,.01-23.18Zm-34.61-136.68c8.11,0,16.22,.05,24.33-.02,7.02-.06,10.21-3.2,10.25-10.3,.08-15.85,.09-31.7,0-47.56-.04-7.05-3.34-10.3-10.28-10.32-15.82-.05-31.64-.04-47.46,0-7,.02-10.4,3.21-10.44,10.16-.1,15.98-.1,31.97,0,47.95,.04,6.85,3.29,10,10.07,10.07,7.84,.08,15.69,.02,23.53,.02Zm.67,17.18c-8.11,0-16.22-.07-24.33,.02-6.59,.07-9.88,3.18-9.94,9.79-.13,16.12-.12,32.24,0,48.35,.05,6.78,3.42,10,10.16,10.03,15.95,.05,31.91,.05,47.86,0,6.73-.02,10.1-3.26,10.15-10.04,.11-15.98,.1-31.97,0-47.95-.04-7.03-3.29-10.12-10.37-10.18-7.84-.06-15.69-.01-23.53-.01Zm-119.37,119.18c0,7.86-.03,15.72,0,23.58,.04,7.6,3.08,10.79,10.55,10.82,15.69,.07,31.38,.07,47.06,0,7.22-.04,10.43-3.35,10.45-10.56,.03-15.72,.03-31.44,0-47.16-.01-7.25-3.19-10.58-10.39-10.61-15.82-.08-31.64-.09-47.46,0-7.03,.04-10.14,3.28-10.19,10.36-.06,7.86-.01,15.72-.02,23.58Zm238.35,.22c0-8.13,.08-16.25-.03-24.38-.08-6.37-3.18-9.68-9.57-9.74-16.22-.15-32.44-.14-48.66-.01-6.55,.05-9.77,3.46-9.8,9.98-.06,16.12-.06,32.24,0,48.35,.03,6.51,3.26,9.9,9.82,9.95,16.09,.13,32.17,.12,48.26,0,6.8-.05,9.89-3.33,9.95-10.19,.08-7.99,.02-15.98,.01-23.98ZM118.96,124.41c7.97,0,15.95,.05,23.92-.01,7.34-.06,10.39-3.15,10.4-10.52,.03-15.71,.03-31.43,0-47.14-.02-7.24-3.26-10.5-10.46-10.52-15.68-.04-31.37-.03-47.05,0-7.38,.01-10.51,3.06-10.53,10.39-.06,15.85-.06,31.69,0,47.54,.03,7.15,3.08,10.19,10.19,10.25,7.84,.07,15.68,.02,23.53,.02Zm170.49,0c8.11,0,16.22,.07,24.32-.02,6.61-.08,9.74-3.2,9.78-9.85,.08-16.11,.08-32.23,0-48.34-.03-6.83-3.25-9.95-10.13-9.97-15.95-.05-31.9-.05-47.85,0-6.72,.02-10.03,3.36-10.05,10.12-.05,15.98-.05,31.96,0,47.94,.02,6.84,3.18,10.03,10.01,10.1,7.97,.09,15.95,.02,23.92,.02Zm-136.15,51.05c0-7.99,.06-15.98-.02-23.97-.06-6.57-3.25-9.83-9.84-9.86-16.21-.08-32.43-.09-48.65,0-6.37,.04-9.5,3.23-9.54,9.68-.09,16.25-.09,32.49,0,48.74,.04,6.53,3.35,9.71,9.96,9.73,15.95,.06,31.9,.05,47.85,0,6.94-.02,10.18-3.34,10.22-10.36,.05-7.99,.01-15.98,.01-23.97Zm170.28,.27c0-7.99,.06-15.98-.02-23.97-.06-6.95-3.08-10.11-9.9-10.14-16.08-.08-32.16-.08-48.25,0-6.61,.03-9.86,3.28-9.89,9.81-.07,16.11-.06,32.23,0,48.34,.03,6.7,3.38,9.99,10.16,10.01,15.95,.05,31.9,.05,47.85,0,6.78-.02,9.96-3.23,10.03-10.08,.08-7.99,.02-15.98,.02-23.97Z"/><path class="b" d="M170.58,329.41h67.57v67.92h-67.57v-67.92Z"/><path d="M238.53,261.09c0,7.73,.04,15.46-.01,23.18-.06,7.67-3.26,10.89-10.96,10.91-15.42,.05-30.85,.05-46.27,0-7.71-.02-10.96-3.23-10.99-10.88-.05-15.59-.06-31.18,0-46.76,.03-7.42,3.31-10.68,10.76-10.7,15.56-.06,31.12-.06,46.67,0,7.6,.03,10.75,3.31,10.79,11.08,.04,7.73,0,15.45,0,23.18Zm-17.41,16.73v-33.49h-33.42v33.49h33.42Z"/><path d="M203.92,124.41c-7.84,0-15.69,.06-23.53-.02-6.78-.07-10.03-3.21-10.07-10.07-.1-15.98-.11-31.97,0-47.95,.04-6.94,3.44-10.14,10.44-10.16,15.82-.04,31.64-.04,47.46,0,6.94,.02,10.24,3.27,10.28,10.32,.09,15.85,.08,31.7,0,47.56-.04,7.1-3.23,10.24-10.25,10.3-8.11,.07-16.22,.02-24.33,.02Zm17.21-17.22v-33.64h-33.38v33.64h33.38Z"/><path d="M204.59,141.59c7.84,0,15.69-.05,23.53,.01,7.08,.06,10.33,3.14,10.37,10.18,.1,15.98,.11,31.97,0,47.95-.05,6.78-3.42,10.02-10.15,10.04-15.95,.05-31.91,.05-47.86,0-6.74-.02-10.11-3.25-10.16-10.03-.11-16.12-.13-32.24,0-48.35,.05-6.6,3.35-9.71,9.94-9.79,8.11-.09,16.22-.02,24.33-.02Zm-16.82,17.18v33.75h33.34v-33.75h-33.34Z"/><path d="M85.22,260.77c0-7.86-.05-15.72,.02-23.58,.06-7.07,3.16-10.31,10.19-10.36,15.82-.09,31.64-.09,47.46,0,7.2,.04,10.38,3.36,10.39,10.61,.03,15.72,.03,31.44,0,47.16-.02,7.21-3.23,10.53-10.45,10.56-15.69,.08-31.38,.07-47.06,0-7.47-.03-10.51-3.22-10.55-10.82-.04-7.86,0-15.72,0-23.58Zm50.61,17.02v-33.51h-33.31v33.51h33.31Z"/><path d="M323.57,260.99c0,7.99,.06,15.99-.02,23.98-.06,6.86-3.15,10.14-9.95,10.19-16.09,.11-32.17,.12-48.26,0-6.56-.05-9.8-3.45-9.82-9.95-.07-16.12-.06-32.24,0-48.35,.03-6.51,3.25-9.92,9.8-9.98,16.22-.13,32.44-.14,48.66,.01,6.38,.06,9.48,3.38,9.57,9.74,.11,8.12,.03,16.25,.03,24.38Zm-50.87-16.83v33.6h33.65v-33.6h-33.65Z"/><path d="M118.96,124.41c-7.84,0-15.68,.05-23.53-.02-7.11-.06-10.17-3.1-10.19-10.25-.06-15.85-.06-31.69,0-47.54,.03-7.33,3.15-10.38,10.53-10.39,15.68-.03,31.37-.03,47.05,0,7.2,.02,10.45,3.28,10.46,10.52,.03,15.71,.03,31.43,0,47.14-.01,7.37-3.07,10.47-10.4,10.52-7.97,.06-15.95,.01-23.92,.01Zm17.05-17.15v-33.77h-33.57v33.77h33.57Z"/><path d="M289.45,124.41c-7.97,0-15.95,.07-23.92-.02-6.83-.07-9.99-3.26-10.01-10.1-.05-15.98-.05-31.96,0-47.94,.02-6.76,3.33-10.1,10.05-10.12,15.95-.06,31.9-.05,47.85,0,6.88,.02,10.1,3.14,10.13,9.97,.08,16.11,.08,32.23,0,48.34-.03,6.65-3.16,9.77-9.78,9.85-8.11,.1-16.22,.02-24.32,.02Zm-16.66-51v33.71h33.52v-33.71h-33.52Z"/><path d="M153.3,175.45c0,7.99,.04,15.98-.01,23.97-.04,7.02-3.28,10.34-10.22,10.36-15.95,.05-31.9,.05-47.85,0-6.62-.02-9.93-3.2-9.96-9.73-.09-16.25-.09-32.49,0-48.74,.03-6.45,3.16-9.64,9.54-9.68,16.21-.1,32.43-.09,48.65,0,6.59,.03,9.78,3.29,9.84,9.86,.08,7.99,.02,15.98,.02,23.97Zm-50.77-16.66v33.74h33.54v-33.74h-33.54Z"/><path d="M323.58,175.73c0,7.99,.06,15.98-.02,23.97-.07,6.85-3.25,10.06-10.03,10.08-15.95,.06-31.9,.05-47.85,0-6.78-.02-10.13-3.31-10.16-10.01-.06-16.11-.07-32.23,0-48.34,.03-6.53,3.28-9.78,9.89-9.81,16.08-.08,32.16-.08,48.25,0,6.82,.03,9.84,3.18,9.9,10.14,.07,7.99,.02,15.98,.02,23.97Zm-50.8-16.98v33.77h33.59v-33.77h-33.59Z"/><path class="b" d="M221.11,277.81h-33.42v-33.49h33.42v33.49Z"/><path class="b" d="M221.13,107.19h-33.38v-33.64h33.38v33.64Z"/><path class="b" d="M187.77,158.77h33.34v33.75h-33.34v-33.75Z"/><path class="b" d="M135.84,277.79h-33.31v-33.51h33.31v33.51Z"/><path class="b" d="M272.71,244.16h33.65v33.6h-33.65v-33.6Z"/><path class="b" d="M136.02,107.26h-33.57v-33.77h33.57v33.77Z"/><path class="b" d="M272.79,73.41h33.52v33.71h-33.52v-33.71Z"/><path class="b" d="M102.53,158.79h33.54v33.74h-33.54v-33.74Z"/><path class="b" d="M272.78,158.75h33.59v33.77h-33.59v-33.77Z"/></svg>