<?xml version="1.0" encoding="UTF-8"?><svg id="a" xmlns="http://www.w3.org/2000/svg" viewBox="0 0 384 394"><defs><style>.b{fill:#fff;}</style></defs><path class="b" d="M0,388.55V5H384V388.55H0Zm192.13,.45c1.29-1.56,2.02-2.58,2.88-3.46,26.51-27.05,51.06-55.78,73.83-86,21.42-28.43,41.1-57.94,55.61-90.62,11.84-26.68,17.02-53.99,11.89-83.29C322.88,48.85,247.2-5.54,169.65,7.48c-52.66,8.84-90.46,38.23-112.17,86.86-13.37,29.94-16.16,61.11-5.95,92.92,8.14,25.36,20.64,48.53,34.86,70.86,22.83,35.86,49.36,68.92,77.66,100.6,8.97,10.03,18.29,19.75,28.07,30.28Z"/><path d="M192.13,389c-9.78-10.53-19.11-20.24-28.07-30.28-28.3-31.67-54.83-64.73-77.66-100.6-14.22-22.33-26.72-45.51-34.86-70.86-10.21-31.81-7.41-62.98,5.95-92.92C79.2,45.71,116.99,16.32,169.65,7.48c77.54-13.02,153.23,41.37,166.68,118.15,5.13,29.3-.04,56.62-11.89,83.29-14.51,32.67-34.19,62.19-55.61,90.62-22.77,30.22-47.32,58.95-73.83,86-.86,.88-1.59,1.9-2.88,3.46Zm-.19-32.75c1.24-1.33,2.03-2.12,2.75-2.97,17.14-20.3,34.78-40.19,51.26-61.01,22.02-27.8,41.76-57.16,56.62-89.53,10.49-22.84,16.13-46.24,11.91-71.73-9.31-56.22-59.48-101.27-116.68-102.71-50.19-1.26-88.64,20.15-113.93,63.35-14.5,24.77-19.72,51.83-13.22,80.26,4.64,20.33,13.91,38.85,24.24,56.82,20.65,35.91,45.87,68.55,72.73,99.97,7.85,9.18,15.98,18.12,24.32,27.55Z"/><path class="b" d="M191.94,356.25c-8.34-9.43-16.47-18.37-24.32-27.55-26.87-31.42-52.08-64.06-72.73-99.97-10.33-17.97-19.59-36.49-24.24-56.82-6.5-28.44-1.28-55.49,13.22-80.26,25.29-43.2,63.74-64.61,113.93-63.35,57.2,1.44,107.37,46.49,116.68,102.71,4.22,25.49-1.42,48.89-11.91,71.73-14.86,32.36-34.61,61.73-56.62,89.53-16.48,20.81-34.13,40.71-51.26,61.01-.72,.85-1.51,1.64-2.75,2.97Zm.29-107.35c53.9-.14,97.44-43.68,97.36-97.37-.08-53.55-44.08-97.27-97.74-97.11-53.78,.16-97.45,43.88-97.36,97.48,.09,53.63,43.93,97.13,97.73,96.99Z"/><path d="M192.23,248.91c-53.81,.14-97.64-43.36-97.73-96.99-.09-53.6,43.58-97.32,97.36-97.48,53.66-.16,97.66,43.56,97.74,97.11,.08,53.68-43.46,97.22-97.36,97.37Zm-.06-22.4c41.53-.11,74.99-33.61,74.92-75.01-.07-41.21-34.04-74.85-75.37-74.65-41.4,.2-74.86,33.91-74.73,75.29,.12,41.07,33.89,74.48,75.18,74.37Z"/><path class="b" d="M192.18,226.51c-41.29,.11-75.06-33.3-75.18-74.37-.13-41.38,33.33-75.09,74.73-75.29,41.34-.2,75.31,33.45,75.37,74.65,.07,41.41-33.39,74.9-74.92,75.01Zm-6.8-55.08c5.2,0,9.82,.12,14.43-.04,3.36-.11,6.79-.22,10.03-.96,16.49-3.79,27.74-19.11,26.06-35.21-1.85-17.78-15.47-30.56-33.15-30.81-12.62-.18-25.24-.05-37.85-.04-.59,0-1.18,.13-1.87,.2v95.45h22.34v-28.59Z"/><path d="M185.37,171.43v28.59h-22.34V104.57c.69-.08,1.28-.2,1.87-.2,12.62,0,25.24-.14,37.85,.04,17.68,.25,31.3,13.03,33.15,30.81,1.67,16.1-9.57,31.42-26.06,35.21-3.25,.75-6.68,.85-10.03,.96-4.61,.16-9.23,.04-14.43,.04Zm.12-22.78c6.48,0,12.83,.42,19.1-.13,5.2-.46,8.83-5.27,9-10.4,.16-4.97-3.36-10.29-8.47-10.83-6.47-.68-13.06-.17-19.63-.17v21.53Z"/><path class="b" d="M185.49,148.66v-21.53c6.57,0,13.16-.52,19.63,.17,5.11,.54,8.63,5.87,8.47,10.83-.17,5.13-3.8,9.95-9,10.4-6.27,.55-12.62,.13-19.1,.13Z"/></svg>