<?xml version="1.0" encoding="UTF-8"?>
<svg width="88px" height="24px" viewBox="0 0 88 24" version="1.1" xmlns="http://www.w3.org/2000/svg" xmlns:xlink="http://www.w3.org/1999/xlink">
    <defs></defs>
    <g id="Symbols" stroke="none" stroke-width="1" fill="none" fill-rule="evenodd">
        <g id="Navigation" transform="translate(-86.000000, -52.000000)">
            <g transform="translate(-1.000000, 0.000000)" id="Logo">
                <g transform="translate(87.000000, 52.000000)">
                    <g id="eviivo_logo">
                        <path d="M78.8348288,6.16441412 C73.4835085,6.16441412 69.7532863,9.86239059 69.7532863,15.0458259 C69.7532863,20.2953318 73.4524497,23.9958494 78.7971556,23.9958494 C84.1096523,23.9958494 87.8444758,20.2953318 87.8444758,15.1124612 C87.8444758,9.89796706 84.1096523,6.16441412 78.8348288,6.16441412 Z M78.7971556,21.1390024 C75.4991686,21.1390024 73.025966,18.5303435 73.025966,15.0458259 C73.025966,11.5548141 75.4991686,9.01617882 78.7971556,9.01617882 C82.1377046,9.01617882 84.5444758,11.5923671 84.5444758,15.1124612 C84.5444758,18.5667671 82.1008941,21.1390024 78.7971556,21.1390024 Z" id="Fill-1" fill="#696969" fill-rule="nonzero"></path>
                        <path d="M60.2722065,20.3996329 L55.8161281,8.49083294 C55.2070301,6.83455059 54.5243111,6.40706824 53.6287817,6.40706824 C52.5181412,6.40706824 51.7278667,7.25130353 51.7957359,7.43370353 L58.0788209,22.6593035 C58.4026379,23.4323859 59.1190039,23.7497506 60.2722065,23.7497506 C61.4895399,23.7497506 62.1012261,23.5021271 62.4233176,22.7225506 L68.776285,7.43370353 C68.8493307,7.22165647 68.0570431,6.40706824 66.9101673,6.40706824 C65.9073699,6.40706824 65.2594484,6.83455059 64.6463242,8.49083294 L60.2722065,20.3996329 Z" id="Fill-3" fill="#696969" fill-rule="nonzero"></path>
                        <path d="M49.299498,22.0229082 L49.299498,8.10544941 C49.299498,6.83486118 48.6239686,6.40624941 47.6855895,6.40624941 L47.3287007,6.40624941 C46.3937725,6.40624941 45.745851,6.79617882 45.745851,8.10544941 L45.745851,22.0229082 C45.745851,23.2872847 46.3937725,23.6786259 47.3287007,23.6786259 L47.6855895,23.6786259 C48.6239686,23.6786259 49.299498,23.2872847 49.299498,22.0229082" id="Fill-5" fill="#696969" fill-rule="nonzero"></path>
                        <path d="M8.83200784,6.16441412 C3.73548497,6.16441412 8.62745098e-05,10.0066729 8.62745098e-05,15.1519906 C8.62745098e-05,20.4424376 3.66847843,23.9958494 9.12591634,23.9958494 C13.8218379,23.9958494 16.4813935,21.6356612 16.4813935,20.1524612 C16.4813935,18.6706729 14.6851582,18.3552847 14.6147007,18.4278494 C13.7116941,19.9463435 12.2108052,21.2457318 9.19551111,21.2457318 C5.92829542,21.2457318 3.59255686,19.09872 3.34236078,15.9962259 L16.0500209,15.9962259 C16.8759556,15.9962259 17.1261516,15.7164141 17.1261516,14.9749553 L17.1261516,14.6948612 C17.1261516,9.61674353 13.8218379,6.16441412 8.83200784,6.16441412 Z M3.34236078,13.6340612 C3.77718431,10.8158965 5.9584915,8.80610824 8.79778562,8.80610824 C11.6707268,8.80610824 13.5031974,10.7100141 13.6783346,13.6340612 L3.34236078,13.6340612 Z" id="Fill-7" fill="#696969" fill-rule="nonzero"></path>
                        <path d="M26.7737699,20.3996329 L31.2255346,8.49083294 C31.8380837,6.83455059 32.5176392,6.40706824 33.414319,6.40706824 C34.5284105,6.40706824 35.3192601,7.25130353 35.2482275,7.43370353 L28.9616915,22.6593035 C28.6433386,23.4323859 27.9235216,23.7497506 26.7737699,23.7497506 C25.5524105,23.7497506 24.9459007,23.5021271 24.6206458,22.7225506 L18.2682536,7.43370353 C18.1960706,7.22165647 18.9860575,6.40706824 20.1358092,6.40706824 C21.1386065,6.40706824 21.7859529,6.83455059 22.395051,8.49083294 L26.7737699,20.3996329 Z" id="Fill-9" fill="#696969" fill-rule="nonzero"></path>
                        <path d="M37.7392026,22.0229082 L37.7392026,8.10544941 C37.7392026,6.83486118 38.4253725,6.40624941 39.3542614,6.40624941 L39.7200654,6.40624941 C40.6524052,6.40624941 41.2997516,6.79617882 41.2997516,8.10544941 L41.2997516,22.0229082 C41.2997516,23.2872847 40.6524052,23.6786259 39.7200654,23.6786259 L39.3542614,23.6786259 C38.4253725,23.6786259 37.7392026,23.2872847 37.7392026,22.0229082" id="Fill-11" fill="#696969" fill-rule="nonzero"></path>
                        <path d="M49.7357595,2.17061647 C49.7357595,3.36920471 48.7470536,4.34388706 47.5256941,4.34388706 C46.3000209,4.34388706 45.3139033,3.36920471 45.3139033,2.17061647 C45.3139033,0.974569412 46.3000209,-0.000112941176 47.5256941,-0.000112941176 C48.7470536,-0.000112941176 49.7357595,0.974569412 49.7357595,2.17061647" id="Fill-15" fill="#FFBB55" fill-rule="nonzero"></path>
                        <path d="M41.7350353,2.17061647 C41.7350353,3.36807529 40.7388523,4.34275765 39.5220941,4.34275765 C38.3001595,4.34275765 37.3065647,3.36807529 37.3065647,2.17061647 C37.3065647,0.975416471 38.3001595,0.00129882353 39.5220941,0.00129882353 C40.7388523,0.00129882353 41.7350353,0.975416471 41.7350353,2.17061647" id="Fill-13" fill="#D9334B" fill-rule="nonzero"></path>
                    </g>
                </g>
            </g>
        </g>
    </g>
</svg>
