<svg xmlns="http://www.w3.org/2000/svg" xmlns:xlink="http://www.w3.org/1999/xlink" viewBox="0 0 50 50"><path d="M30.140625 2C26.870375 2 24.045399 2.9969388 22.0625 4.9667969C20.079601 6.936655 19 9.823825 19 13.367188L19 18L13 18 A 1.0001 1.0001 0 0 0 12 19L12 27 A 1.0001 1.0001 0 0 0 13 28L19 28L19 47 A 1.0001 1.0001 0 0 0 20 48L28 48 A 1.0001 1.0001 0 0 0 29 47L29 28L36 28 A 1.0001 1.0001 0 0 0 36.992188 27.125L37.992188 19.125 A 1.0001 1.0001 0 0 0 37 18L29 18L29 14C29 12.883334 29.883334 12 31 12L37 12 A 1.0001 1.0001 0 0 0 38 11L38 3.3457031 A 1.0001 1.0001 0 0 0 37.130859 2.3554688C36.247185 2.2382213 33.057174 2 30.140625 2 z M 30.140625 4C32.578477 4 34.935105 4.195047 36 4.2949219L36 10L31 10C28.802666 10 27 11.802666 27 14L27 19 A 1.0001 1.0001 0 0 0 28 20L35.867188 20L35.117188 26L28 26 A 1.0001 1.0001 0 0 0 27 27L27 46L21 46L21 27 A 1.0001 1.0001 0 0 0 20 26L14 26L14 20L20 20 A 1.0001 1.0001 0 0 0 21 19L21 13.367188C21 10.22255 21.920305 7.9269075 23.472656 6.3847656C25.025007 4.8426237 27.269875 4 30.140625 4 z"/></svg>