<svg xmlns="http://www.w3.org/2000/svg" xmlns:xlink="http://www.w3.org/1999/xlink" viewBox="0 0 50 50"><path d="M28.3125 -0.03125C28.015625 0.0078125 27.75 0.179688 27.59375 0.4375C27.0625 1.207031 25.492188 1.929688 23.875 2C22.257813 2.070313 20.796875 1.570313 20.15625 0.5C19.953125 0.132813 19.539063 -0.0664063 19.125 0C18.582031 0.0820313 18.207031 0.582031 18.28125 1.125C18.488281 3 17.996094 4.21875 17.46875 5.03125C16.941406 5.84375 16.46875 6.15625 16.46875 6.15625C16.136719 6.332031 15.929688 6.679688 15.933594 7.054688C15.9375 7.429688 16.152344 7.769531 16.492188 7.9375C16.828125 8.105469 17.230469 8.066406 17.53125 7.84375C17.53125 7.84375 18.421875 7.261719 19.15625 6.125C19.625 5.402344 19.972656 4.339844 20.15625 3.125C21.289063 3.78125 22.65625 4.054688 23.96875 4C25.390625 3.941406 26.671875 3.445313 27.78125 2.71875C28.058594 3.53125 28.472656 4.273438 29.09375 4.8125C30.121094 5.703125 31.523438 6.109375 33.0625 6C33.613281 5.964844 34.035156 5.488281 34 4.9375C33.964844 4.386719 33.488281 3.964844 32.9375 4C31.820313 4.078125 30.980469 3.78125 30.40625 3.28125C29.832031 2.78125 29.46875 2.046875 29.4375 0.96875C29.441406 0.679688 29.316406 0.40625 29.101563 0.214844C28.886719 0.0234375 28.597656 -0.0664063 28.3125 -0.03125 Z M 39.125 5.3125C39.09375 5.320313 39.0625 5.332031 39.03125 5.34375L23.96875 9.5625C23.492188 9.699219 23.183594 10.164063 23.25 10.65625L11.1875 7.28125C11.066406 7.246094 10.9375 7.238281 10.8125 7.25C10.449219 7.292969 10.136719 7.53125 10 7.875C10 7.875 6.902344 16.050781 5.78125 20.0625C4.855469 23.378906 4.6875 26.855469 5.5 29.78125C6.222656 32.394531 7.824219 34.601563 10.34375 35.65625L8.375 42.75C7.601563 42.582031 6.863281 42.449219 6.1875 42.40625C5.234375 42.34375 4.378906 42.394531 3.625 42.5625C2.117188 42.902344 0.949219 43.765625 0.59375 45.03125C0.453125 45.558594 0.757813 46.097656 1.28125 46.25L14.53125 49.96875C14.789063 50.046875 15.066406 50.015625 15.300781 49.886719C15.535156 49.757813 15.707031 49.539063 15.78125 49.28125C16.132813 48.015625 15.550781 46.664063 14.4375 45.59375C13.488281 44.679688 12.085938 43.894531 10.28125 43.28125L12.28125 36.1875C12.675781 36.25 13.054688 36.3125 13.4375 36.3125C16.070313 36.3125 18.394531 34.9375 20.21875 32.90625C22.042969 30.875 23.433594 28.144531 24.25 25.21875C24.585938 24.019531 24.976563 22.398438 25.34375 20.71875C25.558594 21.660156 25.769531 22.59375 25.96875 23.3125C26.785156 26.234375 28.175781 28.9375 30 30.96875C31.824219 33 34.148438 34.375 36.78125 34.375C37.171875 34.375 37.566406 34.316406 37.96875 34.25L39.90625 41.34375C38.117188 41.957031 36.726563 42.75 35.78125 43.65625C34.667969 44.726563 34.117188 46.078125 34.46875 47.34375C34.621094 47.867188 35.160156 48.171875 35.6875 48.03125L48.9375 44.34375C49.195313 44.269531 49.414063 44.097656 49.542969 43.863281C49.671875 43.628906 49.703125 43.351563 49.625 43.09375C49.273438 41.824219 48.101563 40.964844 46.59375 40.625C45.839844 40.457031 44.984375 40.40625 44.03125 40.46875C43.355469 40.511719 42.617188 40.644531 41.84375 40.8125L39.875 33.71875C42.394531 32.664063 43.996094 30.457031 44.71875 27.84375C45.53125 24.917969 45.363281 21.472656 44.4375 18.15625C43.316406 14.144531 40.21875 5.96875 40.21875 5.96875C40.066406 5.554688 39.660156 5.285156 39.21875 5.3125C39.1875 5.3125 39.15625 5.3125 39.125 5.3125 Z M 38.6875 7.53125C38.972656 8.292969 40.339844 11.933594 41.4375 15.21875L26.46875 15.21875C26.660156 14.226563 26.96875 12.625 26.96875 12.625C27.050781 12.121094 26.742188 11.636719 26.25 11.5L25.375 11.25C25.371094 11.238281 25.378906 11.230469 25.375 11.21875 Z M 11.5625 9.46875L24.8125 13.15625C24.707031 13.707031 24.308594 15.828125 23.8125 18.21875L8.46875 18.21875C9.613281 14.695313 11.246094 10.316406 11.5625 9.46875 Z M 26.59375 17.21875L42.0625 17.21875C42.214844 17.710938 42.382813 18.269531 42.5 18.6875C43.34375 21.714844 43.492188 24.859375 42.8125 27.3125C42.132813 29.765625 40.761719 31.5 38.40625 32.15625C37.851563 32.3125 37.300781 32.375 36.78125 32.375C34.839844 32.375 33.03125 31.363281 31.46875 29.625C29.90625 27.886719 28.652344 25.417969 27.90625 22.75C27.519531 21.363281 27.035156 19.277344 26.59375 17.21875 Z M 7.84375 20.21875L23.375 20.21875C23.015625 21.867188 22.648438 23.488281 22.3125 24.6875C21.566406 27.359375 20.3125 29.824219 18.75 31.5625C17.1875 33.300781 15.378906 34.3125 13.4375 34.3125C12.917969 34.3125 12.398438 34.21875 11.84375 34.0625C9.488281 33.40625 8.117188 31.671875 7.4375 29.21875C6.757813 26.765625 6.875 23.652344 7.71875 20.625C7.75 20.507813 7.808594 20.339844 7.84375 20.21875 Z M 44.15625 42.46875C44.949219 42.417969 45.628906 42.476563 46.15625 42.59375C46.449219 42.660156 46.582031 42.753906 46.78125 42.84375L36.78125 45.65625C36.90625 45.476563 36.972656 45.300781 37.1875 45.09375C37.96875 44.34375 39.347656 43.542969 41.40625 42.96875C42.433594 42.683594 43.363281 42.519531 44.15625 42.46875 Z M 4.96875 44.40625C5.304688 44.382813 5.664063 44.378906 6.0625 44.40625C6.855469 44.457031 7.785156 44.617188 8.8125 44.90625C10.871094 45.480469 12.28125 46.28125 13.0625 47.03125C13.28125 47.242188 13.34375 47.410156 13.46875 47.59375L3.4375 44.78125C3.636719 44.691406 3.769531 44.597656 4.0625 44.53125C4.324219 44.472656 4.632813 44.429688 4.96875 44.40625Z"/></svg>