<svg xmlns="http://www.w3.org/2000/svg" xmlns:xlink="http://www.w3.org/1999/xlink" viewBox="0 0 50 50" fill="#FFFFFF">
  <path d="M27.40625 3.7871094C25.634703 3.8383366 24 5.2747126 24 7.2285156L24 10L23.632812 10C21.302808 10 19.378499 11.752482 19.064453 14L14.820312 14C11.064929 14 8 17.064929 8 20.820312L8 23.013672C5.7913519 23.08616 4 24.908858 4 27.134766L4 29L3 29 A 1.0001 1.0001 0 1 0 3 31L4 31L4 32.867188C4 35.092421 5.7913519 36.913889 8 36.986328L8 40.179688C8 43.935071 11.064929 47 14.820312 47L35.179688 47C38.935071 47 42 43.935071 42 40.179688L42 36.986328C44.208648 36.91384 46 35.091142 46 32.865234L46 31L47 31 A 1.0001 1.0001 0 1 0 47 29L46 29L46 27.132812C46 24.907579 44.208648 23.086111 42 23.013672L42 20.820312C42 17.064929 38.935071 14 35.179688 14L30.935547 14C30.621501 11.752482 28.697192 10 26.367188 10L26 10L26 7.2285156C26 6.0635864 27.165055 5.389151 28.175781 5.9667969L29.044922 6.4628906C29.015222 6.6412394 29 6.8207392 29 7C29 7.7222221 29.235347 8.4578806 29.751953 9.0390625C30.268559 9.6202444 31.083334 10 32 10C32.916666 10 33.731441 9.6202444 34.248047 9.0390625C34.764653 8.4578806 35 7.7222221 35 7C35 6.2777779 34.764653 5.5421194 34.248047 4.9609375C33.731441 4.3797556 32.916666 4 32 4C31.224507 4 30.53424 4.2831401 30.023438 4.71875L29.167969 4.2304688C28.60265 3.9073801 27.996766 3.7700336 27.40625 3.7871094 z M 32 6C32.416666 6 32.601893 6.1202444 32.751953 6.2890625C32.902014 6.4578806 33 6.7222221 33 7C33 7.2777779 32.902014 7.5421194 32.751953 7.7109375C32.601893 7.8797556 32.416666 8 32 8C31.583334 8 31.398107 7.8797556 31.248047 7.7109375C31.097986 7.5421194 31 7.2777779 31 7C31 6.7222221 31.097986 6.4578806 31.248047 6.2890625C31.398107 6.1202444 31.583334 6 32 6 z M 23.632812 12L24.832031 12 A 1.0001 1.0001 0 0 0 25.158203 12L26.367188 12C27.584004 12 28.432144 12.88777 28.740234 14L21.259766 14C21.567856 12.88777 22.415997 12 23.632812 12 z M 14.820312 16L35.179688 16C37.854304 16 40 18.145696 40 20.820312L40 40.179688C40 42.854304 37.854304 45 35.179688 45L14.820312 45C12.145696 45 10 42.854304 10 40.179688L10 24.167969 A 1.0001 1.0001 0 0 0 10 23.841797L10 20.820312C10 18.145696 12.145697 16 14.820312 16 z M 32 22C30.75 22 29.685226 22.504756 29.001953 23.273438C28.318681 24.042119 28 25.027778 28 26C28 26.972222 28.318681 27.957882 29.001953 28.726562C29.685226 29.495244 30.75 30 32 30C33.25 30 34.314774 29.495244 34.998047 28.726562C35.681319 27.957881 36 26.972222 36 26C36 25.027778 35.681319 24.042118 34.998047 23.273438C34.314774 22.504756 33.25 22 32 22 z M 20.111328 22.865234 A 1.0001 1.0001 0 0 0 19.414062 23.171875L18 24.585938L16.585938 23.171875 A 1.0001 1.0001 0 0 0 15.869141 22.869141 A 1.0001 1.0001 0 0 0 15.171875 24.585938L16.585938 26L15.171875 27.414062 A 1.0001 1.0001 0 1 0 16.585938 28.828125L18 27.414062L19.414062 28.828125 A 1.0001 1.0001 0 1 0 20.828125 27.414062L19.414062 26L20.828125 24.585938 A 1.0001 1.0001 0 0 0 20.111328 22.865234 z M 32 24C32.749999 24 33.185226 24.245244 33.501953 24.601562C33.81868 24.957881 34 25.472222 34 26C34 26.527778 33.81868 27.042118 33.501953 27.398438C33.185226 27.754756 32.749999 28 32 28C31.250001 28 30.814774 27.754756 30.498047 27.398438C30.18132 27.042119 30 26.527778 30 26C30 25.472222 30.18132 24.957882 30.498047 24.601562C30.814774 24.245244 31.250001 24 32 24 z M 8 25.013672L8 34.986328C6.8753086 34.917806 6 34.010976 6 32.867188L6 30.167969 A 1.0001 1.0001 0 0 0 6 29.841797L6 27.134766C6 25.989713 6.8753086 25.082241 8 25.013672 z M 42 25.013672C43.124694 25.082194 44 25.989024 44 27.132812L44 29.832031 A 1.0001 1.0001 0 0 0 44 30.158203L44 32.865234C44 34.010287 43.124691 34.917759 42 34.986328L42 25.013672 z M 18.982422 36 A 1.0001 1.0001 0 0 0 18.439453 36.167969L15.445312 38.167969 A 1.0001 1.0001 0 1 0 16.554688 39.832031L18.996094 38.203125L21.4375 39.832031 A 1.0001 1.0001 0 0 0 22.546875 39.832031L24.992188 38.201172L27.435547 39.832031 A 1.0001 1.0001 0 0 0 28.544922 39.832031L30.996094 38.201172L33.445312 39.832031 A 1.0001 1.0001 0 1 0 34.554688 38.167969L31.550781 36.167969 A 1.0001 1.0001 0 0 0 30.441406 36.167969L27.992188 37.798828L25.546875 36.167969 A 1.0001 1.0001 0 0 0 24.4375 36.167969L21.992188 37.798828L19.550781 36.167969 A 1.0001 1.0001 0 0 0 18.982422 36 z" fill="#FFFFFF" />
</svg>