<svg xmlns="http://www.w3.org/2000/svg" xmlns:xlink="http://www.w3.org/1999/xlink" viewBox="0 0 50 50"><path d="M25 7C15.609375 7 7.070313 10.730469 0.78125 16.769531L0.0585938 17.464844L5.59375 23.234375L6.320313 22.539063C11.175781 17.875 17.75 15 25 15C32.25 15 38.824219 17.875 43.683594 22.539063L44.40625 23.234375L49.941406 17.464844L49.21875 16.769531C42.929688 10.730469 34.390625 7 25 7 Z M 25 9C33.5 9 41.191406 12.292969 47.046875 17.589844L44.28125 20.46875C39.148438 15.867188 32.417969 13 25 13C17.582031 13 10.851563 15.867188 5.71875 20.46875L2.953125 17.589844C8.808594 12.292969 16.5 9 25 9 Z M 25 19C18.832031 19 13.214844 21.453125 9.085938 25.421875L8.363281 26.113281L13.921875 31.90625L14.640625 31.210938C17.34375 28.613281 20.972656 27 25 27C29.027344 27 32.65625 28.613281 35.359375 31.210938L36.078125 31.90625L41.636719 26.113281L40.917969 25.421875C36.785156 21.453125 31.167969 19 25 19 Z M 25 21C30.28125 21 35.054688 23.011719 38.746094 26.238281L35.957031 29.140625C32.996094 26.605469 29.199219 25 25 25C20.800781 25 17.003906 26.605469 14.042969 29.140625L11.253906 26.238281C14.945313 23.011719 19.71875 21 25 21 Z M 25 31C22.050781 31 19.367188 32.175781 17.390625 34.074219L16.671875 34.765625L25 43.441406L25.71875 42.691406L33.328125 34.765625L32.609375 34.074219C30.632813 32.175781 27.949219 31 25 31 Z M 25 33C27.054688 33 28.859375 33.796875 30.375 34.957031L25 40.558594L19.625 34.957031C21.140625 33.796875 22.945313 33 25 33Z"/></svg>