<svg xmlns="http://www.w3.org/2000/svg" xmlns:xlink="http://www.w3.org/1999/xlink" viewBox="0 0 50 50"><path d="M9 2C7.3550302 2 6 3.3550302 6 5L6 12C6 12.768584 6.3041249 13.466647 6.7871094 14C6.3041249 14.533353 6 15.231416 6 16L6 23C6 23.768584 6.3041249 24.466647 6.7871094 25C6.3041249 25.533353 6 26.231416 6 27L6 34C6 34.768584 6.3041249 35.466647 6.7871094 36C6.3041249 36.533353 6 37.231416 6 38L6 45C6 46.64497 7.3550302 48 9 48L17 48C17.768584 48 18.466647 47.695875 19 47.212891C19.533353 47.695875 20.231416 48 21 48L29 48C29.768584 48 30.466647 47.695875 31 47.212891C31.533353 47.695875 32.231416 48 33 48L41 48C42.64497 48 44 46.64497 44 45L44 38C44 37.231416 43.695875 36.533353 43.212891 36C43.695875 35.466647 44 34.768584 44 34L44 27C44 26.231416 43.695875 25.533353 43.212891 25C43.695875 24.466647 44 23.768584 44 23L44 16C44 15.231416 43.695875 14.533353 43.212891 14C43.695875 13.466647 44 12.768584 44 12L44 5C44 3.3550302 42.64497 2 41 2L33 2C32.231416 2 31.533353 2.3041249 31 2.7871094C30.466647 2.3041249 29.768584 2 29 2L21 2C20.231416 2 19.533353 2.3041249 19 2.7871094C18.466647 2.3041249 17.768584 2 17 2L9 2 z M 9 4L17 4C17.56503 4 18 4.4349698 18 5L18 13L9 13C8.4349698 13 8 12.56503 8 12L8 5C8 4.4349698 8.4349698 4 9 4 z M 21 4L29 4C29.56503 4 30 4.4349698 30 5L30 13L20 13L20 5C20 4.4349698 20.43497 4 21 4 z M 33 4L41 4C41.56503 4 42 4.4349698 42 5L42 12C42 12.56503 41.56503 13 41 13L32 13L32 5C32 4.4349698 32.43497 4 33 4 z M 25.007812 6.0039062C23.730813 6.0039062 23.355469 6.8778437 23.355469 7.3398438C23.355469 8.0498438 23.838172 8.2826563 24.076172 8.3476562L24.076172 8.3613281C23.781172 8.4313281 23.152344 8.6844063 23.152344 9.5664062C23.152344 10.999406 24.719672 11.091797 25.013672 11.091797C26.335672 11.091797 26.847656 10.248594 26.847656 9.5585938C26.847656 8.6905938 26.225641 8.4263281 25.931641 8.3613281L25.931641 8.3476562C26.169641 8.2686563 26.644531 8.0063594 26.644531 7.3183594C26.644531 6.9863594 26.351813 6.0039062 25.007812 6.0039062 z M 36.916016 6.0039062C36.359016 6.0039062 35.201172 6.3689219 35.201172 7.7949219C35.201172 8.6129219 35.750078 9.390625 36.705078 9.390625C37.385078 9.390625 37.675547 9.0417031 37.810547 8.8457031L37.826172 8.859375C37.817172 8.994375 37.738672 10.349609 36.888672 10.349609C36.435672 10.349609 36.262516 9.9032344 36.228516 9.7402344L35.285156 9.7402344C35.352156 10.390234 35.835047 11.091797 36.873047 11.091797C37.880047 11.091797 38.798828 10.277109 38.798828 8.5371094C38.798828 7.7951094 38.651016 6.0039062 36.916016 6.0039062 z M 11.328125 6.1015625L11.328125 7.0253906L13.650391 7.0253906C13.183391 7.5903906 12.202859 8.9279531 12.005859 11.001953L13.068359 11.001953C13.140359 8.4699531 14.415828 7.1790781 14.673828 6.9550781L14.673828 6.1015625L11.328125 6.1015625 z M 25.007812 6.7519531C25.161812 6.7519531 25.742188 6.7836406 25.742188 7.4316406C25.742187 7.6416406 25.630813 8.0742188 25.007812 8.0742188C24.806812 8.0742188 24.257812 7.9776406 24.257812 7.4316406C24.257813 6.7836406 24.909813 6.7519531 25.007812 6.7519531 z M 36.943359 6.8222656C37.215359 6.8222656 37.734375 7.0164219 37.734375 7.7324219C37.734375 8.3374219 37.377359 8.6425781 36.943359 8.6425781C36.445359 8.6425781 36.193359 8.19575 36.193359 7.71875C36.193359 7.46375 36.331359 6.8222656 36.943359 6.8222656 z M 25.013672 8.7402344C25.745672 8.7402344 25.853516 9.4064375 25.853516 9.5234375C25.853516 9.7534375 25.702672 10.349609 25.013672 10.349609C24.821672 10.349609 24.146484 10.235578 24.146484 9.5175781C24.146484 9.2655781 24.275672 8.7402344 25.013672 8.7402344 z M 9 15L18 15L18 24L9 24C8.4349698 24 8 23.56503 8 23L8 16C8 15.43497 8.4349698 15 9 15 z M 20 15L30 15L30 24L20 24L20 15 z M 32 15L41 15C41.56503 15 42 15.43497 42 16L42 23C42 23.56503 41.56503 24 41 24L32 24L32 15 z M 37.125 16.736328C36.014 16.736328 35.199219 17.718828 35.199219 19.298828C35.199219 20.593828 35.636031 21.824219 37.082031 21.824219C38.184031 21.824219 38.798828 20.940062 38.798828 20.039062C38.798828 18.944062 37.966969 18.443359 37.292969 18.443359C36.617969 18.443359 36.3235 18.794234 36.1875 18.990234L36.173828 18.976562C36.178828 18.841563 36.240328 17.484375 37.111328 17.484375C37.584328 17.484375 37.736531 17.93075 37.769531 18.09375L38.714844 18.09375C38.672844 17.71775 38.396 16.736328 37.125 16.736328 z M 13.294922 16.833984L11.166016 19.689453L11.166016 20.599609L13.238281 20.599609L13.238281 21.734375L14.183594 21.734375L14.183594 20.599609L14.833984 20.599609L14.833984 19.78125L14.183594 19.78125L14.183594 16.833984L13.294922 16.833984 z M 23.820312 16.833984L23.337891 19.542969L24.234375 19.542969C24.596375 18.977969 25.236844 19.174703 25.339844 19.220703C25.441844 19.267703 25.830078 19.540359 25.830078 20.068359C25.830078 20.267359 25.697422 21.013672 24.982422 21.013672C24.364422 21.013672 24.200734 20.501344 24.177734 20.277344L23.183594 20.277344C23.152594 20.718344 23.483906 21.824219 25.003906 21.824219C25.850906 21.824219 26.822266 21.214359 26.822266 20.068359C26.822266 19.760359 26.687547 18.402344 25.310547 18.402344C24.804547 18.402344 24.487562 18.644297 24.351562 18.779297L24.337891 18.765625L24.53125 17.652344L26.556641 17.652344L26.556641 16.833984L23.820312 16.833984 z M 13.216797 18.080078L13.236328 18.080078L13.236328 19.78125L11.949219 19.78125L13.216797 18.080078 z M 37.056641 19.193359C37.751641 19.193359 37.804688 20.001188 37.804688 20.117188C37.804688 20.876188 37.250641 21.013672 37.056641 21.013672C36.444641 21.013672 36.265625 20.389516 36.265625 20.103516C36.265625 19.981516 36.291641 19.193359 37.056641 19.193359 z M 9 26L18 26L18 35L9 35C8.4349698 35 8 34.56503 8 34L8 27C8 26.43497 8.4349698 26 9 26 z M 20 26L30 26L30 35L20 35L20 26 z M 32 26L41 26C41.56503 26 42 26.43497 42 27L42 34C42 34.56503 41.56503 35 41 35L32 35L32 26 z M 25.091797 27.779297C23.330797 27.779297 23.3035 29.481719 23.3125 29.761719L24.265625 29.761719C24.265625 29.631719 24.279969 28.634766 25.042969 28.634766C25.255969 28.634766 25.775391 28.728625 25.775391 29.390625C25.775391 30.593625 23.201172 30.736344 23.201172 32.777344L26.798828 32.777344L26.798828 31.923828L24.482422 31.923828C25.433422 30.795828 26.771484 30.7365 26.771484 29.3125C26.771484 28.9055 26.509797 27.779297 25.091797 27.779297 z M 36.994141 27.779297C35.788141 27.779297 35.300781 28.735609 35.300781 29.474609L36.244141 29.474609C36.239141 29.222609 36.327953 28.599609 37.001953 28.599609C37.562953 28.599609 37.693359 29.04 37.693359 29.25C37.693359 29.78 37.115141 29.850375 36.994141 29.859375C36.872141 29.868375 36.758391 29.868375 36.650391 29.859375L36.650391 30.558594C36.772391 30.558594 36.89825 30.563313 37.03125 30.570312C37.16425 30.577313 37.785156 30.604109 37.785156 31.287109C37.785156 31.525109 37.641328 32.056641 36.986328 32.056641C36.184328 32.056641 36.130953 31.222797 36.126953 31.091797L35.181641 31.091797C35.155641 31.943797 35.646953 32.869141 37.001953 32.869141C38.354953 32.869141 38.820312 31.918625 38.820312 31.265625C38.820312 30.484625 38.224125 30.213344 37.953125 30.152344L37.953125 30.138672C38.182125 30.073672 38.638672 29.812672 38.638672 29.138672C38.638672 28.117672 37.586141 27.779297 36.994141 27.779297 z M 13.25 28C13.168 28.392 13.133 29.25 12 29.25L12 30L13 30L13 33L14 33L14 28L13.25 28 z M 9 37L18 37L18 45C18 45.56503 17.56503 46 17 46L9 46C8.4349698 46 8 45.56503 8 45L8 38C8 37.43497 8.4349698 37 9 37 z M 20 37L30 37L30 45C30 45.56503 29.56503 46 29 46L21 46C20.43497 46 20 45.56503 20 45L20 37 z M 32 37L41 37C41.56503 37 42 37.43497 42 38L42 45C42 45.56503 41.56503 46 41 46L33 46C32.43497 46 32 45.56503 32 45L32 37 z M 24.992188 38.820312C24.749188 38.820313 23.201172 38.771656 23.201172 41.347656C23.201172 44.013656 24.749188 43.910156 24.992188 43.910156C26.798187 43.910156 26.798828 41.837656 26.798828 41.347656C26.798828 40.157656 26.451187 38.820312 24.992188 38.820312 z M 12.5 39.021484L12.5 40.599609L11.175781 39.738281L10.630859 40.578125L12.082031 41.521484L10.630859 42.460938L11.173828 43.300781L12.5 42.441406L12.5 44.021484L13.5 44.021484L13.5 42.441406L14.824219 43.302734L15.369141 42.464844L13.917969 41.521484L15.369141 40.580078L14.826172 39.742188L13.5 40.601562L13.5 39.021484L12.5 39.021484 z M 35.5 39.021484L35.5 40.021484L34.5 40.021484L34.5 41.021484L35.5 41.021484L35.5 42.021484L34.5 42.021484L34.5 43.021484L35.5 43.021484L35.5 44.021484L36.5 44.021484L36.5 43.021484L37.5 43.021484L37.5 44.021484L38.5 44.021484L38.5 43.021484L39.5 43.021484L39.5 42.021484L38.5 42.021484L38.5 41.021484L39.5 41.021484L39.5 40.021484L38.5 40.021484L38.5 39.021484L37.5 39.021484L37.5 40.021484L36.5 40.021484L36.5 39.021484L35.5 39.021484 z M 24.992188 39.640625C25.127188 39.640625 25.804688 39.551656 25.804688 41.347656C25.804688 41.487656 25.899188 43.097656 24.992188 43.097656C24.080188 43.097656 24.193359 41.487656 24.193359 41.347656C24.193359 41.263656 24.197266 41.163922 24.197266 41.044922C24.197266 39.682922 24.856188 39.640625 24.992188 39.640625 z M 36.5 41.021484L37.5 41.021484L37.5 42.021484L36.5 42.021484L36.5 41.021484 z"/></svg>