<?xml version="1.0" encoding="UTF-8"?><svg id="a" xmlns="http://www.w3.org/2000/svg" viewBox="0 0 392.79 393.5"><defs><style>.b{fill:#fff;}</style></defs><path d="M388.45,199.8c-2.9,7.02-8.16,9.54-15.69,9.28-11.84-.41-23.7-.01-35.55-.2-6.09-.1-10.69-4.67-11.49-10.77-.71-5.43,2.79-11.05,8.21-12.77,1.74-.55,3.67-.65,5.52-.66,11.1-.06,22.22,.27,33.3-.13,7.53-.28,12.78,2.25,15.68,9.28v5.99Z"/><path d="M193.45,388.45c-7.02-2.9-9.56-8.14-9.3-15.65,.41-11.82,.01-23.66,.2-35.48,.1-6.09,4.67-10.67,10.79-11.47,5.44-.71,11.06,2.77,12.8,8.19,.56,1.73,.66,3.67,.67,5.51,.06,11.08-.26,22.17,.13,33.24,.27,7.5-2.26,12.76-9.3,15.66h-6Z"/><path d="M4.45,193.81c2.89-7.03,8.15-9.54,15.68-9.28,11.84,.41,23.7,.01,35.54,.2,6.09,.09,10.67,4.65,11.49,10.76,.72,5.43-2.77,11.04-8.2,12.78-1.74,.55-3.67,.66-5.52,.67-11.1,.06-22.21-.27-33.3,.13-7.52,.27-12.78-2.25-15.68-9.27v-5.99Z"/><path d="M306.72,196.71c.04,60.78-49.49,110.22-110.36,110.17-60.73-.06-110.13-49.38-110.17-109.99-.04-60.78,49.48-110.21,110.36-110.15,60.74,.05,110.12,49.35,110.17,109.97Zm-24.55,.1c0-47.34-38.39-85.64-85.8-85.56-47.31,.07-85.47,38.12-85.63,85.36-.15,47.28,38.17,85.67,85.61,85.76,47.38,.09,85.81-38.22,85.82-85.56Z"/><path d="M71.03,57.53c1.66,.92,4.9,1.94,7.11,4.04,9.03,8.6,17.8,17.47,26.54,26.36,5.28,5.37,5.31,12.79,.34,17.7-4.97,4.91-12.34,4.78-17.73-.52-8.89-8.75-17.72-17.55-26.47-26.43-3.86-3.92-4.9-8.62-2.59-13.74,2.16-4.79,6.15-6.98,12.8-7.41Z"/><path d="M335.98,71.4c-.86,1.65-1.73,4.85-3.74,6.96-8.88,9.28-18,18.33-27.21,27.27-5.06,4.91-12.4,4.71-17.17-.03-4.88-4.85-4.95-12.26,.12-17.41,8.83-8.98,17.77-17.86,26.74-26.7,3.92-3.87,8.6-4.95,13.75-2.7,4.83,2.11,7.03,6.09,7.52,12.61Z"/><path d="M94.57,284.29c6.83,.35,10.79,2.57,12.95,7.36,2.24,4.94,1.35,9.6-2.34,13.47-5.25,5.5-10.72,10.79-16.1,16.17-3.53,3.53-7.01,7.1-10.6,10.56-5.48,5.28-12.71,5.45-17.73,.49-5.02-4.96-4.98-12.3,.32-17.68,8.67-8.79,17.34-17.58,26.28-26.1,2.29-2.18,5.57-3.33,7.21-4.27Z"/><path d="M298.14,284.28c1.6,.86,4.86,1.85,7.05,3.94,9.12,8.68,17.99,17.63,26.81,26.62,5.12,5.22,5.08,12.53,.22,17.42-4.87,4.9-12.2,5-17.44-.11-9.11-8.88-18.1-17.88-27-26.96-3.75-3.82-4.66-8.49-2.46-13.45,2.12-4.79,6.06-7.07,12.82-7.46Z"/><path d="M208.64,36.74c0,6.1,.07,12.2-.02,18.3-.11,7.5-5.29,12.85-12.24,12.8-6.94-.05-12.05-5.41-12.1-12.93-.07-12.33-.08-24.66,0-36.98,.05-7.48,5.26-12.8,12.23-12.76,6.96,.04,11.96,5.35,12.13,12.89,0,.25,0,.5,0,.75,0,5.98,0,11.95,0,17.93Z"/><path class="b" d="M282.16,196.81c0,47.33-38.44,85.65-85.82,85.56-47.44-.09-85.76-38.48-85.61-85.76,.15-47.24,38.32-85.29,85.63-85.36,47.41-.07,85.8,38.22,85.8,85.56Z"/></svg>