<?xml version="1.0" encoding="UTF-8"?>
<svg id="uuid-7ddd30fd-5426-41e4-8b34-0969bdf6a285" data-name="Layer 1" xmlns="http://www.w3.org/2000/svg" width="1920" height="723" viewBox="0 0 1920 723">
  <g>
    <path d="M154.01,293.84s.37-.22,.37-.22l-.35,4.82s7.5-6.55,8.46-4.88c.54,.94-2.24,4.25-1.52,5.5l10.04-5.8c.42,.73-2.87,4.36-2.04,5.8l12.11-6.99s-4.66,6.04-4.11,6.99c6.71,11.62,94.38-74.08,102.86-59.39,14.66,25.39-102.12,46.81-94.86,59.39,0,0,82.28-76.55,94.86-54.77,0,0-92.31,45.33-86.86,54.77,0,0,81.21-59.93,86.86-50.15l-78.85,50.14c11.93,20.66,78.85-45.53,78.85-45.53,3.9,6.76-71.1,45.09-70.85,45.52,0,0,65.52-50.13,70.85-40.91,6.11,10.59-62.85,40.9-62.85,40.9l62.85-36.29s-64.01,20.41-54.85,36.28l54.85-31.67-46.84,31.66,46.84-27.04c.07,.12-43.75,18.54-38.84,27.04,0,0,33.25-32.27,38.91-22.46,0,0-35.79,14-30.91,22.46,2.6,4.51,28.92-22.4,31.39-18.12,0,0-26.94,11.98-23.39,18.12,0,0,22.03-18.68,24.62-14.21,1.55,2.69-16.61,14.21-16.61,14.21l18.95-10.94s-12.5,8.27-10.95,10.94l14.73-8.5c1.21,2.09-6.72,8.5-6.72,8.5,0,0,10.55-9.37,11.97-6.91,0,0-4.56,5.88-3.97,6.91,0,0,9.18-8.17,10.42-6.02,.89,1.55-2.85,5.26-2.42,6.02,0,0,8.52-7.6,9.68-5.59,0,0-2.05,4.93-1.68,5.59,0,0,9.4-5.43,9.4-5.43,0,0-1.79,4.76-1.4,5.43,0,0,6.28-4.63,6.72-3.88" fill="none" stroke="#fff" stroke-linecap="round" stroke-linejoin="round" stroke-width=".75"/>
    <path d="M280.23,145.14c1.09,1.89,9.44-5.45,9.44-5.45,.06,.11-2.41,6.01-2.41,6.01l10.42-6.01c.57,.99-4.92,7.46-4.92,7.46,0,0,10.81-11.12,12.92-7.46l-8.16,9.33c1.72,2.98,14.99-11.35,16.16-9.33,0,0-13.37,8.8-11.84,11.46,.7,1.22,17.03-16.33,19.84-11.46,2.27,3.94-17.47,10.96-15.85,13.77,0,0,22.16-16.7,23.85-13.77,2,3.46-22.83,11.51-20.11,16.23,3.49,6.05,28.11-16.23,28.11-16.23l-24.56,18.8s27.18-28.14,32.57-18.8c0,0-29.84,20.34-29.19,21.47,.53,.91,37.19-21.47,37.19-21.47,5.33,9.24-33.95,24.22-33.95,24.22,0,0,40.58-26.6,41.95-24.22,6.38,11.05-42.16,21.31-38.85,27.05,1.14,1.98,39.88-23.03,39.88-23.03,0,0-43.06,15.22-36.89,25.91l36.89-21.3c4.71,8.16-33.98,24.24-33.98,24.24l33.99-19.62c5.41,9.38-36.19,13.93-31.18,22.62,.47,.82,26.7-25.75,31.18-18,0,0-32.74,13.61-28.45,21.04,2.11,3.66,26.74-19.38,28.45-16.43s-26.93,17.56-25.8,19.51c2.76,4.78,22.72-20.24,25.8-14.9,1.29,2.23-23.22,18.02-23.22,18.02,1.66,2.88,20.4-18.28,23.22-13.41l-20.71,16.57c3.17,5.49,19.47-14.1,20.71-11.96,3.41,5.91-20.98,10.42-18.25,15.16,1.79,3.11,15.31-15.64,18.25-10.54,.12,.21-16.06,13.44-15.86,13.78,1.11,1.92,15.86-9.16,15.86-9.16l-13.53,12.43c.05,.08,13.53-7.81,13.53-7.81,0,0-12.1,9.63-11.24,11.11,0,0,10.8-7.26,11.24-6.49,.12,.2-9.01,9.82-9.01,9.82,1.44,2.5,8.64-5.84,9.01-5.2l-6.82,8.56c.6,1.04,6.83-3.94,6.83-3.94,.32,.55-4.69,7.33-4.69,7.33,0,0,4.56-2.93,4.69-2.71l-2.59,6.12c.42,.72,2.6-1.5,2.6-1.5" fill="none" stroke="#fff" stroke-linecap="round" stroke-linejoin="round" stroke-width=".75"/>
    <path d="M174.61,149.79c2.85,4.94,16.9-11.04,17.46-10.08,.63,1.1-1.5,5.48-1.5,5.48,.86,1.49,8.83-6.64,9.5-5.48,.34,.59-6.17,8.18-6.17,8.18,0,0,13.32-9.66,14.17-8.18,0,0-15.64,10.25-14.17,12.8l22.17-12.8s-25.49,11.67-22.17,17.42c.17,.3,30.17-17.42,30.17-17.42,3.2,5.53-33.52,16.24-30.17,22.04,0,0,37.82-22.65,38.17-22.04l-38.17,26.66c1.75,3.03,46.17-26.66,46.17-26.66,1.49,2.58-51.2,22.56-46.17,31.28,8.7,15.06,47.76-42.38,54.17-31.28,0,0-56.33,32.17-54.17,35.9,2.8,4.85,62.18-35.9,62.18-35.9,0,0-65.66,34.48-62.17,40.51,0,0,64.54-50.27,70.18-40.52,1.97,3.41-70.21,45.07-70.17,45.13,0,0,65.83-66.53,78.18-45.14,4.16,7.2-84.27,39.19-78.18,49.75,3.87,6.71,86.03-50.01,86.18-49.75l-86.18,54.37s88.22-64.7,94.18-54.37c7.81,13.53-108.92,33.45-94.18,58.99l85.93-49.61s-98.39,32.64-85.93,54.23c0,0,84.62-51.87,85.93-49.61,3.17,5.5-94.13,40.02-85.93,54.23l85.93-49.61c8.97,15.54-87.06,52.26-85.93,54.23l85.93-49.61-85.92,54.23c11.19,19.39,85.82-49.79,85.92-49.61l-85.92,54.23,85.92-49.61-85.92,54.23c14.43,24.99,80.52-58.97,85.92-49.61l-85.92,54.23c4.06,7.03,85.92-49.61,85.92-49.61,0,0-89.91,47.32-85.92,54.23,0,0,84.7-51.72,85.92-49.61l-85.92,54.22c14.13,24.47,72.55-72.76,85.92-49.61,2.6,4.5-91.23,45.03-85.92,54.22l85.92-49.61-85.92,54.22c3.83,6.64,85.92-49.6,85.92-49.6,12.81,22.18-95.08,38.36-85.92,54.22l85.92-49.6c12.28,21.28-85.92,54.22-85.92,54.22,0,0,81.12-57.91,85.92-49.6,2.5,4.33-91.82,44-85.91,54.22l85.91-49.6s-87.73,51.08-85.91,54.22c4,6.93,73.96-70.31,85.91-49.6,5.45,9.44-90.32,46.58-85.91,54.22,10.3,17.83,84.82-51.49,85.91-49.6,10.47,18.14-86.02,54.28-86.02,54.28l86.02-49.66c4.07,7.05-99.22,33.2-86.79,54.72,7.56,13.1,86.79-50.11,86.79-50.11" fill="none" stroke="#fff" stroke-linecap="round" stroke-linejoin="round" stroke-width=".75"/>
    <path d="M111.05,139.93s.34-.27,.38-.22c0,0-.4,4.79-.38,4.84l8.38-4.84c.03,.06-8.73,8.84-8.38,9.46,.49,.86,16.38-9.46,16.38-9.46l-16.38,14.07s24.09-14.58,24.38-14.08c4.15,7.19-28.76,11.1-24.38,18.69l32.38-18.7c2.5,4.34-36.45,16.27-32.38,23.31l40.38-23.32-40.38,27.93s42.53-38.07,48.38-27.94c4.98,8.62-48.38,32.55-48.38,32.55,0,0,52.37-39.51,56.39-32.55,9.5,16.45-59.64,31.54-56.39,37.17,4.88,8.46,57.67-48.81,64.39-37.17,0,0-74.72,23.9-64.39,41.79,0,0,63.14-57.82,72.39-41.79l-72.39,46.41c5.77,10,74.57-56.5,80.39-46.41,11.96,20.72-80.39,51.03-80.39,51.03l37.31-21.54c1.84,3.19-37.31,26.16-37.31,26.16l27.85-16.08s-32.54,12.58-27.85,20.7l20.63-11.91s-23.91,10.85-20.63,16.53c1.09,1.89,14.58-8.42,14.58-8.42,.22,.38-17.05,8.75-14.58,13.03,.62,1.07,8.05-7.54,9.3-5.37,1.81,3.14-10.86,7.28-9.3,9.99,.17,.3,4.16-3.39,4.58-2.65" fill="none" stroke="#fff" stroke-linecap="round" stroke-linejoin="round" stroke-width=".75"/>
    <path d="M369.3,293.84s.34-.28,.37-.22c0,0-.67,4.27-.35,4.82,0,0,8.44-5.05,8.52-4.92l-1.58,5.53c.59,1.02,10.55-6.09,10.55-6.09,0,0-3.04,5.23-2.55,6.09l104.49-60.33-96.48,60.32c14.91,25.82,96.48-55.71,96.48-55.71,0,0-91.39,50.66-88.48,55.7l88.48-51.09c1.67,2.89-80.48,51.08-80.48,51.08,10.39,18,79.75-47.73,80.48-46.46,2.46,4.27-84.21,26.14-72.48,46.46,0,0,71.49-43.54,72.48-41.84l-64.47,41.84s61.5-42.37,64.47-37.22l-56.47,37.22,56.47-32.6s-51.56,27.25-48.47,32.6l48.47-27.98s-46.7,17.19-40.46,27.98c3.5,6.07,33.79-34.98,40.48-23.37l-32.48,23.37c.27,.47,29.5-24.47,32.72-18.89,3.94,6.82-28.47,12.39-24.72,18.89l25.44-14.69c1.31,2.27-20.07,10.11-17.43,14.68,1.39,2.4,19.01-10.98,19.01-10.98,2.04,3.53-13.29,7.02-11.01,10.98,0,0,12.78-10.26,14.03-8.1,0,0-6.89,6.61-6.03,8.1,1.53,2.66,10.97-6.33,10.97-6.33l-2.96,6.33,9.65-5.57-1.65,5.57,9.41-5.43-1.41,5.43c.03,.05,1.55-1.02,1.6-.93" fill="none" stroke="#fff" stroke-linecap="round" stroke-linejoin="round" stroke-width=".75"/>
    <path d="M521.21,293.84s.32-.32,.38-.22c0,0-.86,3.94-.35,4.82,.31,.54,7.35-7.42,8.73-5.04l-1.79,5.65c11.08,19.19,88.75-82.51,102.29-59.06l-94.29,59.06c13.31,23.05,94.29-54.44,94.29-54.44,0,0-88.17,51.17-86.28,54.44,10.76,18.64,86.28-49.82,86.28-49.82,0,0-82.01,43.36-78.28,49.81l78.28-45.2c8.87,15.37-70.28,45.19-70.28,45.19,3.01,5.21,60.35-57.77,70.28-40.58,6.49,11.23-62.28,40.57-62.28,40.57,8.84,15.32,62.28-35.95,62.28-35.95l-54.27,35.95s45.08-47.25,54.27-31.33l-46.27,31.33,46.27-26.71-38.27,26.71c5.14,8.91,32.22-32.74,38.34-22.14,.63,1.1-32.42,18.53-30.34,22.13l30.79-17.78c2.14,3.7-22.97,17.46-22.79,17.77l23.92-13.81c1.19,2.06-18.51,9.32-15.92,13.81l18.15-10.48c1.4,2.43-11.86,7.52-10.15,10.48l13.89-8.02c1.1,1.91-5.89,8.02-5.89,8.02l11.26-6.5-3.26,6.5,9.95-5.74-1.94,5.74,9.45-5.46c.04,.07-1.45,5.45-1.45,5.45,.76,1.31,7.48-4.97,7.76-4.48" fill="none" stroke="#fff" stroke-linecap="round" stroke-linejoin="round" stroke-width=".75"/>
    <path d="M638.68,147.49c.27,.46,13.52-7.81,13.52-7.81,.62,1.07-2.86,4.24-1.98,5.76,1.34,2.33,9.98-5.76,9.98-5.76,.71,1.23-1.81,4.87-1.47,5.47,.85,1.47,5.11-3.3,5.26-3.04" fill="none" stroke="#fff" stroke-linecap="round" stroke-linejoin="round" stroke-width=".75"/>
    <path d="M521.21,139.93s.37-.22,.37-.22l-.35,4.82s7.4-6.47,8.35-4.82c.55,.94-2.29,4.26-1.56,5.52l9.57-5.52c.46,.8-3.66,4.61-2.74,6.2l10.75-6.2s-6.48,6.81-5.81,7.97c.9,1.56,12.67-9.94,13.81-7.97,2.04,3.53-12.01,9.23-11.01,10.97,0,0,16.49-15.34,19.01-10.97,0,0-18.94,12.72-17.71,14.84,0,0,24.04-17.74,25.71-14.84l-25.2,19.17c5.02,8.7,33.2-19.17,33.2-19.17,1.89,3.27-33.18,23.49-33.06,23.71,0,0,37.97-29.05,41.06-23.71,4.07,7.04-41.05,28.32-41.05,28.32l49.06-28.32s-57.29,18.67-49.06,32.94l57.06-32.94-57.06,37.56,65.06-37.56c.12,.2-73.11,28.25-65.06,42.18,0,0,62.44-60.6,73.07-42.18,0,0-84.16,27.58-73.07,46.8,6.73,11.65,74.69-57.85,81.07-46.8,0,0-92.58,31.48-81.07,51.42,0,0,79.73-67.61,89.07-51.43,7.48,12.96-89.07,56.04-89.07,56.04l97.07-56.05s-108.49,40.89-97.07,60.66l105.08-60.67c13.8,23.9-105.08,65.29-105.08,65.29,0,0,76.81-68.19,87.13-50.31,0,0-94.81,41.63-87.13,54.92,0,0,75.83-67.55,86.12-49.72,14.05,24.34-92.96,42.5-86.12,54.34,0,0,75.59-67.48,85.91-49.6" fill="none" stroke="#fff" stroke-linecap="round" stroke-linejoin="round" stroke-width=".75"/>
    <path d="M489.13,221.65c1.27,2.2,11-6.35,11-6.35,.07,.12-2.99,6.35-2.99,6.35l11-6.35c.45,.78-2.99,6.35-2.99,6.35,0,0,9.2-9.47,11-6.35l-2.99,6.35c1.17,2.03,10.21-7.72,11-6.35,0,0-3.64,5.22-2.99,6.35,.39,.68,9.44-9.06,11-6.35,.76,1.32-3.53,5.41-2.99,6.35,0,0,10.22-7.7,11-6.35,.54,.94-3.73,5.07-2.99,6.35,11.59,20.08,93.29-53.86,93.29-53.86l-85.94,54.24s71.72-74.26,85.94-49.62c0,0-87.78,51.05-85.94,54.24,1.22,2.11,85.94-49.62,85.94-49.62,13,22.51-85.94,54.23-85.94,54.23,0,0,83.12-54.49,85.94-49.62,13.7,23.73-93.04,41.93-85.93,54.23,2.46,4.26,85.93-49.61,85.93-49.61,0,0-99.85,30.12-85.93,54.23l85.93-49.61c11.46,19.86-85.93,54.23-85.93,54.23l85.93-49.61c14.28,24.73-99.16,31.3-85.93,54.23,1.3,2.25,73.59-70.98,85.93-49.61,0,0-98.25,32.88-85.92,54.23,6.38,11.06,80.76-58.54,85.92-49.61s-89.47,48.08-85.92,54.22c9.2,15.93,75.65-67.4,85.92-49.61,4.45,7.71-85.92,54.22-85.92,54.22,6.16,10.66,75.5-67.65,85.92-49.6l-85.91,54.22c13.15,22.77,80.77-58.51,85.91-49.6,14.62,25.31-97.61,33.95-85.91,54.22,8.44,14.62,72.06-73.6,85.91-49.6,.58,1.01-86.9,52.61-85.96,54.25,6.01,10.41,85.96-49.63,85.96-49.63l-86.27,54.43c.31,.54,86.27-49.81,86.27-49.81,0,0-93.28,45.51-87.67,55.23,0,0,84.21-56.61,87.67-50.62" fill="none" stroke="#fff" stroke-linecap="round" stroke-linejoin="round" stroke-width=".75"/>
    <path d="M496.4,146.84c2.02,3.5,11.99-7.83,12.38-7.15,.64,1.12-1.6,5.54-1.6,5.54,.61,1.05,6.25-4.7,6.72-3.88" fill="none" stroke="#fff" stroke-linecap="round" stroke-linejoin="round" stroke-width=".75"/>
    <path d="M369.33,139.93s.34-.27,.38-.22c0,0-.4,4.79-.38,4.84l8.38-4.84s-1.63,5.19-1.47,5.47c.29,.49,9.47-5.47,9.47-5.47l-2.01,5.78s9.89-5.99,10.01-5.78c1,1.74-4.47,4.76-3.41,6.59l11.41-6.59c.64,1.11-7.2,6.37-6.16,8.17l14.16-8.18-10.55,10.71s16.31-14.59,18.55-10.71c1.85,3.2-16.42,14.1-16.42,14.1,0,0,22.68-17.11,24.42-14.1,4.15,7.19-24.77,15.63-23.35,18.1,2.38,4.12,28.08-23.76,31.35-18.1,0,0-36.09,13.56-30.94,22.48,0,0,33.97-31.1,38.94-22.48l-38.89,27.07c3.37,5.83,43.49-32.95,46.89-27.07,7.11,12.31-46.89,31.69-46.89,31.69l54.89-31.69c2.66,4.61-54.89,36.31-54.89,36.31l62.9-36.31s-73.03,23.37-62.9,40.93l70.9-40.93s-81.35,27.45-70.9,45.55c5.92,10.25,78.9-45.55,78.9-45.55,1.06,1.83-90.73,29.68-78.9,50.17,5.78,10.02,75.19-70.46,86.9-50.17,13.65,23.64-98.66,34.43-86.9,54.79,3.56,6.17,86.03-70.17,94.91-54.79,6.46,11.2-110.03,33.23-94.91,59.41,11.07,19.17,102.91-59.42,102.91-59.42,16.55,28.67-102.91,64.03-102.91,64.03l87.19-50.34c3.73,6.47-87.19,54.96-87.19,54.96l86.17-49.75s-95,39.08-86.17,54.37c7.8,13.52,72.12-73.52,85.93-49.61,3.82,6.62-88.4,49.95-85.93,54.23l85.91-49.6-85.91,54.22c14.49,25.1,85.92-49.6,85.92-49.6,14.88,25.77-85.92,54.22-85.92,54.22,0,0,78.72-62.08,85.92-49.61,0,0-97.8,33.64-85.92,54.22,13.52,23.41,83.66-53.53,85.92-49.61,.4,.7-85.92,54.23-85.92,54.23,0,0,78.51-62.44,85.92-49.61l-85.92,54.23s83.88-53.15,85.93-49.61c0,0-100.21,29.49-85.93,54.23,0,0,77.52-64.17,85.93-49.61,6.66,11.54-85.93,54.23-85.93,54.23l85.93-49.61c10.9,18.88-85.93,54.23-85.93,54.23l85.94-49.62s-86.04,54.05-85.94,54.23c13.03,22.56,73.67-70.86,85.94-49.62l-85.94,54.24,85.94-49.62s-90.93,45.6-85.94,54.24c15.36,26.6,91.94-53.08,91.94-53.08l-91.94,57.7c10.15,17.59,85.91-49.6,85.91-49.6,8.35,14.46-86.03,54.29-86.03,54.29,11.32,19.6,82.09-56.48,86.03-49.67,6.15,10.65-86.74,54.7-86.74,54.7,8.7,15.07,82.21-57.93,86.74-50.08" fill="none" stroke="#fff" stroke-linecap="round" stroke-linejoin="round" stroke-width=".75"/>
    <path d="M901.11,222.36s.79-.46,.79-.46c1.52,2.64-12.68,6.95-10.52,10.69,1.85,3.2,13.75-7.94,13.75-7.94,4.07,7.04-27.72,16.08-25.76,19.49,4.14,7.18,25.01-16.17,25.76-14.87,7.05,12.22-42.54,27.22-41.7,28.69,.67,1.16,36.19-33.62,41.7-24.07" fill="none" stroke="#fff" stroke-linecap="round" stroke-linejoin="round" stroke-width=".75"/>
    <path d="M671.66,293.84s.37-.22,.37-.22l-.35,4.82s7.55-6.6,8.52-4.92c.55,.95-2.31,4.27-1.58,5.53l10.55-6.09c.45,.78-3.44,4.54-2.55,6.09l104.5-60.33s-104.25,46.9-96.49,60.33c6.29,10.9,88.54-69.49,96.5-55.71,13.7,23.73-95.28,43.97-88.5,55.71,0,0,76.76-71.42,88.5-51.09,0,0-85.56,42.33-80.5,51.09,0,0,75.26-55.54,80.5-46.48l-72.5,46.47c10.97,18.99,72.5-41.86,72.5-41.86,3.56,6.17-64.73,41.45-64.5,41.86,0,0,59.65-45.64,64.5-37.24,5.52,9.56-56.5,37.24-56.5,37.24l56.5-32.62s-56.64,18.51-48.5,32.62l48.5-28-40.5,28,40.5-23.38c.06,.11-36.65,16.19-32.5,23.38,0,0,27.77-26.95,32.5-18.76,0,0-28.44,11.93-24.5,18.76,2.03,3.52,22.57-17.48,24.5-14.14,0,0-19.1,9.63-16.5,14.14,0,0,14.77-12.52,16.5-9.53,.91,1.57-8.5,9.52-8.5,9.52l10.18-5.88s-2.8,4.79-2.18,5.87l11.22-6.48c.81,1.4-3.21,6.47-3.21,6.47,0,0,20.36-18.07,23.1-13.33,0,0-16.59,10.73-15.09,13.33,0,0,86.72-77.25,98.49-56.87,14.75,25.55-97.67,44.44-90.49,56.86,0,0,79.62-71.08,90.49-52.25,0,0-88.8,41.32-82.49,52.25,0,0,82.47-47.66,82.49-47.63,0,0-80.6,37.04-74.49,47.63,0,0,69.67-51.36,74.49-43.01,3.62,6.27-66.49,43.01-66.49,43.01,10.37,17.96,66.49-38.39,66.49-38.39,5.52,9.56-60.86,34.29-58.49,38.39,0,0,54.77-40.22,58.49-33.77,0,0-53.74,28.14-50.49,33.77,8.07,13.98,50.49-29.15,50.49-29.15,3.87,6.71-43,28.27-42.49,29.15,3.23,5.59,38.63-31.22,42.49-24.53,0,0-38.56,17.49-34.49,24.53,0,0,30.36-27.07,34.49-19.91,2.75,4.76-26.49,19.91-26.49,19.91,.69,1.2,23.86-19.86,26.49-15.3s-20.51,11.8-18.49,15.3c0,0,17.88-11.74,18.49-10.68,0,0-10.75,10.22-10.49,10.68,.05,.09,9.76-7.32,10.49-6.06,.96,1.65-2.49,6.06-2.49,6.06l2.49-1.44" fill="none" stroke="#fff" stroke-linecap="round" stroke-linejoin="round" stroke-width=".75"/>
    <path d="M841.61,173.73c.06,.11,.55-.32,.55-.32,.08,.14-4.33,7.12-4.33,7.12l6.29-3.63c.96,1.66-10.46,10.66-10.46,10.66,0,0,8.75-9,10.46-6.04l-15.36,13.49c1.63,2.83,14.25-10.79,15.36-8.87,0,0-24.8,12.88-22.18,17.43,.79,1.36,19.03-18.26,22.18-12.81,6.13,10.61-51.25,24.12-46.89,31.69,0,0,43.56-32.83,46.89-27.07,3.84,6.65-46.16,19.16-40.92,28.24s40.92-23.63,40.92-23.63l-36.11,25.47s30.14-31.2,36.11-20.85c0,0-32.71,21.85-31.99,23.09,.45,.79,31.99-18.47,31.99-18.47,4.51,7.81-28.34,20.98-28.34,20.98,0,0,27.41-17.97,28.34-16.36,4.24,7.34-27.21,15.25-25.02,19.06,.72,1.24,25.02-14.44,25.02-14.44,0,0-25.78,10.66-21.96,17.3l21.96-12.68c2.79,4.83-19.11,15.65-19.11,15.65l19.11-11.03c3.04,5.27-19.26,9.22-16.44,14.11,.25,.43,14.08-13.58,16.44-9.49,0,0-16.18,8.7-13.9,12.64,1.03,1.79,13.06-9.47,13.9-8.02s-12.04,10.28-11.48,11.25c1.23,2.13,10.11-9.01,11.48-6.63,.59,1.02-9.17,9.91-9.17,9.91,.66,1.14,8.06-7.22,9.17-5.3l-6.94,8.63c1.06,1.84,6.53-4.73,6.95-4.01,1.27,2.19-5.8,5.63-4.79,7.38,.47,.82,4.02-4.1,4.79-2.77,.04,.07-2.76,6.07-2.69,6.17,.19,.33,2.7-1.56,2.7-1.56" fill="none" stroke="#fff" stroke-linecap="round" stroke-linejoin="round" stroke-width=".75"/>
    <path d="M791.49,145.6c1.67,2.89,9.9-6.47,10.23-5.9,.71,1.23-2.26,5.92-2.26,5.92,.93,1.61,9.54-7.17,10.26-5.92,.25,.43-3.38,6.57-3.38,6.57,0,0,10.7-7.76,11.39-6.57,0,0-6.16,6.49-5.43,7.75l13.43-7.75s-9.55,6.78-8.1,9.29c.09,.16,16.1-9.3,16.1-9.3,1.35,2.34-12.65,8.65-11.23,11.1,0,0,19.06-11.41,19.23-11.1l-14.72,13.12c.86,1.49,22.72-13.12,22.72-13.12,.64,1.11-20.65,11.54-18.49,15.29,4.25,7.36,23.36-20.72,26.49-15.29,0,0-23.43,15.96-22.48,17.6,1.37,2.38,30.49-17.6,30.49-17.6,0,0-28.24,17.31-26.67,20.02,0,0,31.89-24.84,34.68-20.02,.91,1.57-31.05,22.51-31.03,22.53,0,0,32.87-33.22,39.03-22.54,1.95,3.38-38.39,20.17-35.52,25.13,1.96,3.39,43.45-25.26,43.52-25.13l-40.14,27.79s45.09-33.07,48.14-27.79c3.81,6.6-52.06,18.05-44.86,30.52l48.07-27.75s-51.53,19-44.88,30.53c0,0,44.2-27.09,44.88-25.91,1.58,2.74-45.86,21.64-41.76,28.73l41.77-24.11c4.17,7.22-39.26,26.06-38.73,26.98l38.73-22.36-35.76,25.26c4.66,8.07,35.71-20.72,35.76-20.64l-32.83,23.58,32.84-18.96-29.96,21.92c5.03,8.71,28.08-20.56,29.96-17.3l-27.13,20.28c1.28,2.22,27.13-15.66,27.13-15.66,0,0-25.54,16.59-24.34,18.67,0,0,23.99-14.65,24.34-14.05l-21.57,17.07c3.55,6.14,18.22-18.27,21.57-12.45,.62,1.08-20.11,13.28-18.83,15.49l18.83-10.87-16.11,13.92c.72,1.25,16.11-9.3,16.11-9.3,2.3,3.98-15.05,9.51-13.41,12.36l13.41-7.74c1.84,3.19-10.71,10.8-10.71,10.8,0,0,10.12-7.22,10.71-6.19,.3,.52-8.73,8.02-8.02,9.25l8.02-4.63s-5.5,7.41-5.33,7.7c.25,.43,4.59-4.36,5.33-3.08,.36,.62-2.93,5.64-2.64,6.14,.32,.55,2.6-1.58,2.64-1.52" fill="none" stroke="#fff" stroke-linecap="round" stroke-linejoin="round" stroke-width=".75"/>
    <path d="M671.69,139.93s.34-.27,.38-.22c0,0-.4,4.79-.38,4.84l8.38-4.84s-1.62,5.19-1.47,5.47c.29,.49,9.47-5.47,9.47-5.47l-2.01,5.78s9.89-5.99,10.01-5.78c1,1.74-4.46,4.75-3.41,6.59l11.41-6.59c.64,1.11-7.2,6.37-6.16,8.17l14.16-8.17-10.54,10.7s16.3-14.59,18.54-10.71c1.85,3.2-16.41,14.09-16.41,14.09,0,0,22.67-17.1,24.41-14.09,4.15,7.19-24.76,15.63-23.34,18.09,2.38,4.12,28.07-23.76,31.34-18.1,0,0-36.08,13.56-30.93,22.48,0,0,33.96-31.1,38.93-22.48l-38.88,27.06c3.37,5.83,43.48-32.94,46.88-27.07,7.11,12.31-46.88,31.68-46.88,31.68l54.88-31.69c2.66,4.61-54.88,36.3-54.88,36.3l62.88-36.31s-73.02,23.37-62.88,40.92l70.88-40.93s-81.33,27.45-70.88,45.54c5.91,10.24,78.89-45.55,78.89-45.55,1.06,1.83-90.71,29.68-78.89,50.16,5.78,10.01,75.18-70.45,86.89-50.16,13.64,23.63-98.64,34.42-86.89,54.78,3.56,6.17,86.02-70.15,94.89-54.78,6.46,11.19-110.01,33.22-94.89,59.4,9.24,16,85.91-49.6,85.91-49.6,13.87,24.03-85.91,54.22-85.91,54.22l85.92-49.6c3.68,6.37-85.92,54.22-85.92,54.22l85.92-49.6s-94.72,38.97-85.92,54.22c7.8,13.51,72.11-73.52,85.92-49.61,3.82,6.62-88.39,49.95-85.92,54.22l85.92-49.61-85.92,54.23c14.49,25.1,85.92-49.61,85.92-49.61,14.88,25.77-85.92,54.23-85.92,54.23,0,0,78.72-62.09,85.93-49.61,0,0-97.81,33.64-85.93,54.23,13.52,23.42,83.66-53.53,85.93-49.61,.4,.7-85.93,54.23-85.93,54.23,0,0,78.52-62.45,85.93-49.61l-85.93,54.23s83.89-53.15,85.93-49.61c0,0-100.22,29.49-85.93,54.23,0,0,77.53-64.17,85.93-49.61,6.66,11.54-85.93,54.23-85.93,54.23l85.94-49.61c10.9,18.88-85.94,54.23-85.94,54.23l85.94-49.62s-86.05,54.05-85.94,54.23c13.03,22.56,73.67-70.86,85.94-49.62l-85.94,54.24,85.94-49.62s-90.93,45.6-85.94,54.24c14.83,25.69,88.78-51.26,88.78-51.26l-88.78,55.88c10.15,17.59,85.91-49.6,85.91-49.6,8.35,14.46-86.03,54.29-86.03,54.29,11.32,19.61,82.1-56.48,86.03-49.67,6.15,10.65-86.74,54.7-86.74,54.7,8.7,15.07,82.21-57.93,86.74-50.08" fill="none" stroke="#fff" stroke-linecap="round" stroke-linejoin="round" stroke-width=".75"/>
    <path d="M1168.27,146.22c1.83,3.17,10.86-7.1,11.22-6.48,.72,1.25-2.41,6.01-2.41,6.01,.94,1.63,9.66-7.26,10.39-6,.33,.57-5.78,7.95-5.78,7.95,0,0,12.6-9.14,13.41-7.74,0,0-11.13,8.47-10.02,10.4l17.12-9.89s-16.7,8.99-14.42,12.94c.12,.21,21.09-12.18,21.09-12.18,2.09,3.61-21.02,11.71-18.83,15.49,0,0,24.88-14.9,25.11-14.5l-23.19,18.01c1.1,1.91,29.11-16.81,29.11-16.81,.91,1.58-30.53,15.11-27.44,20.46,5.3,9.19,29.13-25.85,33.04-19.08,0,0-32.88,20.62-31.59,22.86,1.66,2.88,36.89-21.3,36.89-21.3,0,0-37.66,21.63-35.62,25.18,0,0,37.38-29.12,40.64-23.47,1.14,1.97-39.55,27.4-39.53,27.44,0,0,37.3-37.7,44.3-25.58,2.35,4.08-46.77,23.65-43.32,29.63,2.15,3.72,47.77-27.77,47.85-27.62l-46.99,31.75s48.03-35.22,51.27-29.6c4.27,7.4-58.6,19.82-50.53,33.79l54.6-31.52s-61.91,22.02-53.97,35.78c0,0,56.95-34.91,57.83-33.39,2.14,3.71-62.82,28.11-57.29,37.69l60.94-35.19c6.38,11.06-61.32,38.15-60.51,39.55l63.95-36.92-63.6,41.34c8.71,15.09,66.77-38.74,66.86-38.6l-66.61,43.07,69.67-40.22-69.52,44.75c12.15,21.05,67.83-49.67,72.38-41.79l-72.32,46.37c3.54,6.13,74.99-43.3,74.99-43.3,0,0-78.54,41.89-75.05,47.95,0,0,76.42-46.67,77.53-44.76l-77.68,49.47c13.15,22.78,67.53-67.73,79.98-46.17,2.43,4.21-85.21,42.34-80.24,50.95l82.33-47.53-82.71,52.37c3.78,6.54,84.6-48.85,84.6-48.85,12.69,21.98-94.19,38.04-85.12,53.76l86.8-50.12c12.5,21.65-87.46,55.11-87.46,55.11,0,0,83.98-59.94,88.94-51.35,2.61,4.52-95.92,45.77-89.76,56.44l91.01-52.55s-93.98,54.4-92.04,57.76c4.34,7.51,80.11-76.17,93.07-53.73,5.97,10.34-99.18,50.72-94.34,59.09,11.4,19.75,93.93-57.01,95.13-54.92,11.75,20.35-96.74,60.47-96.74,60.47l97.27-56.16c4.65,8.05-113.61,37.43-99.42,62.02,8.68,15.04,99.66-57.54,99.66-57.54,15.27,26.44-102.74,63.94-102.74,63.94,2.07,3.59,88.47-83.92,102.69-59.29,11.1,19.22-110.44,66.26-109.52,67.85l109.14-63.01" fill="none" stroke="#fff" stroke-linecap="round" stroke-linejoin="round" stroke-width=".75"/>
    <path d="M1087.91,159.1s9.53-7.57,10.42-6.02c0,0-27.04,19.85-26.88,20.14l49.51-28.59c.17,.3-57.84,33.68-55.97,36.93,2.07,3.59,68.68-39.65,68.68-39.65l-72.75,46.62s82.11-49.71,83.11-47.98c13.72,23.77-100.37,29.11-85.88,54.2l94.98-54.84c7.17,12.42-108.54,40.4-96.9,60.57l105.19-60.73-106.48,66.1s100.64-90.07,114.48-66.1c11.56,20.03-115.28,71.18-115.28,71.18,0,0,114.51-86.38,123.28-71.18,20.41,35.36-130.67,63.91-123.67,76.02,7.86,13.61,92.81-78.54,103.62-59.82,0,0-120.11,36.01-103.67,64.48,0,0,87.35-79.99,100.15-57.82l-99.91,62.3c7.01,12.14,90.53-68.58,97.59-56.35,14.38,24.9-97.08,60.67-97.08,60.67l95.35-55.05c4.51,7.82-94.58,59.22-94.58,59.22l93.24-53.83s-106.94,32.39-92.23,57.87l91.16-52.63s-103.09,33.72-89.92,56.53c6.68,11.57,89.07-51.42,89.07-51.42,1.17,2.03-100.71,32.51-87.61,55.2,5.78,10.02,75.21-70.49,86.93-50.19,13.4,23.2-96.81,33.86-85.27,53.85,3.18,5.51,76.81-62.65,84.74-48.92,5.66,9.81-96.12,29.53-82.88,52.47,8.87,15.36,82.48-47.62,82.48-47.62,13.01,22.53-80.42,51.05-80.42,51.05l80.15-46.27c3.34,5.79-77.89,49.59-77.89,49.59l77.73-44.88s-83.03,34.68-75.29,48.09c6.83,11.83,63.14-64.37,75.23-43.43,3.24,5.62-74.7,42.91-72.6,46.54l72.66-41.95-69.83,44.94c11.8,20.44,69.98-40.4,69.98-40.4,11.68,20.22-66.97,43.28-66.97,43.28,0,0,61.58-48.57,67.21-38.81,0,0-72.95,26.11-64.02,41.58,10.13,17.54,62.66-40.09,64.36-37.16,.29,.5-60.96,39.82-60.96,39.82,0,0,56.1-44.61,61.39-35.44l-57.8,37.99s56.93-36.08,58.32-33.67c0,0-63.73,20.18-54.53,36.1,0,0,49.75-41.19,55.15-31.84,4.03,6.98-51.16,34.15-51.16,34.15l51.88-29.95c6.17,10.68-47.66,32.13-47.66,32.13l48.49-28s-44.1,29.95-44.04,30.05c6.82,11.81,38.57-37.1,44.99-25.98l-40.31,27.89,41.39-23.9s-38.65,21.88-36.46,25.67c6.3,10.9,37.69-21.76,37.69-21.76l-32.48,23.37c4,6.93,33.88-19.56,33.88-19.56,2.9,5.02-28.37,21-28.37,21,3.94,6.83,28.6-19.68,29.97-17.3,1.83,3.16-24.15,18.56-24.15,18.56,2.61,4.52,24.63-17.35,25.98-15,3.19,5.53-19.82,16.06-19.82,16.06,0,0,20.16-15.8,21.96-12.68,0,0-15.64,13.12-15.41,13.52,0,0,15.62-14.41,17.96-10.37,.31,.54-10.96,10.95-10.96,10.95,.15,.26,12.74-10.49,14.1-8.14,.95,1.64-6.62,8.44-6.62,8.44,0,0,10.43-6.78,10.76-6.21,0,0-3.75,4.6-2.8,6.24,.67,1.17,9.4-5.43,9.4-5.43,.24,.41-1.4,5.43-1.4,5.43,0,0,118.13-69.46,118.68-68.52,0,0-125.11,43.52-110.68,68.52,6.1,10.56,109.55-63.25,109.55-63.25,0,0-107.75,52.36-101.49,63.21,16.7,28.92,91.13-72.61,99.79-57.61,0,0-96.2,48.42-91.12,57.22l88.66-51.19c1.11,1.93-91.59,28.26-78.93,50.19,0,0,63.57-64.05,75.41-43.54,0,0-67.4,35.51-63.93,41.53,6.8,11.78,58.61-33.84,58.61-33.84,3.3,5.72-47.65,21.03-42.85,29.36,4.49,7.77,28.21-27.84,33.21-19.17" fill="none" stroke="#fff" stroke-linecap="round" stroke-linejoin="round" stroke-width=".75"/>
    <path d="M1524.67,221.4c.05,.08,.71-.41,.71-.41l-7.92,9.19s10.21-8.92,11.52-6.65c2.36,4.1-22.41,10.29-19.27,15.74l19.27-11.12c2.36,4.09-32.46,12.55-27.78,20.66l27.78-16.04s-40.73,20.91-37.61,26.33c2.45,4.25,34.51-27.08,37.61-21.71,7.95,13.77-54.36,26.92-50.43,33.73,0,0,43.74-40.7,50.43-29.12" fill="none" stroke="#fff" stroke-linecap="round" stroke-linejoin="round" stroke-width=".75"/>
    <path d="M1308.07,293.84c.04,.07,.37-.22,.37-.22,.05,.08-.35,4.82-.35,4.82l8.52-4.92c.37,.64-1.58,5.53-1.58,5.53,0,0,8.83-9.08,10.55-6.09l-2.55,6.09c11.12,19.25,96.97-73.39,104.51-60.34,0,0-107.09,42.01-96.5,60.34,3.42,5.93,82.81-79.45,96.51-55.72,11.32,19.61-96.58,41.74-88.5,55.72,0,0,82.23-61.97,88.51-51.1,7.36,12.76-90.56,33.69-80.5,51.1,10.01,17.33,80.5-46.48,80.5-46.48l-72.5,46.48s60.5-62.65,72.5-41.86c0,0-65.89,39.45-64.5,41.86,.91,1.58,64.5-37.24,64.5-37.24,8.66,14.99-56.5,37.24-56.5,37.24,0,0,54.65-35.83,56.5-32.62,7.88,13.65-52.59,25.54-48.5,32.62,1.39,2.4,48.5-28,48.5-28,0,0-47.24,16.32-40.5,28l40.5-23.38c4.52,7.82-32.5,23.38-32.5,23.38l32.5-18.76c4.34,7.51-28.52,11.8-24.5,18.76,.37,.64,20.98-20.24,24.5-14.14,0,0-19.13,9.58-16.5,14.14,1.23,2.12,15.51-11.24,16.5-9.53,.65,1.13-8.94,8.75-8.5,9.52,1.22,2.11,10-8.91,11.36-6.56,.32,.56-3.36,6.56-3.36,6.56,.82,1.43,10.1-9.05,11.49-6.64l-3.49,6.64c3.08,5.33,18.92-13.7,20.12-11.62,2.41,4.18-14.05,8.27-12.12,11.61,8.44,14.62,72.07-73.61,85.93-49.61,.53,.92-78.78,48.12-77.92,49.61,5.45,9.44,77.93-44.99,77.93-44.99l-69.92,44.99c.25,.44,69.93-40.37,69.93-40.37,0,0-65.93,33.43-61.92,40.37,0,0,59.48-39.99,61.93-35.75,.57,1-53.92,35.75-53.92,35.75,8.64,14.96,51.71-34.97,53.93-31.13l-45.92,31.13c4.04,6.99,45.93-26.52,45.93-26.52,1.68,2.91-37.92,26.51-37.92,26.51,0,0,36.9-23.66,37.93-21.9l-29.92,21.9c4.79,8.29,29.93-17.28,29.93-17.28,1.25,2.16-25.52,11.05-21.92,17.28,0,0,20-15.99,21.93-12.66,1.01,1.75-13.92,12.66-13.92,12.66l13.93-8.04s-6.43,7.16-5.92,8.04c.8,1.38,5.41-4.31,5.93-3.42" fill="none" stroke="#fff" stroke-linecap="round" stroke-linejoin="round" stroke-width=".75"/>
    <path d="M1435.73,147.49c2.21,3.82,13.09-8.55,13.52-7.81,.68,1.18-1.98,5.76-1.98,5.76,.9,1.56,9.28-6.98,9.98-5.76,.19,.33-1.47,5.47-1.47,5.47,0,0,4.94-3.59,5.26-3.04" fill="none" stroke="#fff" stroke-linecap="round" stroke-linejoin="round" stroke-width=".75"/>
    <path d="M1308.1,139.93s.34-.27,.38-.22c0,0-.4,4.79-.38,4.84l8.38-4.84s-1.63,5.19-1.47,5.47c.29,.49,9.47-5.47,9.47-5.47l-2.01,5.78s9.89-5.99,10.01-5.78c1,1.74-4.47,4.75-3.41,6.59l11.41-6.59c.64,1.11-7.2,6.37-6.16,8.17l14.16-8.18-10.54,10.71s16.3-14.59,18.55-10.71c1.85,3.2-16.42,14.1-16.42,14.1,0,0,22.68-17.11,24.42-14.1,4.15,7.19-24.77,15.63-23.35,18.1,2.38,4.12,28.08-23.76,31.35-18.1,0,0-36.09,13.56-30.94,22.48,0,0,33.96-31.1,38.94-22.48l-38.88,27.07c3.37,5.83,43.49-32.95,46.89-27.07,7.11,12.31-46.89,31.69-46.89,31.69l54.89-31.69c2.66,4.61-54.89,36.31-54.89,36.31l62.89-36.31s-73.03,23.37-62.89,40.93l70.9-40.93s-81.35,27.45-70.9,45.55c5.91,10.24,78.9-45.55,78.9-45.55,1.06,1.83-90.73,29.68-78.9,50.17,5.78,10.02,75.19-70.46,86.9-50.17,13.65,23.63-98.66,34.43-86.9,54.79,3.56,6.17,86.03-70.16,94.9-54.79,6.46,11.2-110.02,33.22-94.9,59.41,11.07,19.17,102.91-59.41,102.91-59.41,16.55,28.66-102.91,64.03-102.91,64.03l87.79-50.69c3.76,6.51-87.79,55.31-87.79,55.31l86.27-49.81s-95.11,39.12-86.27,54.43c7.8,13.52,72.12-73.53,85.93-49.61,3.82,6.62-88.4,49.95-85.93,54.23l85.91-49.6-85.91,54.22c14.49,25.1,85.91-49.6,85.91-49.6,14.88,25.77-85.91,54.22-85.91,54.22,0,0,78.71-62.08,85.91-49.6,0,0-97.8,33.64-85.91,54.22,13.52,23.41,83.65-53.52,85.92-49.6,.4,.7-85.92,54.22-85.92,54.22,0,0,78.51-62.44,85.92-49.6l-85.92,54.22s83.87-53.15,85.92-49.6c0,0-100.2,29.48-85.92,54.22,0,0,77.51-64.16,85.92-49.61,6.66,11.53-85.92,54.22-85.92,54.22l85.92-49.61c10.9,18.88-85.92,54.22-85.92,54.22l85.92-49.61s-86.03,54.04-85.92,54.23c13.02,22.56,73.66-70.85,85.92-49.61l-85.92,54.23,85.92-49.61s-90.91,45.59-85.92,54.23c14.35,24.86,85.92-49.61,85.92-49.61l-85.92,54.23c10.15,17.59,85.93-49.61,85.93-49.61,8.35,14.46-86.04,54.29-86.04,54.29,11.32,19.61,82.11-56.49,86.04-49.68,6.15,10.65-86.75,54.71-86.75,54.71,8.7,15.08,82.22-57.94,86.75-50.09" fill="none" stroke="#fff" stroke-linecap="round" stroke-linejoin="round" stroke-width=".75"/>
    <path d="M1664.61,145.57c1.17,2.02,10.09-5.83,10.09-5.83,.06,.11-2.08,5.82-2.08,5.82l10.08-5.82c.44,.77-2.87,6.28-2.87,6.28,0,0,9.09-9.35,10.87-6.28l-4.73,7.35c1.34,2.32,11.68-8.84,12.58-7.26,0,0-8.48,7.03-7.4,8.89,.53,.91,12.72-12.21,14.83-8.56,1.62,2.8-11.64,8.67-10.48,10.67,0,0,16.25-12.25,17.49-10.1,1.44,2.5-15.79,9.18-13.81,12.59,2.54,4.4,20.45-11.8,20.45-11.8l-17.33,14.63s19.7-20.4,23.61-13.63c0,0-21.45,15.88-20.97,16.72,.38,.66,26.91-15.54,26.91-15.54,3.97,6.88-24.65,18.85-24.65,18.85,0,0,29.29-19.2,30.29-17.49,4.76,8.24-30.83,16.72-28.36,20.99,.96,1.67,33.69-19.45,33.69-19.45,0,0-37.46,13.74-32.04,23.12l37.09-21.42c4.93,8.54-35.7,25.23-35.7,25.23l40.47-23.37c6.72,11.64-45.51,16.5-39.28,27.3,.66,1.15,37.51-36.18,43.8-25.29,0,0-49.09,18.43-42.79,29.33,3.5,6.06,44.24-32.07,47.06-27.17s-48.17,27.93-46.22,31.31c5.38,9.32,44.24-39.42,50.25-29.01,2.61,4.53-49.56,33.23-49.56,33.23,3.82,6.62,46.88-42,53.35-30.8l-52.78,35.09c8.62,14.93,52.97-38.37,56.35-32.53,9.63,16.69-63.61,23.53-55.9,36.89,5.82,10.08,49.69-50.75,59.24-34.2,.4,.7-59.55,37.49-58.89,38.62,4.34,7.51,62.02-35.81,62.02-35.81l-61.77,40.28c.23,.41,64.68-37.34,64.68-37.34,0,0-68.68,34.65-64.52,41.87,0,0,64.57-43.4,67.22-38.81,.71,1.23-67.14,43.38-67.14,43.38,11.15,19.32,66.77-45.16,69.63-40.2l-69.62,44.81c6.32,10.95,71.91-41.51,71.91-41.51,3.1,5.37-71.97,46.17-71.97,46.17,0,0,72.05-46.2,74.04-42.75l-74.19,47.45c12.17,21.08,76.06-43.91,76.06-43.91,4.05,7.02-87.96,28.5-76.31,48.68,0,0,71.13-56.87,77.97-45.02,4.99,8.64-78.34,49.85-78.34,49.85l79.8-46.07s-85.15,42.59-80.3,50.98c10.96,18.98,74.52-59.25,81.54-47.08l-82.23,52.09c5.19,8.99,79.83-53.99,83.26-48.07,0,0-87.7,47.11-84.17,53.22,0,0,73.56-68.86,84.99-49.07,0,0-86.97,53.09-86.22,54.4,0,0,75.27-70.11,86.81-50.12,6.61,11.44-94.61,45.13-88.49,55.71l88.86-51.3c2.44,4.22-97.6,46.46-91.32,57.34,3.24,5.62,91.44-52.79,91.44-52.79,13.3,23.04-95.62,59.82-95.62,59.82,9.64,16.7,93.46-58.66,95.49-55.13" fill="none" stroke="#fff" stroke-linecap="round" stroke-linejoin="round" stroke-width=".75"/>
    <path d="M1544.67,293.87c.06,.11,.36-.24,.37-.22,.54,.93-.32,4.81-.32,4.81,.77,1.33,7.89-5.93,8.49-4.9,.19,.33-1.52,5.5-1.52,5.5,0,0,9.86-7.15,10.49-6.06,0,0-2.99,5.18-2.49,6.06l104.44-60.3s-109.83,37.09-96.43,60.29c.55,.96,96.43-55.68,96.43-55.68,8.94,15.48-97.78,39.47-88.43,55.67,0,0,87.61-52.48,88.43-51.06l-80.43,51.05c3.05,5.28,80.43-46.43,80.43-46.43,2.3,3.98-80.18,32.99-72.42,46.43,11.62,20.13,63.85-56.66,72.42-41.81,0,0-66.96,37.4-64.42,41.81,2.9,5.02,64.42-37.19,64.42-37.19,0,0-59.59,31.69-56.41,37.19,0,0,51.89-40.42,56.42-32.57,1.38,2.39-48.43,32.53-48.41,32.57,0,0,40.76-41.2,48.41-27.95,2.2,3.82-43.64,22.35-40.41,27.95,1.82,3.14,40.34-23.45,40.41-23.33l-32.4,23.33s30.35-22.26,32.4-18.71c2.16,3.74-28.48,11.64-24.4,18.71l24.4-14.09s-19.05,9.49-16.4,14.08c0,0,16.15-9.9,16.4-9.47,.4,.68-9.41,7.7-8.39,9.46l10.07-5.81c.54,.94-2.14,5.69-2.07,5.81l10.16-5.86-2.15,5.86c1.54,2.67,11.82-6.86,11.84-6.83l-3.83,6.83,120.49-69.57-112.49,69.56c18.75,32.48,104.66-76.65,111.69-64.48l-103.64,64.45c4.84,8.38,102.41-59.13,102.41-59.13,0,0-98.23,51.29-93.89,58.82,0,0,90.78-55.44,92.09-53.17l-82.83,52.44c13.2,22.86,67.78-67.97,80.27-46.34,2.12,3.68-74.19,37.43-69.85,44.95l66.11-38.17-53.5,35.51c2.12,3.68,47.56-27.46,47.56-27.46,4.1,7.1-28.86,14.52-25.93,19.59l10.93-6.31" fill="none" stroke="#fff" stroke-linecap="round" stroke-linejoin="round" stroke-width=".75"/>
    <path d="M1544.73,139.96s.34-.27,.37-.22c0,0-.4,4.79-.37,4.84l8.37-4.84s-1.52,5.14-1.36,5.41c.28,.49,9.36-5.41,9.36-5.41l-1.92,5.73s9.8-5.93,9.92-5.73c.99,1.72-4.38,4.73-3.33,6.54l11.33-6.54c.64,1.11-7.14,6.35-6.1,8.14l14.1-8.14-10.51,10.68s16.27-14.56,18.51-10.68c1.84,3.19-16.39,14.08-16.39,14.08,0,0,22.65-17.09,24.39-14.08,4.15,7.19-24.74,15.62-23.32,18.08,2.38,4.12,28.06-23.74,31.32-18.08,0,0-36.06,13.56-30.91,22.47,0,0,33.94-31.08,38.91-22.47l-38.86,27.05c3.36,5.83,43.47-32.93,46.86-27.05,7.1,12.3-46.86,31.67-46.86,31.67l54.86-31.67c2.66,4.61-54.86,36.29-54.86,36.29l62.86-36.29s-72.99,23.36-62.86,40.91l70.86-40.91s-81.31,27.44-70.86,45.53c5.91,10.24,78.86-45.53,78.86-45.53,1.06,1.83-90.68,29.67-78.86,50.15,5.78,10.01,75.15-70.43,86.86-50.15,13.64,23.62-98.61,34.42-86.86,54.77,3.56,6.16,85.99-70.13,94.86-54.77,6.46,11.19-109.97,33.21-94.86,59.39,9.23,15.99,85.85-49.57,85.85-49.57,13.86,24.01-85.85,54.19-85.85,54.19l85.86-49.57c3.68,6.37-85.86,54.19-85.86,54.19l85.86-49.57s-94.66,38.95-85.86,54.19c7.8,13.5,72.06-73.47,85.86-49.57,3.82,6.61-88.33,49.91-85.86,54.19l85.86-49.57-85.86,54.19c14.48,25.09,85.86-49.57,85.86-49.57,14.87,25.75-85.86,54.19-85.86,54.19,0,0,78.67-62.04,85.86-49.57,0,0-97.74,33.62-85.86,54.19,13.51,23.4,83.6-53.49,85.87-49.57,.4,.7-85.87,54.19-85.87,54.19,0,0,78.46-62.4,85.87-49.58l-85.87,54.19s83.83-53.12,85.87-49.58c0,0-100.15,29.47-85.87,54.2,0,0,77.47-64.13,85.87-49.58,6.66,11.53-85.87,54.2-85.87,54.2l85.87-49.58c10.89,18.87-85.87,54.2-85.87,54.2l85.88-49.58s-85.98,54.01-85.88,54.2c13.02,22.55,73.62-70.81,85.88-49.58l-85.88,54.2,85.88-49.58s-90.86,45.57-85.88,54.2c14.35,24.85,85.88-49.58,85.88-49.58l-85.88,54.2c10.15,17.58,85.88-49.58,85.88-49.58,8.34,14.45-86,54.27-86,54.27,11.32,19.6,82.07-56.47,86-49.65,6.15,10.65-86.72,54.69-86.72,54.69,8.7,15.07,82.19-57.91,86.72-50.07" fill="none" stroke="#fff" stroke-linecap="round" stroke-linejoin="round" stroke-width=".75"/>
    <path d="M292.87,491.46c.27,.46,13.43-7.76,13.43-7.76,.61,1.06-2.8,4.22-1.93,5.73,1.33,2.31,9.93-5.73,9.93-5.73,.71,1.23-1.79,4.86-1.45,5.46,.67,1.16,4.03-2.61,4.15-2.4" fill="none" stroke="#fff" stroke-linecap="round" stroke-linejoin="round" stroke-width=".75"/>
    <path d="M157.1,483.94s.37-.22,.37-.22l-.35,4.82s7.4-6.47,8.35-4.82c.54,.93-2.16,4.22-1.44,5.45l9.45-5.45c.41,.71-2.67,4.29-1.86,5.69l9.86-5.69s-3.38,5.48-2.9,6.3c.71,1.23,10.01-7.85,10.91-6.3,1.18,2.04-5.55,6.48-4.97,7.49,0,0,11.25-10.47,12.97-7.49,0,0-9.1,8.32-8.42,9.48,0,0,15.36-11.33,16.43-9.48l-13.37,12.34c3.23,5.6,21.37-12.34,21.37-12.34,1.17,2.03-19.68,15.8-19.6,15.94,0,0,25.53-19.53,27.6-15.94,2.73,4.72-26.75,20.06-26.75,20.06l34.75-20.06s-40.39,14.31-34.49,24.53l42.49-24.53-42.48,29.15,50.49-29.15c.09,.16-56.8,22.86-50.5,33.77,0,0,49.99-48.52,58.5-33.78,0,0-67.59,22.93-58.62,38.47,5.53,9.57,61.39-47.54,66.63-38.47,0,0-76.5,26.71-66.94,43.27,0,0,67.08-56.88,74.94-43.27,6.37,11.03-75.48,48.2-75.48,48.2l83.49-48.2s-94.28,36.07-84.33,53.31l92.33-53.31c12.32,21.34-93.61,58.66-93.61,58.66,0,0,89.57-79.52,101.61-58.66,0,0-112.71,48.7-103.62,64.44,0,0,98.28-87.55,111.62-64.44,18.72,32.43-124.53,55.49-115.42,71.26,0,0,88.36-78.88,100.43-57.98" fill="none" stroke="#fff" stroke-linecap="round" stroke-linejoin="round" stroke-width=".75"/>
    <path d="M283.16,410.61c.08,.15,.73-.42,.73-.42" fill="none" stroke="#fff" stroke-linecap="round" stroke-linejoin="round" stroke-width=".75"/>
    <path d="M174.29,418.5c2.64,4.57,15.66-10.23,16.18-9.34,.77,1.34-2.88,6.28-2.88,6.28,.87,1.51,8.93-6.72,9.61-5.55,.2,.34-1.79,5.65-1.79,5.65,0,0,7.59-5.51,8.08-4.67,0,0-1.72,4.63-1.29,5.37l7.2-4.16s-1.71,4.15-1.08,5.24c.04,.07,6.67-3.85,6.67-3.85,.46,.79-1.51,4.39-1.04,5.22,0,0,6.31-3.78,6.36-3.67l-1.12,5.27c.24,.41,6.27-3.62,6.27-3.62,.15,.26-1.86,4.53-1.36,5.4,1.03,1.78,5.65-5.01,6.41-3.7,0,0-1.97,5.3-1.77,5.64,.31,.53,6.84-3.95,6.84-3.95,0,0-2.74,5.5-2.43,6.02,0,0,7.05-5.49,7.66-4.42,.18,.31-3.47,6.61-3.46,6.62,0,0,7.66-7.75,9.1-5.26,.41,.71-5.71,6.53-5.11,7.57,.52,.9,11.52-6.7,11.54-6.66l-7.71,9.07s14.96-10.97,15.97-9.22c1.19,2.07-14.56,7.82-12.31,11.72l37.93-21.9s-39.6,15.52-34.42,24.49c0,0,33.9-20.78,34.42-19.87,1.2,2.08-34.14,17.18-31.04,22.54l31.04-17.92c3.06,5.3-28.19,20-27.8,20.67l27.8-16.05-24.69,18.87c3.22,5.57,24.66-14.31,24.69-14.26l-21.69,17.14,21.69-12.52-18.83,15.49c3.16,5.47,17.64-12.92,18.83-10.87l-16.07,13.9c.76,1.31,16.07-9.28,16.07-9.28,0,0-14.14,11.13-13.42,12.37,0,0,13.23-8.08,13.42-7.75l-10.89,10.91c1.79,3.1,9.2-9.23,10.9-6.29,.33,.56-9.14,8.36-8.47,9.51l8.47-4.89-6.15,8.17c.27,.48,6.15-3.55,6.15-3.55,1,1.74-4.67,5.66-3.95,6.9l3.95-2.28" fill="none" stroke="#fff" stroke-linecap="round" stroke-linejoin="round" stroke-width=".75"/>
    <path d="M88.21,428.01s9.37-7.45,10.26-5.92c0,0-26.18,19.37-26.03,19.64l48.63-28.08c.17,.29-56.55,33.03-54.72,36.21,2.04,3.52,67.51-38.98,67.51-38.98l-71.32,45.8s80.8-48.92,81.78-47.22c13.48,23.36-98.59,28.67-84.36,53.32l93.52-53.99c7.06,12.22-106.75,39.8-95.3,59.64l103.63-59.83-104.84,65.15s99.19-88.78,112.84-65.15c11.4,19.74-113.61,70.21-113.61,70.21,0,0,112.94-85.19,121.59-70.2,20.14,34.89-128.92,63.11-122.01,75.06,9.83,17.03,116.12-98.27,129.64-74.85,0,0-150.26,44.05-129.77,79.54,0,0,94.12-86.19,107.91-62.3l-107.78,66.85c7.3,12.65,94.34-71.47,101.7-58.72,15,25.97-101.33,63.12-101.33,63.12l98.09-56.63c4.65,8.05-97.49,60.91-97.49,60.91l95.31-55.03s-109.54,33.08-94.48,59.17l92.89-53.63s-105.28,34.35-91.84,57.64c6.8,11.77,90.66-52.34,90.66-52.34,1.19,2.07-102.74,33.09-89.39,56.23,5.89,10.2,76.57-71.76,88.5-51.1,13.66,23.66-98.77,34.47-87,54.85,3.24,5.61,78.27-63.84,86.35-49.85,5.78,10.01-98.16,30.07-84.64,53.49,9.05,15.68,84.16-48.59,84.16-48.59,13.29,23.03-82.25,52.11-82.25,52.11l81.92-47.3c3.42,5.93-79.8,50.69-79.8,50.69l79.6-45.96s-85.21,35.48-77.27,49.23c7.01,12.14,64.79-66.05,77.19-44.57,3.33,5.77-76.8,43.99-74.65,47.72l74.65-43.1-71.9,46.13c12.14,21.02,71.96-41.55,71.96-41.55,12.02,20.82-69.01,44.46-69.01,44.46,0,0,63.33-49.95,69.12-39.91,0,0-75.15,26.78-65.96,42.7,10.41,18.02,64.4-41.2,66.14-38.19,.3,.52-62.77,40.86-62.77,40.86,0,0,57.58-45.8,63.02-36.38l-59.43,38.93s58.33-36.96,59.75-34.5c0,0-65.37,20.6-55.95,36.92,0,0,50.85-42.09,56.36-32.54,4.12,7.14-52.33,34.83-52.33,34.83l52.84-30.51c6.28,10.88-48.59,32.67-48.59,32.67l49.19-28.4s-44.77,30.33-44.71,30.43c6.89,11.93,38.95-37.46,45.43-26.23l-40.7,28.12,41.56-24s-38.77,21.94-36.58,25.74c6.28,10.87,37.59-21.7,37.59-21.7l-32.34,23.29c3.96,6.86,33.53-19.36,33.53-19.36,2.86,4.96-28,20.78-28,20.78,3.87,6.7,28.08-19.32,29.42-16.99,1.79,3.1-23.57,18.23-23.57,18.23,2.54,4.39,23.95-16.88,25.27-14.59,3.09,5.35-19.09,15.64-19.09,15.64,0,0,19.41-15.21,21.14-12.21,0,0-14.81,12.67-14.59,13.04,0,0,14.9-13.75,17.13-9.89,.29,.51-10.16,10.48-10.16,10.48,.14,.25,12.13-10,13.43-7.75,.89,1.54-5.98,8.07-5.98,8.07,0,0,10.2-6.64,10.52-6.08,0,0-3.51,4.52-2.59,6.11,.76,1.32,10.65-6.15,10.65-6.15,.28,.49-2.65,6.15-2.65,6.15,0,0,110.39-64.91,110.9-64.03,0,0-116.04,40.66-102.64,63.88,5.7,9.88,102.42-59.13,102.42-59.13,0,0-98.35,48.17-92.62,58.09,15.5,26.85,84.58-67.39,92.62-53.47,0,0-83.52,42.61-79.09,50.28l79.09-45.66c.6,1.04-48.18,16.73-41.38,28.51,0,0,34.88-35.14,41.38-23.89,0,0-40.53,23.09-38.39,26.79,4.45,7.72,38.4-22.17,38.4-22.17,2.76,4.78-39.45,18.12-35.44,25.08,4.79,8.29,30.1-29.71,35.44-20.46,5,8.67-38.1,13.69-32.51,23.39,0,0,29.03-24.8,32.51-18.77l-29.6,21.71c1.28,2.21,25.08-24.92,29.6-17.09,3.45,5.98-26.72,20.05-26.72,20.05l26.72-15.43s-25.83,15.02-23.87,18.4c3.25,5.64,20.98-18.8,23.88-13.78,2.44,4.22-21.07,16.78-21.07,16.78,2.85,4.93,18.8-16.09,21.07-12.16l-14.72,13.12,14.72-8.5c1.47,2.55-6.71,8.49-6.71,8.49,0,0,5.88-5.33,6.72-3.88" fill="none" stroke="#fff" stroke-linecap="round" stroke-linejoin="round" stroke-width=".75"/>
    <path d="M324.5,562.75s.32-.32,.37-.22c0,0-.83,3.93-.32,4.81,.3,.52,7.15-7.22,8.49-4.9l-1.52,5.5c1.14,1.97,9.11-8.46,10.49-6.06l-2.49,6.06c14.74,25.53,104.4-60.28,104.4-60.28,0,0-98.49,56.64-96.4,60.27,12.02,20.83,96.4-55.65,96.4-55.65,0,0-92.59,48.38-88.39,55.65l88.39-51.03c10.11,17.51-80.38,51.03-80.38,51.03,3.44,5.96,69.03-66.08,80.38-46.41,7.5,12.99-72.38,46.41-72.38,46.41,10.28,17.8,72.38-41.79,72.38-41.79l-64.37,41.79s53.47-56.04,64.37-37.17l-56.37,37.16,56.37-32.54-48.36,32.54c6.49,11.24,40.64-41.3,48.36-27.92,.83,1.44-43.08,23.2-40.36,27.92l40.39-23.32c2.95,5.11-32.64,22.88-32.39,23.32l32.79-18.93c1.76,3.04-28.62,12.28-24.78,18.93l25.84-14.92c2.23,3.87-20.56,10.2-17.84,14.92l19.88-11.48c1.83,3.17-11.87,11.47-11.87,11.47l15.24-8.8-7.24,8.8,12.11-6.99-4.1,6.99,10.33-5.96c.05,.08-2.33,5.96-2.33,5.96,.93,1.61,9.18-6.09,9.52-5.5,.61,1.06-1.52,5.5-1.52,5.5,1.08,1.87,9.28-5.35,9.28-5.35,.24,.42-1.27,5.35-1.27,5.35,0,0,3.24-2.89,3.68-2.13" fill="none" stroke="#fff" stroke-linecap="round" stroke-linejoin="round" stroke-width=".75"/>
    <path d="M619.94,491.25s.37-.21,.37-.21c.49,.85-1.03,3.61-.34,4.81,.55,.94,4.06-2.34,4.06-2.34,1.06,1.83-4.92,6.27-4.4,7.16,.68,1.18,4.11-2.66,4.24-2.45,1.24,2.15-5.04,7.18-4.89,7.44,.07,.13,3.95-3.67,4.55-2.62,0,0-5.93,7.09-5.51,7.8,.47,.82,4.86-3.07,4.97-2.87,0,0-6.84,7.31-6.29,8.25l5.51-3.18s-7.26,8.79-7.26,8.81l6.18-3.57c1.86,3.23-9.26,8.23-8.5,9.53l7.07-4.08c1.67,2.9-10.32,10.58-10.32,10.58l8.39-4.84c.66,1.14-15.26,10.02-13.78,12.58l11.17-6.45" fill="none" stroke="#fff" stroke-linecap="round" stroke-linejoin="round" stroke-width=".75"/>
    <path d="M551.74,485.88c2.66,4.61,39.42-22.76,39.42-22.76l-26.53,19.94s19.29-16.86,21.77-12.57" fill="none" stroke="#fff" stroke-linecap="round" stroke-linejoin="round" stroke-width=".75"/>
    <path d="M444.43,414.68c1.21,2.1,10.49-6.06,10.49-6.06,.07,.11-2.46,6.04-2.46,6.04l10.46-6.04c.42,.73-2.5,6.06-2.5,6.06,0,0,8.78-9.03,10.5-6.06l-3.29,6.52c1.2,2.08,10.47-7.93,11.29-6.52,0,0-5.87,6.07-5.03,7.52,.46,.8,11.18-10.73,13.03-7.52,1.29,2.23-8.62,7.47-7.7,9.06,0,0,14.59-10.99,15.7-9.06,1.22,2.11-12.9,8.22-11.24,11.11,2.39,4.14,19.24-11.11,19.24-11.11l-15.57,13.61s19.67-20.36,23.57-13.61c0,0-21.08,15.69-20.6,16.51,.41,.7,28.6-16.51,28.6-16.51,4.21,7.29-26.28,19.79-26.28,19.79,0,0,33.15-21.73,34.28-19.79,5.4,9.35-35.3,18.54-32.51,23.39,1.15,1.99,40.26-23.24,40.26-23.24,0,0-45.47,15.85-38.97,27.12l46.28-26.72c6.2,10.73-45.43,30.85-45.43,30.85l52.29-30.19c8.75,15.15-59.9,20.47-51.79,34.52,.88,1.52,49.83-48.06,58.18-33.59,0,0-66.43,23.53-58.01,38.11,4.75,8.23,60.08-43.55,63.92-36.91s-66.71,36.97-64.04,41.59c7.44,12.88,61.16-54.49,69.47-40.11,3.64,6.31-69.95,45.01-69.95,45.01,5.37,9.29,65.8-58.96,74.88-43.23l-75.96,48.47c12.3,21.3,75.57-54.74,80.38-46.41,14.06,24.35-93.8,32.78-82.54,52.28,8.49,14.71,72.52-74.08,86.47-49.92,.63,1.09-93.65,56.34-92.63,58.1,6.71,11.63,96.06-55.46,96.06-55.46" fill="none" stroke="#fff" stroke-linecap="round" stroke-linejoin="round" stroke-width=".75"/>
    <path d="M444.3,492.12c1.72,2.98,10.2-6.67,10.54-6.09,.73,1.26-2.46,6.04-2.46,6.04,.97,1.68,9.98-7.5,10.73-6.19,.23,.39-2.74,6.2-2.74,6.2,0,0,12.55-9.11,13.36-7.71,0,0-6.99,6.82-6.2,8.2l117.98-68.12s-127.47,42.4-111.96,69.26c.66,1.14,114.52-66.12,114.52-66.12,11.03,19.11-121.23,47.93-109.67,67.94,0,0,110.72-66.32,111.75-64.52l-107.97,66.95c4.15,7.19,109.58-63.27,109.58-63.27,3.35,5.81-117.96,46.57-106.64,66.19,17.3,29.97,95.04-84.33,107.8-62.24,0,0-109.62,58.41-105.51,65.53,4.78,8.28,106.24-61.34,106.24-61.34,0,0-110.2,54.91-104.42,64.91,0,0,96.34-75.04,104.75-60.48,2.87,4.97-103.35,64.17-103.3,64.26,0,0,86.9-87.83,103.2-59.58,5.39,9.34-109.92,49.82-102.01,63.52,4.55,7.88,101.12-58.78,101.3-58.48l-100.3,62.53s92.27-67.67,98.5-56.87c8.09,14.02-112.94,34.54-97.66,61.01l61.7-35.62s-69.91,24.35-60.98,39.82c0,0,65.76-40.31,66.78-38.55,2.46,4.26-72.51,31.79-66.15,42.81l71.31-41.17c7.42,12.84-71.57,43.77-70.63,45.4l75.21-43.42-74.19,47.45c10.19,17.65,78.13-45.33,78.23-45.16l-76.86,49,80.42-46.43-78.72,50.07c13.73,23.79,76.67-56.14,81.81-47.23l-79.78,50.68c3.89,6.75,82.47-47.61,82.47-47.61,0,0-83.81,44.41-80.08,50.86,0,0,81.22-49.6,82.39-47.57l-79.64,50.6c13.42,23.24,68.9-69.09,81.59-47.11,2.38,4.12-83.3,41.49-78.44,49.91l80.08-46.23-76.45,48.76c3.47,6.01,77.79-44.91,77.79-44.91,11.01,19.08-81.47,33.46-73.59,47.11l74.66-43.1c10.02,17.35-69.67,44.84-69.67,44.84,0,0,66.55-47.5,70.48-40.69,1.88,3.26-68.67,33.99-64.22,41.7l64.8-37.41s-58.14,35.38-56.92,37.48c2.67,4.62,49.32-46.89,57.29-33.08,3.18,5.51-51.87,28.62-49.29,33.08,5.93,10.27,48.83-29.64,49.46-28.55,5.18,8.98-41.46,28.55-41.46,28.55l41.44-23.93c1.63,2.83-38.42,15.3-33.44,23.93,2.9,5.03,33.32-19.24,33.32-19.24,3.94,6.82-24.82,18.95-24.82,18.95,.82,1.42,35.07-33.26,40.7-23.5,3.09,5.35-29.11,20.84-28.86,21.28l21.3-12.3" fill="none" stroke="#fff" stroke-linecap="round" stroke-linejoin="round" stroke-width=".75"/>
    <path d="M324.55,408.84s.34-.27,.37-.22c0,0-.4,4.79-.37,4.84l8.37-4.84s-1.52,5.14-1.36,5.41c.28,.49,9.36-5.41,9.36-5.41l-1.92,5.72s9.8-5.93,9.92-5.72c.99,1.72-4.38,4.73-3.33,6.54l11.33-6.54c.64,1.11-7.14,6.35-6.1,8.14l14.1-8.14-10.51,10.68s16.27-14.56,18.51-10.68c1.84,3.19-16.39,14.08-16.39,14.08,0,0,22.65-17.09,24.39-14.08,4.15,7.19-24.75,15.62-23.32,18.08,2.38,4.12,28.06-23.74,31.32-18.08,0,0-36.06,13.56-30.91,22.47,0,0,33.94-31.08,38.91-22.47l-38.86,27.06c3.36,5.83,43.47-32.93,46.86-27.06,7.1,12.31-46.86,31.67-46.86,31.67l54.86-31.67c2.66,4.61-54.86,36.29-54.86,36.29l62.86-36.29s-72.99,23.36-62.86,40.91l70.86-40.91s-81.31,27.44-70.86,45.53c5.91,10.24,78.86-45.53,78.86-45.53,1.06,1.83-90.68,29.67-78.86,50.15,5.78,10.01,75.15-70.43,86.86-50.15,13.64,23.62-98.61,34.42-86.86,54.77,3.56,6.16,85.99-70.13,94.86-54.77,6.46,11.19-109.97,33.21-94.86,59.39,9.23,15.99,85.86-49.57,85.86-49.57,13.86,24.01-85.86,54.19-85.86,54.19l85.86-49.57c3.68,6.37-85.86,54.19-85.86,54.19l85.86-49.57s-94.66,38.95-85.86,54.19c7.8,13.51,72.07-73.47,85.87-49.58,3.82,6.61-88.34,49.92-85.87,54.19l85.87-49.58-85.87,54.2c14.48,25.09,85.87-49.58,85.87-49.58,14.87,25.75-85.87,54.2-85.87,54.2,0,0,78.68-62.05,85.88-49.58,0,0-97.76,33.62-85.88,54.2,13.51,23.4,83.62-53.5,85.88-49.58,.4,.7-85.88,54.2-85.88,54.2,0,0,78.48-62.42,85.89-49.59l-85.89,54.21s83.85-53.13,85.89-49.59c0,0-100.17,29.47-85.89,54.21,0,0,77.49-64.15,85.89-49.59,6.66,11.53-85.89,54.21-85.89,54.21l85.9-49.59c10.9,18.87-85.9,54.21-85.9,54.21l85.9-49.6s-86.01,54.03-85.9,54.21c13.02,22.55,73.65-70.83,85.91-49.6l-85.91,54.22,85.91-49.6s-90.89,45.59-85.91,54.22c14.83,25.69,88.78-51.26,88.78-51.26l-88.78,55.88c10.15,17.57,85.85-49.57,85.85-49.57,8.34,14.45-85.97,54.25-85.97,54.25,11.31,19.59,82.04-56.44,85.97-49.63,6.15,10.65-86.69,54.67-86.69,54.67,8.7,15.06,82.16-57.89,86.69-50.05" fill="none" stroke="#fff" stroke-linecap="round" stroke-linejoin="round" stroke-width=".75"/>
    <path d="M622.12,562.75s.38-.22,.38-.22c.49,.85-1.02,3.6-.33,4.81,1.2,2.09,8.96-5.17,8.96-5.17,.77,1.33-2.36,5.12-1.99,5.77,5.83,10.1,35.22-22.78,36.28-20.94,4.9,8.49-28.86,19.92-28.27,20.94,.45,.78,24.27-22.55,27.96-16.15,0,0-21.06,14.21-19.95,16.14,2.01,3.48,20.69-13.07,21.17-12.22,0,0-14.1,10.58-13.16,12.22l15.99-9.23s-7.99,9.21-7.98,9.23l12.46-7.2c1.23,2.14-4.95,6.33-4.45,7.19l10.42-6.01c.73,1.27-2.4,6.01-2.4,6.01l9.5-5.49c.2,.35-1.94,4.7-1.49,5.48l9.32-5.38c.34,.6-1.31,5.38-1.31,5.38,0,0,2.27-1.73,2.45-1.42" fill="none" stroke="#fff" stroke-linecap="round" stroke-linejoin="round" stroke-width=".75"/>
    <path d="M702.63,562.75s.38-.22,.38-.22l-.32,4.81s7.76-6.78,8.75-5.05c.56,.98-2.54,4.35-1.79,5.65l101.43-58.56c7.52,13.02-108.34,32.73-93.43,58.56l95.04-54.87s-94.05,42.73-87.04,54.87c5.78,10.02,81.35-63.85,88.66-51.19,12.51,21.67-86.85,40.45-80.65,51.18,0,0,71.36-66.39,82.27-47.5,0,0-78.94,39.39-74.26,47.49,0,0,70.95-52.35,75.88-43.81l-67.87,43.81c10.51,18.2,69.49-40.12,69.49-40.12,3.4,5.9-61.71,39.73-61.49,40.12,0,0,58.36-44.65,63.1-36.43,5.39,9.33-55.1,36.43-55.1,36.43l56.71-32.74s-56.89,18.57-48.71,32.74l50.33-29.06-42.33,29.06,44.08-25.45c.07,.12-40.65,17.52-36.07,25.45,0,0,32.53-31.57,38.06-21.98,0,0-34.82,13.73-30.06,21.97,2.68,4.65,29.79-23.07,32.33-18.67,0,0-28,12.29-24.32,18.66,0,0,24.13-20.46,26.96-15.56,1.74,3.02-18.95,15.56-18.95,15.56l22.03-12.72s-15.92,9.45-14.03,12.72l17.68-10.21c1.57,2.72-9.68,10.21-9.68,10.21,0,0,12.42-11.03,14.09-8.14,0,0-6.85,6.82-6.09,8.13,0,0,10.06-8.96,11.42-6.59,1.02,1.77-3.91,5.73-3.42,6.59,0,0,8.64-7.72,9.82-5.67,0,0-2.2,5-1.82,5.67,0,0,9.33-5.39,9.33-5.39,0,0-1.71,4.72-1.32,5.38,0,0,2.1-1.55,2.25-1.3" fill="none" stroke="#fff" stroke-linecap="round" stroke-linejoin="round" stroke-width=".75"/>
    <path d="M694.32,479.47c9.54,16.53,82.69-47.74,82.69-47.74,.96,1.66-80.98,51.37-80.98,51.37l82.59-47.68c6.15,10.65-80.88,51.31-80.88,51.31,0,0,69.01-70.99,82.5-47.63l-80.78,51.26c8.76,15.18,76.46-57.86,82.4-47.57,0,0-89.57,35.82-80.68,51.2,2.92,5.06,70.62-67.75,82.3-47.52,10.33,17.9-87.95,38.39-80.59,51.15,0,0,76.37-57.56,82.2-47.46,7.36,12.75-90.54,33.68-80.49,51.09s82.11-47.4,82.11-47.4l-80.39,51.03s68.44-70.86,82.01-47.35c0,0-82.01,48-80.3,50.98,1.16,2.01,81.91-47.29,81.91-47.29,12.15,21.05-80.2,50.92-80.2,50.92,0,0,79.14-51.88,81.81-47.24,12.79,22.16-86.73,39.38-80.1,50.87,2.34,4.05,81.72-47.18,81.72-47.18" fill="none" stroke="#fff" stroke-linecap="round" stroke-linejoin="round" stroke-width=".75"/>
    <path d="M675.08,523.97c1.78,3.08,10.55-6.89,10.9-6.29,.77,1.34-2.88,6.28-2.88,6.28,.98,1.71,10.12-7.61,10.88-6.28,.23,.4-2.87,6.28-2.87,6.28,0,0,10.22-7.41,10.87-6.28,0,0-3.39,5.35-2.86,6.27l10.86-6.27s-3.66,4.86-2.85,6.26c.5,.87,88.04-50.83,88.04-50.83,8.11,14.04-88.52,36.12-80.03,50.83,0,0,80.89-48.45,81.65-47.14l-79.88,50.74c3.09,5.35,81.49-47.05,81.49-47.05,2.53,4.37-88.29,35.91-79.76,50.67,13.06,22.62,71.75-63.67,81.38-46.99,0,0-82.78,45.19-79.65,50.61,3.66,6.34,81.27-46.92,81.27-46.92,0,0-83.96,42.88-79.54,50.54,0,0,74.64-58.14,81.16-46.86,2.22,3.85-79.53,50.44-79.49,50.51,0,0,68.29-69.02,81.11-46.83,4.23,7.32-85.78,39.81-79.57,50.56,3.65,6.32,81.05-47.11,81.19-46.87l-79.98,50.8s76.43-56.05,81.6-47.11c6.8,11.77-94.5,29.55-81.67,51.77l83.29-48.09" fill="none" stroke="#fff" stroke-linecap="round" stroke-linejoin="round" stroke-width=".75"/>
    <path d="M719.11,408.92s.46-.37,.5-.29c0,0-3.25,6.41-3.22,6.48l11.23-6.48c.05,.08-14.47,11.75-13.94,12.67,.66,1.15,21.95-12.67,21.95-12.67l-24.66,18.86s32.28-19.54,32.67-18.86c5.86,10.15-41.57,14.34-35.39,25.05l43.4-25.06c3.5,6.06-51.78,21.41-46.11,31.24l54.12-31.25-56.83,37.43s56.44-50.51,64.2-37.07c6.8,11.78-66.91,43.25-66.91,43.25,0,0,63.65-48.02,68.53-39.57,11.91,20.62-75.33,38.69-71.25,45.75,5.53,9.57,65.27-55.23,72.87-42.07,0,0-87.65,27.35-75.58,48.25,0,0,67.33-61.66,77.2-44.57l-79.91,50.76c5.85,10.14,75.63-57.3,81.53-47.07,12.52,21.68-84.25,53.26-84.25,53.26l85.87-49.58c4.23,7.33-88.58,55.76-88.58,55.76l90.2-52.08s-107.73,32.6-92.91,58.26l8.01-4.62s-12.61,7.54-10.72,10.81c.6,1.04,8.01-4.63,8.01-4.63,.17,.3-12.65,7.47-10.72,10.81,.53,.92,6.94-6.5,8.02-4.63,2.02,3.5-12.47,7.79-10.73,10.81,.3,.52,7.27-5.93,8.02-4.63,.88,1.52-12.79,7.25-10.73,10.82,.86,1.49,8.03-4.63,8.03-4.63,2.08,3.61-10.74,10.82-10.74,10.82l8.03-4.64c.55,.96-10.74,10.82-10.74,10.82l15.16-8.75s-19.9,11.44-17.88,14.94c.74,1.28,6.81-6.95,8.12-4.69,.58,1-11.22,10.23-10.84,10.88l8.13-4.69-11.57,11.3c1.5,2.6,8.91-5.14,8.91-5.14,3.09,5.35-15.93,13.82-15.93,13.82,0,0,12.81-10.1,13.98-8.07" fill="none" stroke="#fff" stroke-linecap="round" stroke-linejoin="round" stroke-width=".75"/>
    <path d="M864.37,562.72s.38-.22,.38-.22c.49,.85-1.05,3.61-.35,4.82,1.19,2.06,8.83-5.1,8.83-5.1,.76,1.31-2.25,5.07-1.89,5.71,2.04,3.54,12.33-7.97,12.7-7.33,1.21,2.1-4.84,7.07-4.69,7.33,.43,.75,23.45-21.79,27.02-15.6,0,0-20.08,13.76-19.02,15.6,2.03,3.52,20.92-13.21,21.41-12.36,0,0-14.37,10.7-13.41,12.36l16.86-9.73s-8.86,9.71-8.85,9.73l13.44-7.76c1.38,2.39-5.99,6.79-5.43,7.75l11.13-6.43c.81,1.4-3.13,6.42-3.13,6.42l9.84-5.68c.21,.36-2.3,4.86-1.83,5.68l9.39-5.42c.35,.6-1.39,5.42-1.39,5.42,0,0,2.37-1.81,2.56-1.48" fill="none" stroke="#fff" stroke-linecap="round" stroke-linejoin="round" stroke-width=".75"/>
    <path d="M1096.95,417.13c1,1.74,14.83-8.56,14.83-8.56l-2.13,5.85s8.98-7.85,10.13-5.85c.54,.93-2.14,4.21-1.43,5.45l1.92-1.11" fill="none" stroke="#fff" stroke-linecap="round" stroke-linejoin="round" stroke-width=".75"/>
    <path d="M1046.69,408.81c.04,.07,.37-.22,.37-.22,.05,.08-.35,4.82-.35,4.82l8.35-4.82c.37,.64-1.63,5.56-1.63,5.56,0,0,8.06-8.29,9.63-5.56l-2.68,6.17c1.14,1.97,9.92-7.5,10.69-6.17,0,0-5.49,5.92-4.69,7.32,.45,.78,10.89-10.45,12.69-7.33,1.3,2.25-8.73,7.52-7.8,9.12,0,0,14.68-11.07,15.81-9.13,1.29,2.24-13.81,8.52-12.05,11.57,2.49,4.32,20.05-11.58,20.05-11.58l-17.38,14.66s21.19-21.94,25.39-14.66c0,0-24.2,17.34-23.66,18.28,.45,.78,31.66-18.28,31.66-18.28,4.85,8.41-30.67,22.33-30.67,22.33,0,0,6.87-4.5,7.1-4.1,1.45,2.51-7.41,7.16-6.66,8.46,.16,.27,5.47-3.16,5.47-3.16,0,0-6.68,5.5-5.39,7.73l5.06-2.92c1.02,1.77-5.06,7.54-5.06,7.54l5.04-2.91c1.27,2.21-6.22,5.48-5.04,7.53,.08,.13,4.32-4.17,5.04-2.91,0,0-6.14,5.63-5.04,7.53,.37,.65,4.74-3.44,5.04-2.91,.46,.8-5.36,6.98-5.04,7.53,.54,.94,4.44-3.96,5.04-2.91,.4,.69-5.04,7.53-5.04,7.53,.36,.63,4.43-3.97,5.05-2.91l-5.05,7.53c.77,1.34,4.74-3.44,5.05-2.91,1.3,2.26-6.09,5.72-5.05,7.53,.5,.86,4.23-4.32,5.05-2.91,.05,.09-5.13,7.39-5.05,7.53,.35,.61,5.05-2.91,5.05-2.91l-5.05,7.53s5.05-2.92,5.05-2.92c0,0-5.54,6.68-5.05,7.53,0,0,4.85-3.26,5.05-2.92,.08,.14-5.05,7.53-5.05,7.53,.81,1.4,4.84-3.28,5.05-2.92l-5.05,7.54c.44,.77,5.05-2.92,5.05-2.92,.33,.57-5.05,7.54-5.05,7.54,0,0,4.92-3.15,5.05-2.92l-5.05,7.54c.81,1.4,5.06-2.92,5.06-2.92,.41,.7-6.22,5.51-5.06,7.54,0,0,4.61-3.69,5.06-2.92,.49,.84-5.06,7.54-5.06,7.54l5.06-2.92s-5.52,6.74-5.06,7.54c.68,1.18,4.62-3.68,5.06-2.92" fill="none" stroke="#fff" stroke-linecap="round" stroke-linejoin="round" stroke-width=".75"/>
    <path d="M903.79,430.02c6.06,10.5,35.95-23.48,37.13-21.44,4.78,8.28-34.87,24.75-34.87,24.75,3.88,6.72,39.87-29.97,42.88-24.75,1.65,2.86-40.62,28.07-40.62,28.07,0,0,45.69-33.15,48.62-28.07,0,0-50.69,23.9-46.37,31.39l54.37-31.39s-59.49,21.93-52.11,34.71c.34,.6,60.11-34.71,60.11-34.71,5.92,10.25-64.06,27.29-57.86,38.02,0,0,65.25-39.08,65.86-38.02l-63.61,41.34c2.71,4.7,71.61-41.34,71.61-41.34,2.2,3.82-76.79,31.77-69.35,44.66,12.42,21.5,68.2-60.51,77.35-44.66,0,0-78.05,42.86-75.1,47.98,3.74,6.48,83.1-47.98,83.1-47.98,0,0-85.34,43.51-80.84,51.29,0,0,77.5-60.37,84.27-48.65,2.29,3.97-82.05,51.9-82.01,51.97,0,0,70.92-71.67,84.22-48.63,4.35,7.54-88.35,40.88-81.97,51.94,3.78,6.55,84.04-48.85,84.18-48.6l-81.93,51.92s78.81-57.8,84.14-48.58c6.81,11.8-94.75,29.61-81.88,51.89l84.09-48.55s-93.72,31.29-81.84,51.87c0,0,82.77-50.74,84.05-48.53,3.02,5.24-89.61,38.31-81.8,51.84l84.01-48.5c8.55,14.81-82.84,49.94-81.75,51.82l83.97-48.48-81.71,51.79c10.93,18.94,83.82-48.63,83.92-48.45l-81.67,51.77,83.88-48.43-81.63,51.75c14.08,24.38,78.57-57.53,83.84-48.4l-81.58,51.72c3.96,6.85,83.8-48.38,83.8-48.38,0,0-85.33,45.13-81.54,51.7,0,0,82.56-50.42,83.75-48.35l-81.5,51.67c13.77,23.84,70.69-70.89,83.71-48.33,2.47,4.27-86.49,42.92-81.46,51.65l83.67-48.31-81.41,51.62c3.73,6.46,83.62-48.28,83.62-48.28,12.15,21.04-90.06,36.55-81.37,51.6l83.58-48.26c11.64,20.17-81.33,51.57-81.33,51.57,0,0,78.88-56.3,83.54-48.23,2.37,4.1-86.88,41.86-81.28,51.55l83.5-48.21s-82.96,48.55-81.24,51.52c3.89,6.73,71.84-68.3,83.45-48.18,5.16,8.93-85.37,44.27-81.2,51.5,10,17.31,82.35-49.99,83.41-48.16,9.9,17.14-81.16,51.47-81.16,51.47l83.37-48.13c3.81,6.6-92.75,31.29-81.11,51.45,7.26,12.57,83.33-48.11,83.33-48.11,12.11,20.98-81.07,51.43-81.07,51.43,1.68,2.91,71.75-68.06,83.28-48.08,8.27,14.32-81.71,50.21-81.03,51.4l83.24-48.06s-92.48,31.46-80.99,51.38c9.67,16.75,80.41-52.86,83.2-48.03l-80.94,51.35s73.29-65.1,83.16-48.01c8.65,14.98-85.83,42.78-80.9,51.33,13.49,23.37,83.11-47.98,83.11-47.98,0,0-92.38,31.34-80.86,51.3l83.07-47.96-80.81,51.28,83.03-47.94-80.77,51.25,82.98-47.91-80.73,51.23s70.21-69.93,82.94-47.89c0,0-94.6,27.1-80.69,51.2l82.9-47.86-78.2,49.77,85.08-49.12c5.67,9.83-77.08,49.12-77.08,49.12,0,0,74.37-49.2,77.08-44.5,0,0-71.8,39.79-69.08,44.5,2.92,5.05,66.25-44.78,69.08-39.88,0,0-63.53,35.64-61.08,39.88,6.83,11.82,61.08-35.26,61.08-35.26,0,0-56.46,29.4-53.08,35.26,0,0,50.36-35.35,53.08-30.65,2.01,3.47-45.08,30.64-45.08,30.64,0,0,40.09-34.66,45.08-26.03,3.48,6.03-37.08,26.02-37.08,26.02l37.08-21.41c4.07,7.06-29.08,21.41-29.08,21.41,.88,1.53,27.1-20.21,29.08-16.79,0,0-24.11,11.52-21.07,16.79s19.34-15.17,21.08-12.17c0,0-15.53,7.92-13.07,12.17,1.71,2.97,12.99-7.69,13.07-7.55,0,0-5.87,6.16-5.07,7.55l5.07-2.93" fill="none" stroke="#fff" stroke-linecap="round" stroke-linejoin="round" stroke-width=".75"/>
    <path d="M864.4,408.81s.34-.27,.38-.22c0,0-.4,4.79-.38,4.84l8.38-4.84s-1.62,5.19-1.46,5.46c.29,.49,9.47-5.46,9.47-5.46l-2,5.77s9.88-5.98,10-5.77c1,1.72-4.41,4.74-3.36,6.56l11.36-6.56c.63,1.1-7.04,6.31-6.01,8.09l14.01-8.09-10.23,10.53s16.03-14.35,18.23-10.53c1.8,3.12-15.93,13.81-15.93,13.81,0,0,22.23-16.77,23.93-13.82,4.05,7.02-24.11,15.33-22.72,17.74,2.33,4.04,27.52-23.29,30.72-17.74,0,0-35.26,13.34-30.23,22.07,0,0,33.34-30.53,38.23-22.07l-38.14,26.64c.36,.63,4.68-3.54,5.04-2.91,1.14,1.97-5.04,7.53-5.04,7.53l5.04-2.91c.37,.63-5.04,7.53-5.04,7.53l5.04-2.91s-6.26,5.41-5.04,7.53l5.04-2.91s-6.16,5.58-5.04,7.53c.38,.65,5.04-2.91,5.04-2.91,.1,.18-6.19,5.54-5.04,7.53,.34,.58,4.36-4.09,5.04-2.91,1.2,2.08-6.08,5.73-5.04,7.53,.19,.33,4.57-3.73,5.04-2.91,.52,.91-6.26,5.41-5.04,7.53,.54,.94,5.04-2.91,5.04-2.91,1.24,2.14-5.04,7.53-5.04,7.53l5.04-2.91c.33,.57-5.04,7.53-5.04,7.53l5.04-2.91s-5.83,6.17-5.04,7.53c.46,.79,4.23-4.31,5.04-2.91,.34,.59-5.26,7.15-5.04,7.53l5.04-2.91-5.04,7.53c.85,1.47,5.04-2.91,5.04-2.91,1.33,2.3-5.04,7.53-5.04,7.53,0,0,4.62-3.64,5.04-2.91,0,0-6.1,5.69-5.04,7.53,.79,1.37,4.91-3.14,5.04-2.91,.04,.06-5.04,7.53-5.04,7.53,0,0,4.61-3.66,5.04-2.91l-5.04,7.53s4.92-3.12,5.04-2.91c0,0-6.31,5.32-5.04,7.53,0,0,4.55-3.76,5.04-2.91,.59,1.03-5.04,7.53-5.04,7.53l5.04-2.91c.97,1.68-5.04,7.53-5.04,7.53l5.04-2.91s-5.05,7.51-5.04,7.53c.76,1.32,4.32-4.16,5.04-2.91l-5.04,7.53,5.04-2.91s-5.48,6.76-5.04,7.53c.84,1.46,5.04-2.91,5.04-2.91l-5.13,7.58c.61,1.05,5.14-2.97,5.14-2.97,.8,1.39-5.72,7.92-5.72,7.92,.78,1.35,5.65-3.89,5.93-3.42,.72,1.26-7.87,9.17-7.87,9.17,.85,1.48,8.07-5.69,8.52-4.92" fill="none" stroke="#fff" stroke-linecap="round" stroke-linejoin="round" stroke-width=".75"/>
    <path d="M1113.36,562.75s.38-.22,.38-.22c.49,.85-1.02,3.6-.33,4.81,1.2,2.09,8.96-5.17,8.96-5.17,.77,1.33-2.36,5.12-1.99,5.77,5.83,10.11,35.22-22.78,36.28-20.95,4.9,8.49-28.86,19.92-28.27,20.94,.45,.78,24.27-22.55,27.97-16.15,0,0-21.07,14.21-19.95,16.14,2.01,3.48,20.69-13.07,21.17-12.22,0,0-14.1,10.58-13.16,12.22l15.99-9.23s-7.99,9.21-7.98,9.23l12.46-7.2c1.23,2.14-4.95,6.33-4.45,7.19l10.42-6.01c.73,1.27-2.41,6.01-2.41,6.01l9.5-5.49c.2,.35-1.94,4.7-1.49,5.48l9.32-5.38c.34,.6-1.31,5.38-1.31,5.38,0,0,2.27-1.73,2.45-1.42" fill="none" stroke="#fff" stroke-linecap="round" stroke-linejoin="round" stroke-width=".75"/>
    <path d="M1193.87,562.75s.38-.22,.38-.22l-.32,4.81s7.76-6.78,8.75-5.05c.56,.98-2.54,4.35-1.79,5.65l101.43-58.56c7.52,13.02-108.34,32.73-93.43,58.56l95.04-54.87s-94.05,42.73-87.04,54.87c5.78,10.02,81.35-63.85,88.66-51.19,12.51,21.67-86.85,40.45-80.65,51.18,0,0,71.36-66.39,82.27-47.5,0,0-78.94,39.39-74.26,47.49,0,0,70.95-52.35,75.88-43.81l-67.87,43.81c10.51,18.21,69.49-40.12,69.49-40.12,3.4,5.9-61.71,39.73-61.49,40.12,0,0,58.36-44.65,63.1-36.43,5.39,9.33-55.1,36.43-55.1,36.43l56.71-32.74s-56.89,18.57-48.71,32.74l50.33-29.06-42.33,29.06,44.08-25.45c.07,.12-40.65,17.52-36.07,25.45,0,0,32.53-31.57,38.06-21.98,0,0-34.82,13.73-30.06,21.97,2.68,4.65,29.79-23.07,32.33-18.67,0,0-28,12.29-24.32,18.66,0,0,24.13-20.46,26.96-15.56,1.74,3.02-18.95,15.56-18.95,15.56l22.03-12.72s-15.92,9.45-14.03,12.72l17.68-10.21c1.57,2.72-9.68,10.21-9.68,10.21,0,0,12.42-11.03,14.09-8.14,0,0-6.85,6.82-6.09,8.13,0,0,10.06-8.96,11.42-6.59,1.02,1.77-3.91,5.73-3.42,6.59,0,0,8.64-7.72,9.82-5.67,0,0-2.2,5-1.82,5.67,0,0,9.33-5.39,9.33-5.39,0,0-1.71,4.72-1.32,5.38,0,0,2.1-1.55,2.25-1.3" fill="none" stroke="#fff" stroke-linecap="round" stroke-linejoin="round" stroke-width=".75"/>
    <path d="M1185.56,479.47c9.54,16.53,82.69-47.74,82.69-47.74,.96,1.66-80.98,51.37-80.98,51.37l82.59-47.68c6.15,10.65-80.88,51.31-80.88,51.31,0,0,69.01-70.99,82.5-47.63l-80.78,51.26c8.76,15.18,76.46-57.86,82.4-47.57,0,0-89.57,35.82-80.68,51.2,2.92,5.06,70.62-67.75,82.3-47.52,10.33,17.9-87.95,38.39-80.59,51.15,0,0,76.37-57.56,82.2-47.46,7.36,12.75-90.54,33.68-80.49,51.09s82.11-47.4,82.11-47.4l-80.39,51.03s68.44-70.86,82.01-47.35c0,0-82.01,48-80.3,50.98,1.16,2.01,81.91-47.29,81.91-47.29,12.15,21.05-80.2,50.92-80.2,50.92,0,0,79.14-51.88,81.82-47.24,12.79,22.16-86.74,39.38-80.1,50.87,2.34,4.05,81.72-47.18,81.72-47.18" fill="none" stroke="#fff" stroke-linecap="round" stroke-linejoin="round" stroke-width=".75"/>
    <path d="M1166.32,523.97c1.78,3.08,10.55-6.89,10.9-6.29,.77,1.34-2.88,6.28-2.88,6.28,.98,1.71,10.12-7.61,10.88-6.28,.23,.4-2.87,6.28-2.87,6.28,0,0,10.22-7.41,10.87-6.28,0,0-3.39,5.35-2.86,6.27l10.86-6.27s-3.66,4.86-2.85,6.26c.5,.87,88.04-50.83,88.04-50.83,8.11,14.04-88.52,36.12-80.03,50.83,0,0,80.89-48.45,81.65-47.14l-79.88,50.74c3.09,5.35,81.49-47.05,81.49-47.05,2.53,4.37-88.29,35.91-79.77,50.67,13.06,22.62,71.75-63.67,81.38-46.99,0,0-82.78,45.19-79.65,50.61,3.66,6.34,81.27-46.92,81.27-46.92,0,0-83.97,42.88-79.54,50.54,0,0,74.64-58.14,81.16-46.86,2.22,3.85-79.53,50.44-79.49,50.51,0,0,68.29-69.02,81.11-46.83,4.23,7.32-85.78,39.81-79.57,50.56,3.65,6.32,81.05-47.11,81.19-46.88l-79.98,50.8s76.43-56.06,81.6-47.11c6.8,11.77-94.5,29.55-81.67,51.77l83.29-48.09" fill="none" stroke="#fff" stroke-linecap="round" stroke-linejoin="round" stroke-width=".75"/>
    <path d="M1210.35,408.92s.46-.37,.5-.29c0,0-3.25,6.41-3.22,6.48l11.23-6.48c.05,.08-14.47,11.75-13.94,12.67,.66,1.15,21.95-12.67,21.95-12.67l-24.66,18.86s32.28-19.54,32.67-18.86c5.86,10.15-41.57,14.34-35.39,25.05l43.4-25.06c3.5,6.06-51.78,21.41-46.11,31.24l54.12-31.25-56.83,37.43s56.44-50.51,64.2-37.07c6.8,11.78-66.91,43.25-66.91,43.25,0,0,63.65-48.02,68.53-39.57,11.91,20.62-75.33,38.69-71.25,45.75,5.53,9.57,65.27-55.23,72.87-42.07,0,0-87.65,27.35-75.58,48.25,0,0,67.33-61.66,77.2-44.57l-79.91,50.76c5.85,10.14,75.63-57.3,81.53-47.07,12.52,21.68-84.25,53.26-84.25,53.26l85.87-49.58c4.23,7.33-88.58,55.76-88.58,55.76l90.2-52.08s-107.73,32.6-92.91,58.26l8.01-4.62s-12.61,7.54-10.72,10.81c.6,1.04,8.01-4.63,8.01-4.63,.17,.3-12.65,7.47-10.72,10.81,.53,.92,6.94-6.5,8.02-4.63,2.02,3.5-12.47,7.79-10.73,10.81,.3,.52,7.27-5.93,8.02-4.63,.88,1.52-12.79,7.25-10.73,10.82,.86,1.49,8.03-4.63,8.03-4.63,2.08,3.61-10.74,10.82-10.74,10.82l8.03-4.64c.55,.96-10.74,10.82-10.74,10.82l15.16-8.76s-19.9,11.44-17.88,14.94c.74,1.28,6.81-6.95,8.12-4.69,.58,1-11.22,10.23-10.84,10.88l8.13-4.69-11.57,11.3c1.5,2.6,8.91-5.14,8.91-5.14,3.09,5.35-15.93,13.82-15.93,13.82,0,0,12.81-10.11,13.99-8.08" fill="none" stroke="#fff" stroke-linecap="round" stroke-linejoin="round" stroke-width=".75"/>
    <path d="M1357.25,562.75s.32-.32,.37-.22c0,0-.83,3.93-.32,4.81,.3,.52,7.15-7.22,8.49-4.9l-1.52,5.5c1.14,1.97,9.11-8.46,10.49-6.06l-2.49,6.06c14.74,25.53,104.4-60.28,104.4-60.28,0,0-98.49,56.64-96.4,60.27,12.02,20.83,96.4-55.65,96.4-55.65,0,0-92.59,48.38-88.39,55.65l88.39-51.03c10.11,17.51-80.38,51.03-80.38,51.03,3.44,5.96,69.03-66.08,80.38-46.41,7.5,12.99-72.38,46.41-72.38,46.41,10.28,17.8,72.38-41.79,72.38-41.79l-64.37,41.79s53.47-56.04,64.37-37.17l-56.37,37.16,56.37-32.54-48.36,32.54c6.49,11.24,40.64-41.3,48.36-27.92,.83,1.44-43.08,23.2-40.36,27.92l40.39-23.32c2.95,5.11-32.64,22.88-32.39,23.32l32.79-18.93c1.76,3.04-28.62,12.28-24.78,18.93l25.84-14.92c2.23,3.87-20.56,10.2-17.84,14.92l19.88-11.48c1.83,3.17-11.87,11.47-11.87,11.47l15.24-8.8-7.24,8.8,12.11-6.99-4.1,6.99,10.33-5.96c.05,.08-2.33,5.96-2.33,5.96,.93,1.61,9.18-6.09,9.52-5.5,.61,1.06-1.52,5.5-1.52,5.5,1.08,1.87,9.28-5.36,9.28-5.36,.24,.42-1.27,5.35-1.27,5.35,0,0,3.24-2.89,3.68-2.13" fill="none" stroke="#fff" stroke-linecap="round" stroke-linejoin="round" stroke-width=".75"/>
    <path d="M1652.7,491.25s.37-.21,.37-.21c.49,.85-1.03,3.61-.34,4.81,.55,.94,4.06-2.34,4.06-2.34,1.06,1.83-4.92,6.27-4.4,7.16,.68,1.18,4.11-2.66,4.24-2.45,1.24,2.15-5.04,7.18-4.89,7.44,.07,.13,3.95-3.67,4.55-2.63,0,0-5.93,7.09-5.52,7.8,.47,.82,4.86-3.07,4.97-2.87,0,0-6.84,7.31-6.29,8.25l5.51-3.18s-7.26,8.79-7.26,8.81l6.18-3.57c1.86,3.23-9.26,8.23-8.5,9.53l7.07-4.08c1.67,2.9-10.32,10.58-10.32,10.58l8.39-4.84c.66,1.14-15.26,10.02-13.78,12.58l11.17-6.45" fill="none" stroke="#fff" stroke-linecap="round" stroke-linejoin="round" stroke-width=".75"/>
    <path d="M1584.5,485.88c2.66,4.61,39.42-22.76,39.42-22.76l-26.53,19.94s19.29-16.86,21.77-12.57" fill="none" stroke="#fff" stroke-linecap="round" stroke-linejoin="round" stroke-width=".75"/>
    <path d="M1477.18,414.68c1.21,2.1,10.49-6.06,10.49-6.06,.07,.11-2.46,6.04-2.46,6.04l10.46-6.04c.42,.73-2.5,6.06-2.5,6.06,0,0,8.78-9.03,10.5-6.06l-3.29,6.52c1.2,2.08,10.47-7.93,11.29-6.52,0,0-5.87,6.07-5.03,7.52,.46,.8,11.18-10.73,13.03-7.52,1.29,2.23-8.62,7.47-7.7,9.06,0,0,14.59-10.99,15.7-9.06,1.22,2.11-12.9,8.22-11.24,11.11,2.39,4.14,19.24-11.11,19.24-11.11l-15.57,13.61s19.67-20.36,23.57-13.61c0,0-21.08,15.69-20.6,16.51,.41,.7,28.6-16.51,28.6-16.51,4.21,7.29-26.28,19.79-26.28,19.79,0,0,33.15-21.73,34.28-19.79,5.4,9.35-35.3,18.54-32.5,23.39,1.15,1.99,40.26-23.24,40.26-23.24,0,0-45.47,15.85-38.97,27.12l46.28-26.72c6.2,10.73-45.43,30.85-45.43,30.85l52.28-30.19c8.75,15.15-59.9,20.47-51.79,34.52,.88,1.52,49.83-48.06,58.18-33.59,0,0-66.43,23.53-58.01,38.11,4.75,8.23,60.08-43.55,63.92-36.91s-66.71,36.97-64.04,41.59c7.44,12.88,61.16-54.49,69.47-40.11,3.64,6.31-69.95,45.01-69.95,45.01,5.37,9.29,65.8-58.96,74.88-43.23l-75.96,48.47c12.3,21.3,75.57-54.74,80.38-46.41,14.06,24.35-93.8,32.78-82.54,52.28,8.49,14.71,72.52-74.08,86.47-49.92,.63,1.09-93.65,56.34-92.63,58.1,6.71,11.63,96.05-55.46,96.05-55.46" fill="none" stroke="#fff" stroke-linecap="round" stroke-linejoin="round" stroke-width=".75"/>
    <path d="M1477.05,492.12c1.72,2.98,10.2-6.67,10.54-6.09,.73,1.26-2.46,6.04-2.46,6.04,.97,1.68,9.98-7.5,10.73-6.19,.23,.39-2.74,6.2-2.74,6.2,0,0,12.55-9.11,13.36-7.71,0,0-6.99,6.82-6.2,8.2l117.98-68.12s-127.47,42.4-111.96,69.26c.66,1.14,114.52-66.12,114.52-66.12,11.03,19.11-121.23,47.93-109.67,67.94,0,0,110.72-66.32,111.75-64.52l-107.97,66.95c4.15,7.19,109.58-63.27,109.58-63.27,3.35,5.81-117.96,46.57-106.64,66.19,17.3,29.97,95.04-84.33,107.8-62.24,0,0-109.62,58.41-105.51,65.53,4.78,8.28,106.24-61.34,106.24-61.34,0,0-110.2,54.91-104.42,64.91,0,0,96.34-75.04,104.75-60.48,2.87,4.97-103.35,64.17-103.29,64.26,0,0,86.9-87.82,103.2-59.58,5.39,9.34-109.92,49.82-102.01,63.52,4.55,7.88,101.12-58.78,101.3-58.48l-100.3,62.53s92.27-67.67,98.5-56.87c8.09,14.02-112.94,34.54-97.66,61.01l61.7-35.62s-69.91,24.35-60.98,39.82c0,0,65.76-40.31,66.78-38.55,2.46,4.26-72.51,31.79-66.15,42.81l71.31-41.17c7.42,12.84-71.57,43.77-70.63,45.4l75.21-43.42-74.19,47.45c10.19,17.65,78.13-45.33,78.23-45.16l-76.86,49,80.42-46.43-78.72,50.07c13.73,23.79,76.67-56.14,81.81-47.23l-79.78,50.68c3.89,6.75,82.47-47.61,82.47-47.61,0,0-83.81,44.41-80.08,50.86,0,0,81.22-49.6,82.39-47.57l-79.64,50.6c13.42,23.24,68.9-69.09,81.59-47.11,2.38,4.12-83.3,41.49-78.44,49.91l80.08-46.23-76.45,48.76c3.47,6.01,77.79-44.91,77.79-44.91,11.01,19.08-81.47,33.46-73.59,47.11l74.66-43.1c10.02,17.35-69.67,44.84-69.67,44.84,0,0,66.55-47.5,70.48-40.69,1.88,3.26-68.67,33.99-64.22,41.7l64.8-37.41s-58.14,35.38-56.93,37.48c2.67,4.62,49.32-46.89,57.29-33.08,3.18,5.51-51.87,28.62-49.29,33.08,5.93,10.27,48.83-29.64,49.46-28.55,5.18,8.98-41.46,28.55-41.46,28.55l41.44-23.93c1.63,2.83-38.42,15.3-33.44,23.93,2.9,5.03,33.32-19.24,33.32-19.24,3.94,6.82-24.82,18.95-24.82,18.95,.82,1.42,35.07-33.26,40.7-23.5,3.09,5.35-29.11,20.84-28.86,21.28l21.3-12.3" fill="none" stroke="#fff" stroke-linecap="round" stroke-linejoin="round" stroke-width=".75"/>
    <path d="M1357.31,408.84s.34-.27,.38-.22c0,0-.4,4.79-.38,4.84l8.38-4.84s-1.52,5.14-1.36,5.41c.28,.49,9.36-5.41,9.36-5.41l-1.92,5.72s9.8-5.93,9.92-5.72c.99,1.72-4.38,4.73-3.33,6.54l11.33-6.54c.64,1.11-7.13,6.35-6.1,8.14l14.1-8.14-10.51,10.68s16.27-14.56,18.51-10.68c1.84,3.19-16.39,14.08-16.39,14.08,0,0,22.65-17.09,24.39-14.08,4.15,7.19-24.74,15.62-23.32,18.08,2.38,4.12,28.06-23.74,31.32-18.08,0,0-36.06,13.56-30.91,22.47,0,0,33.94-31.08,38.91-22.47l-38.86,27.05c3.36,5.83,43.47-32.93,46.86-27.05,7.1,12.31-46.86,31.67-46.86,31.67l54.86-31.67c2.66,4.61-54.86,36.29-54.86,36.29l62.86-36.29s-72.99,23.36-62.86,40.91l70.86-40.91s-81.31,27.44-70.86,45.53c5.91,10.24,78.86-45.53,78.86-45.53,1.06,1.83-90.68,29.67-78.86,50.15,5.78,10.01,75.15-70.43,86.86-50.15,13.64,23.62-98.61,34.42-86.86,54.77,3.56,6.16,85.99-70.13,94.86-54.77,6.46,11.19-109.97,33.21-94.86,59.39,9.23,15.99,85.85-49.57,85.85-49.57,13.86,24.01-85.85,54.19-85.85,54.19l85.86-49.57c3.68,6.37-85.86,54.19-85.86,54.19l85.86-49.57s-94.66,38.95-85.86,54.19c7.8,13.51,72.07-73.47,85.87-49.58,3.82,6.61-88.34,49.92-85.87,54.19l85.87-49.58-85.87,54.2c14.48,25.09,85.87-49.58,85.87-49.58,14.87,25.75-85.87,54.2-85.87,54.2,0,0,78.68-62.05,85.88-49.58,0,0-97.76,33.62-85.88,54.2,13.51,23.4,83.62-53.5,85.88-49.58,.4,.7-85.88,54.2-85.88,54.2,0,0,78.48-62.41,85.89-49.59l-85.89,54.21s83.85-53.13,85.89-49.59c0,0-100.17,29.47-85.89,54.21,0,0,77.49-64.14,85.89-49.59,6.66,11.53-85.89,54.21-85.89,54.21l85.9-49.59c10.9,18.87-85.9,54.21-85.9,54.21l85.9-49.6s-86.01,54.03-85.9,54.21c13.02,22.55,73.65-70.83,85.91-49.6l-85.91,54.22,85.91-49.6s-90.89,45.59-85.91,54.22c14.83,25.69,88.78-51.26,88.78-51.26l-88.78,55.88c10.15,17.57,85.85-49.57,85.85-49.57,8.34,14.45-85.97,54.25-85.97,54.25,11.31,19.59,82.04-56.44,85.97-49.63,6.15,10.65-86.69,54.67-86.69,54.67,8.7,15.06,82.16-57.89,86.69-50.05" fill="none" stroke="#fff" stroke-linecap="round" stroke-linejoin="round" stroke-width=".75"/>
    <path d="M1685.83,562.72s.37-.22,.37-.22c.49,.85-1.05,3.61-.35,4.82,1.14,1.98,8.52-4.92,8.52-4.92,.72,1.25-1.93,4.92-1.58,5.53,1.69,2.93,10.21-6.6,10.52-6.07,.92,1.59-2.63,5.88-2.52,6.07,1.72,2.98,93.33-86.71,107.54-62.09,0,0-104.62,53.29-99.54,62.09,9.23,15.99,94.98-59.99,97.21-56.13,0,0-94.75,46.54-89.21,56.12l89.21-51.51s-81.28,51.38-81.21,51.5l81.21-46.89c12.68,21.96-78.32,38.02-73.21,46.88l73.21-42.27c8.8,15.25-65.2,42.26-65.2,42.26l65.2-37.65c2.41,4.17-62.61,28.27-57.2,37.64l57.2-33.02c3.69,6.39-49.2,33.02-49.2,33.02,0,0,45.55-34.72,49.2-28.4,4.89,8.46-41.2,28.4-41.2,28.4,5.69,9.85,34.29-35.79,41.21-23.79,0,0-35.46,19.9-33.21,23.79,0,0,32.97-20.29,33.52-19.35,0,0-29.53,12.39-25.51,19.35,3.98,6.9,26.05-15.88,26.41-15.25,3.22,5.57-21.25,10.34-18.41,15.25,1.49,2.58,17.22-16.94,20.25-11.69,1.54,2.67-12.25,11.69-12.25,11.69,2.28,3.95,13.83-11.7,15.44-8.91l-7.43,8.91c1.29,2.24,10.38-10.19,12.2-7.04,.26,.44-4.19,7.04-4.19,7.04l10.4-6s-2.61,5.62-2.39,6c0,0,8.86-6.84,9.6-5.54,0,0-2.32,4.29-1.6,5.54l9.37-5.41c.04,.07-1.37,5.41-1.37,5.41,0,0,3.23-2.34,3.43-1.98" fill="none" stroke="#fff" stroke-linecap="round" stroke-linejoin="round" stroke-width=".75"/>
    <path d="M1853.8,417.46c1.04,1.8,15.41-8.9,15.41-8.9l-2.01,5.78s7.28-6.36,8.21-4.74" fill="none" stroke="#fff" stroke-linecap="round" stroke-linejoin="round" stroke-width=".75"/>
    <path d="M1809.87,408.81c.04,.07,.37-.22,.37-.22,.05,.08-.35,4.82-.35,4.82l8.35-4.82c.37,.65-1.67,5.58-1.67,5.58,0,0,8.09-8.32,9.67-5.58l-2.94,6.32c1.16,2.02,10.16-7.69,10.95-6.32,0,0-6.42,6.27-5.53,7.81,.48,.83,11.61-11.14,13.54-7.82,1.53,2.65-10.82,8.35-9.73,10.24,0,0,16.48-12.42,17.73-10.24,1.61,2.78-17.87,9.87-15.68,13.67,2.94,5.1,23.69-13.68,23.69-13.68l-23.34,18.09s26.16-27.08,31.35-18.1c0,0-33.53,22.29-32.8,23.56,.12,.21,8.52-4.92,8.52-4.92,1.96,3.39-10.8,10.86-10.8,10.86,0,0,6.65-4.36,6.88-3.97,1.85,3.21-10.33,8.37-9.37,10.03,.19,.34,6.77-3.91,6.77-3.91,0,0-11.16,6.75-9.29,9.99l6.79-3.92c1.54,2.67-9.31,9.99-9.31,9.99l6.8-3.93c1.92,3.33-11.11,6.92-9.33,10,.1,.18,5.84-5.63,6.82-3.94,0,0-11,7.14-9.34,10.01,.51,.88,6.42-4.66,6.83-3.95,.7,1.22-9.84,9.19-9.36,10.02,.73,1.27,6.03-5.37,6.85-3.95,.6,1.04-9.37,10.03-9.37,10.03,.49,.85,6.03-5.4,6.86-3.96l-9.39,10.04c1.05,1.82,6.47-4.69,6.88-3.97,1.98,3.43-10.99,7.3-9.4,10.05,.68,1.17,5.78-5.91,6.9-3.98,.08,.14-9.55,9.84-9.42,10.06,.48,.84,6.91-3.99,6.91-3.99" fill="none" stroke="#fff" stroke-linecap="round" stroke-linejoin="round" stroke-width=".75"/>
    <path d="M1782.9,416.31c2.19,3.79,12.98-8.48,13.41-7.74,.67,1.17-1.92,5.72-1.92,5.72,.9,1.55,9.22-6.93,9.92-5.73,.19,.33-1.42,5.44-1.42,5.44,0,0,1.59-1.16,1.7-.98" fill="none" stroke="#fff" stroke-linecap="round" stroke-linejoin="round" stroke-width=".75"/>
    <path d="M1649.43,408.81s.34-.27,.38-.22c0,0-.4,4.79-.38,4.84l8.38-4.84s-1.78,5.27-1.62,5.55c.29,.5,9.62-5.56,9.62-5.56l-2.57,6.1s10.45-6.33,10.58-6.11c1.12,1.94-5.48,5.05-4.3,7.1l12.3-7.1c.69,1.19-7.94,6.63-6.82,8.56l14.83-8.56-10.17,10.49s15.97-14.3,18.17-10.49c1.64,2.84-14.29,12.87-14.29,12.87,0,0,20.7-15.62,22.29-12.87,3.47,6.01-20.29,13.58-19.1,15.64,2.06,3.56,24.27-20.54,27.1-15.65,0,0-28.64,11.56-24.49,18.76,0,0,28.34-25.95,32.49-18.76l-30.34,22.14c2.75,4.77,35.57-26.95,38.34-22.14,5.61,9.72-36.52,25.71-36.52,25.71l44.53-25.71c2.1,3.64-42.93,29.4-42.93,29.4l50.93-29.41s-57.51,19.24-49.46,33.17l57.46-33.18s-64.37,22.55-56.04,36.98c4.8,8.32,64.05-36.98,64.05-36.98,.84,1.46-72.09,24.41-62.64,40.78,4.7,8.14,61.12-57.28,70.64-40.78,10.94,18.94-78.65,28.27-69.23,44.59,2.9,5.02,70.01-57.1,77.23-44.59,5.19,8.99-87.97,27.36-75.82,48.4,9.01,15.61,83.83-48.4,83.83-48.4,13.32,23.07-82.42,52.2-82.42,52.2l90.42-52.2c3.81,6.6-89.01,56.01-89.01,56.01l72.18-41.67s-78.06,32.85-70.77,45.48c6.44,11.15,59.49-60.64,70.87-40.92,3.11,5.38-71.47,41.25-69.47,44.72l70.44-40.67-69.04,44.48c11.86,20.54,70.29-40.58,70.29-40.58,12,20.78-68.88,44.39-68.88,44.39,0,0,64.37-50.77,70.26-40.57,0,0-78.43,27.77-68.85,44.37,11.06,19.16,68.45-43.8,70.3-40.59,.33,.56-68.9,44.4-68.9,44.4,0,0,64.31-51.15,70.38-40.64l-68.97,44.44s68.78-43.58,70.46-40.68c0,0-80.6,24.48-69.05,44.48,0,0,63.62-52.66,70.52-40.71,5.39,9.33-69.11,44.52-69.11,44.52l70.58-40.75c8.83,15.29-69.17,44.55-69.17,44.55l70.64-40.78s-69.56,44.58-69.47,44.73c10.75,18.63,60.82-58.49,70.94-40.96l-70.94,45.58,72.41-41.81s-76.63,39.12-72.41,46.43c12.34,21.37,73.88-42.65,73.88-42.65l-73.88,47.27c8.9,15.42,75.35-43.5,75.35-43.5,7.34,12.71-75.35,48.12-75.35,48.12,10.11,17.51,73.3-50.44,76.82-44.35,5.46,9.46-76.82,48.97-76.82,48.97,7.85,13.6,74.2-52.28,78.29-45.2,11.61,20.1-78.29,49.82-78.29,49.82,0,0,73.21-57.39,79.76-46.05,0,0-80.81,48.85-79.76,50.67,0,0,70.67-65.18,81.22-46.9,1.93,3.35-81.23,51.52-81.23,51.52,.88,1.52,74.72-61.57,82.7-47.75,8.67,15.02-82.99,52.53-82.99,52.53,0,0,81.86-53.26,84.46-48.76,0,0-99.84,29.79-85.78,54.14,6.59,11.41,92.04-53.14,92.04-53.14" fill="none" stroke="#fff" stroke-linecap="round" stroke-linejoin="round" stroke-width=".75"/>
  </g>
  <g>
    <path d="M319.76,299.06H154.01v-5.46c33.15,0,39.89-2.05,39.89-19.81V145.15h-1.46c-20.58,0-50.82,22.77-79.41,70.35h-2v-75.82h251.72v75.82h-2c-28.6-47.58-58.83-70.35-79.41-70.35h-1.46v128.64c0,17.76,6.74,19.81,39.89,19.81v5.46Z" fill="none" stroke="#fff" stroke-width="3"/>
    <path d="M521.21,299.06v-5.46c20.95,0,23.31-2.05,23.31-19.81v-52.14h-55.74v52.14c0,17.76,4.19,19.81,25.14,19.81v5.46h-144.62v-5.46c27.87,0,33.51-2.05,33.51-19.81v-108.83c0-17.76-5.65-19.81-33.51-19.81v-5.46h144.62v5.46c-20.95,0-25.14,2.05-25.14,19.81v50.32h55.74v-50.32c0-17.76-2.37-19.81-23.31-19.81v-5.46h142.8v5.46c-27.87,0-33.51,2.05-33.51,19.81v108.83c0,17.76,5.65,19.81,33.51,19.81v5.46h-142.8Z" fill="none" stroke="#fff" stroke-width="3"/>
    <path d="M791.15,222.33v70.81h4.19c29.14,0,77.96-40.07,106.19-71.26h3.64v77.18h-233.51v-5.46c27.87,0,33.51-2.05,33.51-19.81v-108.83c0-17.76-5.65-19.81-33.51-19.81v-5.46h229.32v78.32h-2.55c-28.96-32.79-61.02-72.4-101.27-72.4h-6.01v71.49h3.28c21.13,0,33.7-18.67,47.36-43.71h2.37v88.79h-2.37c-10.56-17.53-26.23-39.84-47.36-39.84h-3.28Z" fill="none" stroke="#fff" stroke-width="3"/>
    <path d="M1160.71,139.69h25.5c65.57,0,107.1,35.29,107.1,79.23s-41.53,80.14-107.1,80.14h-25.5c-65.57,0-107.1-36.2-107.1-80.14s41.53-79.23,107.1-79.23Zm12.75,153.91c20.58,0,28.96-40.98,28.96-74.68s-8.38-73.54-28.96-73.54-28.96,39.84-28.96,73.54,8.38,74.68,28.96,74.68Z" fill="none" stroke="#fff" stroke-width="3"/>
    <path d="M1461.07,145.15c-27.87,0-33.51,2.05-33.51,19.81v127.5h8.92c24.59,0,56.1-31.42,88.52-71.49h4.01v78.09h-220.94v-5.46c27.87,0,33.51-2.05,33.51-19.81v-108.83c0-17.76-5.65-19.81-33.51-19.81v-5.46h153v5.46Z" fill="none" stroke="#fff" stroke-width="3"/>
    <path d="M1544.67,299.06v-5.46c27.87,0,33.51-2.05,33.51-19.81v-108.83c0-17.76-5.65-19.81-33.51-19.81v-5.46h147.72c72.86,0,108.56,34.15,108.56,79.69s-35.7,79.69-108.56,79.69h-147.72Zm119.49-153.45v147.53h6.74c27.32,0,46.81-10.47,46.81-73.77s-19.49-73.77-46.81-73.77h-6.74Z" fill="none" stroke="#fff" stroke-width="3"/>
    <path d="M284.6,567.94h-20.22c-5.83-6.38-15.3-15.94-22.95-23.22-12.2,8.2-32.97,23.22-64.66,23.22h-15.3c-53.73,0-105.83-24.82-105.83-79.69s52.09-79.69,105.83-79.69h15.3c42.99,0,57.56,15.48,79.78,15.48,11.66,0,19.85-5.24,26.96-13.89h3.28v62.84h-2.91c-21.49-34.83-58.47-57.6-93.8-57.6-28.23,0-43.35,24.59-43.35,72.86,0,50.77,9.29,73.99,25.68,73.99s22.59-21.63,22.59-45.99v-7.29c0-17.76-7.1-19.81-37.89-19.81v-5.46h159.92v5.46c-26.41,0-32.42,2.05-32.42,19.81v58.97Z" fill="none" stroke="#fff" stroke-width="3"/>
    <path d="M443.98,492.12v50.54c0,17.76,7.47,19.81,35.34,19.81v5.46h-154.82v-5.46c27.87,0,33.51-2.05,33.51-19.81v-108.83c0-17.76-5.65-19.81-33.51-19.81v-5.46h201.82c50.45,0,67.76,14.57,67.76,40.3s-24.41,34.38-42.8,37.11v1.37c27.69,3.42,43.35,18.67,43.35,53.73,0,3.19-.18,8.42-.18,8.42,17.49-8.2,26.23-39.62,25.5-58.51h4.19c0,43.94-19.85,76.96-61.02,76.96h-31.88c-17.67,0-33.33-14.34-36.06-34.61-4.74-35.52-12.75-41.67-40.62-41.21h-10.56Zm0-77.41v71.26h13.84c26.77,0,39.34-10.7,39.34-36.66s-12.57-34.61-39.34-34.61h-13.84Z" fill="none" stroke="#fff" stroke-width="3"/>
    <path d="M766.92,408.57l56.83,129.55c9.29,21.17,22.04,24.36,40.25,24.36v5.46h-161.38v-5.46c16.21,0,24.04-1.59,24.04-10.93,0-2.73-2-7.51-4.55-12.98l-6.92-14.57h-40.44l-6.19,14.12c-2.19,5.01-3.46,8.88-3.46,12.29,0,11.38,13.11,12.07,30.6,12.07v5.46h-73.59v-5.46c18.21,0,30.96-3.19,40.25-24.36l56.83-129.55h47.72Zm-89.43,109.06h34.79l-18.03-38.25-16.76,38.25Z" fill="none" stroke="#fff" stroke-width="3"/>
    <path d="M997.51,567.94l-93.8-137.97v108.15c0,17.76,6.38,24.36,34.24,24.36v5.46h-73.59v-5.46c27.87,0,34.24-6.6,34.24-24.36v-104.28c0-17.76-6.38-19.81-34.24-19.81v-5.46h142.25l74.31,112.24v-82.42c0-17.76-6.38-24.36-34.24-24.36v-5.46h73.59v5.46c-27.87,0-34.24,6.6-34.24,24.36v129.55h-88.52Z" fill="none" stroke="#fff" stroke-width="3"/>
    <path d="M1258.16,408.57l56.83,129.55c9.29,21.17,22.04,24.36,40.25,24.36v5.46h-161.38v-5.46c16.21,0,24.04-1.59,24.04-10.93,0-2.73-2-7.51-4.55-12.98l-6.92-14.57h-40.44l-6.19,14.12c-2.19,5.01-3.46,8.88-3.46,12.29,0,11.38,13.11,12.07,30.6,12.07v5.46h-73.59v-5.46c18.21,0,30.96-3.19,40.25-24.36l56.83-129.55h47.72Zm-89.43,109.06h34.79l-18.03-38.25-16.76,38.25Z" fill="none" stroke="#fff" stroke-width="3"/>
    <path d="M1476.73,492.12v50.54c0,17.76,7.47,19.81,35.34,19.81v5.46h-154.82v-5.46c27.87,0,33.51-2.05,33.51-19.81v-108.83c0-17.76-5.65-19.81-33.51-19.81v-5.46h201.82c50.45,0,67.76,14.57,67.76,40.3s-24.41,34.38-42.8,37.11v1.37c27.69,3.42,43.35,18.67,43.35,53.73,0,3.19-.18,8.42-.18,8.42,17.49-8.2,26.23-39.62,25.5-58.51h4.19c0,43.94-19.85,76.96-61.02,76.96h-31.88c-17.67,0-33.33-14.34-36.06-34.61-4.74-35.52-12.75-41.67-40.62-41.21h-10.56Zm0-77.41v71.26h13.84c26.78,0,39.34-10.7,39.34-36.66s-12.57-34.61-39.34-34.61h-13.84Z" fill="none" stroke="#fff" stroke-width="3"/>
    <path d="M1697.31,444.31c-7.1-19.12-11.84-30.28-47.9-30.28v-5.46h155.19v5.46c-22.59,0-27.69,3.19-27.69,10.93,0,4.78,3.83,14.34,7.47,23.45l20.58,52.82,24.59-59.2c3.1-7.51,5.46-13.21,5.46-16.62,0-8.65-8.01-11.38-25.14-11.38v-5.46h65.57v5.46c-22.04,0-31.69,6.15-38.61,23l-30.78,74.45v31.19c0,17.76,6.38,19.81,34.24,19.81v5.46h-154.46v-5.46c27.87,0,34.24-2.05,34.24-19.81v-36.88l-22.77-61.47Z" fill="none" stroke="#fff" stroke-width="3"/>
  </g>
</svg>