<?xml version="1.0" encoding="utf-8"?>
<!-- Generator: Adobe Illustrator 19.2.0, SVG Export Plug-In . SVG Version: 6.00 Build 0)  -->
<svg version="1.1" id="Layer_1" xmlns="http://www.w3.org/2000/svg" xmlns:xlink="http://www.w3.org/1999/xlink" x="0px" y="0px"
	 viewBox="0 0 110 20" style="enable-background:new 0 0 110 20;" xml:space="preserve">
<style type="text/css">
	.st0{fill:#633A84;}
	.st1{fill:#EE558E;}
	.st2{fill:#F49521;}
	.st3{fill:#FAD00A;}
	.st4{fill:#3FA060;}
	.st5{fill:#84B54B;}
	.st6{fill:#1AC0E2;}
	.st7{fill:#80D2EF;}
	.st8{fill:#A29098;}
	.st9{fill:#0E2032;}
</style>
<title>logo-web</title>
<g>
	<g>
		<circle class="st0" cx="5.4" cy="4.6" r="2"/>
		<circle class="st1" cx="10.9" cy="4.6" r="2"/>
		<circle class="st2" cx="16.2" cy="4.6" r="2"/>
		<circle class="st3" cx="5.4" cy="10" r="2"/>
		<circle class="st4" cx="10.9" cy="10" r="2"/>
		<circle class="st5" cx="16.2" cy="10" r="2"/>
		<circle class="st6" cx="5.4" cy="15.4" r="2"/>
		<circle class="st7" cx="10.9" cy="15.4" r="2"/>
		<circle class="st8" cx="16.2" cy="15.4" r="2"/>
	</g>
	<g>
		<path class="st9" d="M25.5,11.9c0,2.3,1.5,3.9,4.1,3.9s4.1-1.6,4.1-3.9V2.3h1.8v9.7c0,3.2-2.2,5.5-6,5.5s-6-2.3-6-5.5V2.3h2V11.9z
			"/>
		<path class="st9" d="M38.5,17.3v-15h1.9v15H38.5z"/>
		<path class="st9" d="M47.6,17.3v-15h10.2v3.1h-6.4v3.4h5.8v2.9h-5.8v5.6H47.6z"/>
		<path class="st9" d="M58.5,13.9c0-2.2,1.7-3.4,4.7-3.5l2.7-0.2V9.6c0-0.9-0.7-1.5-1.7-1.5s-1.7,0.5-1.8,1.2h-3.3
			c0.1-2.3,2.1-3.9,5.3-3.9c3.1,0.1,5.1,1.6,5.1,4v7.9H66v-1.7h-0.1c-0.6,1.2-2,1.8-3.4,1.8C60.3,17.5,58.5,16,58.5,13.9z M66,13.1
			v-0.8l-2.1,0.1c-1.1,0.1-1.6,0.5-1.6,1.2s0.6,1.2,1.6,1.2C65,14.9,66,14.2,66,13.1z"/>
		<path class="st9" d="M79,10.2c-0.1-1.2-0.9-2-2-2c-1.4,0-2.2,1.2-2.2,3.2c0,2.1,0.8,3.2,2.2,3.2c1.1,0,1.9-0.7,2-1.9h3.4
			c-0.1,2.9-2.2,4.7-5.4,4.7c-3.6,0-5.9-2.3-5.9-6s2.2-6,5.8-6c3.2,0,5.3,1.9,5.4,4.8H79z"/>
		<path class="st9" d="M94.8,13.6c-0.4,2.4-2.5,3.9-5.5,3.9c-3.7,0-5.9-2.3-5.9-6s2.2-6.1,5.7-6.1s5.7,2.3,5.7,5.8v1h-7.8v0.2
			c0,1.4,0.9,2.4,2.3,2.4c1,0,1.8-0.5,2.1-1.3L94.8,13.6L94.8,13.6z M87.1,10.2h4.3c-0.1-1.3-0.9-2.1-2.1-2.1
			C88,8.1,87.1,8.9,87.1,10.2z"/>
		<path class="st9" d="M101.2,5.5c3.1,0,5.1,1.5,5.1,3.9h-3.4c0-0.8-0.7-1.4-1.8-1.4c-0.9,0-1.5,0.4-1.5,1c0,0.5,0.4,0.8,1.3,1
			l2.4,0.5c2.3,0.5,3.3,1.4,3.3,3.2c0,2.4-2.2,3.9-5.4,3.9c-3.3,0-5.3-1.5-5.4-3.9h3.6c0.1,0.9,0.8,1.4,1.9,1.4c1,0,1.7-0.4,1.7-1
			c0-0.5-0.4-0.7-1.3-0.9l-2.1-0.6c-2.3-0.5-3.5-1.7-3.5-3.4C96.1,6.9,98.1,5.5,101.2,5.5z"/>
	</g>
</g>
</svg>
