<?xml version="1.0" encoding="UTF-8"?><svg id="a" xmlns="http://www.w3.org/2000/svg" viewBox="0 0 522 523"><defs><style>.b{fill:#fff;}</style></defs><path d="M325.77,6h8.97c6.31,3.07,8.38,8.32,6.79,14.8-2.09,8.49-3.89,17.2-7.29,25.19-3.45,8.1-8.69,15.44-13.29,23.35-.13-.29-.1-.06,0-.02,1.24,.46,2.48,.92,3.74,1.32,25.64,8.18,42.89,25,51.55,50.45,6.41,18.83,6.38,38.1,3.29,57.51-4.45,28.03-14.91,53.5-32.58,75.85-2.72,3.44-5.86,6.53-9.52,10.56,2.82,0,4.59,0,6.35,0,35.5,0,71-.05,106.51,.02,16.06,.03,27.32,9.24,30.89,24.89,4.38,19.22,8.71,38.44,13.2,57.64,.41,1.75,1.39,4.28,2.72,4.77,9.43,3.48,14.98,10.54,18.94,19.27v37.85c-3.58,7.89-8.3,14.88-16.74,18.1-3.32,1.27-4.44,3.31-5.13,6.42-4.26,19.09-8.64,38.14-13,57.21-3.57,15.64-14.86,24.84-30.96,24.84-125.49,.04-250.97,.04-376.46,0-16.08,0-27.32-9.21-30.91-24.9-4.39-19.23-8.8-38.45-13.13-57.69-.62-2.75-1.75-4.44-4.59-5.7-11.52-5.13-17.56-14.31-18.05-26.89-.27-6.96-.29-13.95,.02-20.91,.55-12.37,6.53-21.44,17.84-26.51,3.01-1.35,4.19-3.17,4.84-6.08,4.23-18.75,8.54-37.49,12.86-56.22,4.09-17.7,14.69-26.11,32.89-26.11,35.02-.01,70.05,0,105.07,0h5.53c-.6-1.07-.72-1.38-.92-1.63-.42-.51-.89-.98-1.33-1.48-31.32-34.9-44.6-75.95-40.13-122.36,2.36-24.54,13.36-45.11,34.56-58.9,20.51-13.34,43.21-16.99,67.22-13.55,1.66,.24,3.32,.5,6.09,.91-2.27-5.35-3.74-9.77-5.94-13.8-5.8-10.64-14.84-17.54-26.03-22-6.27-2.5-8.7-7.83-6.68-13.01,2.18-5.58,7.64-7.78,14.05-5.27,4.15,1.62,8.22,3.55,12.08,5.77,10.37,5.97,18.14,14.63,24.43,25.07,.96-1.36,1.69-2.26,2.29-3.24,7.97-13.05,19.08-22.58,33.33-27.9,8.62-3.22,17.73-5.12,26.62-7.61Zm-63.73,259c8.13,0,16.28-.34,24.4,.07,16.37,.82,29.57-5.76,40.04-17.57,25.58-28.85,36.66-63.01,34.6-101.26-.99-18.34-7.09-35.25-22.73-46.22-21.39-14.99-44.79-18.79-69.83-9.25-3.41,1.3-8.15,1.99-11.27,.65-12.64-5.46-25.46-6.65-38.94-4.7-31.08,4.5-51.01,22.99-54.6,53.65-4.67,39.91,6.82,75.49,32.86,106.07,10.85,12.75,24.74,19.66,42.07,18.63,7.77-.46,15.6-.08,23.4-.08Zm212.09,85.67c0-1.07,.12-1.75-.02-2.37-4.13-18.09-8.22-36.19-12.49-54.25-1.64-6.94-4.89-9.11-12.71-9.11-124.64,0-249.28,0-373.92,0-8.02,0-11.13,2.44-12.93,10.17-2.15,9.2-4.19,18.42-6.28,27.63-2.08,9.15-4.16,18.3-6.36,27.94H185.95c16.76,0,16.86-.03,22,15.72,1.04,3.18,2.33,4.32,5.81,4.3,29.04-.17,58.09-.09,87.13-.09h13.58c1.1-3.14,2.17-6.08,3.16-9.05,3.18-9.45,5.14-10.88,15.07-10.88,45.14,0,90.28,0,135.43,0h5.98ZM49.67,430.53c.26,1.65,.37,2.79,.62,3.91,3.86,16.96,7.74,33.92,11.62,50.88,1.92,8.39,4.87,10.79,13.44,10.79,124.46,0,248.91,0,373.37,0,8.54,0,11.49-2.43,13.41-10.83,2.29-10.01,4.6-20.02,6.87-30.04,1.84-8.14,3.62-16.29,5.49-24.71H49.67Zm212.14-20.08c73.38,0,146.76,0,220.13,0,1.49,0,2.99,.06,4.48-.02,6.61-.37,10.41-4.1,10.64-10.72,.18-5.14,.05-10.29,.04-15.44-.02-10.42-3.26-13.66-13.74-13.66-45.65,0-91.31,0-136.96,0q-10.7,0-14.1,9.98c-2.75,8.1-5.28,9.94-13.81,9.94-35.53,0-71.05,0-106.58,0-16.71,0-16.87,.05-21.97-15.72-1.2-3.7-3.09-4.27-6.43-4.26-30.21,.1-60.43,.06-90.64,.06-17.93,0-35.86-.04-53.79,.02-8.39,.03-12.08,3.8-12.16,12.23-.05,4.48-.01,8.96,0,13.45,0,11.13,3.05,14.15,14.25,14.15,73.54,0,147.09,0,220.63,0Zm13.99-343.53c11.47,.18,21.36-1.95,28.9-10.86,6.99-8.25,12.31-17.19,14.89-28.27-22.23,5.01-36.8,17.53-43.79,39.13Z"/><path class="b" d="M325.77,6c-8.89,2.49-18,4.39-26.62,7.61-14.25,5.32-25.36,14.85-33.33,27.9-.6,.98-1.32,1.88-2.29,3.24-6.29-10.44-14.06-19.1-24.43-25.07-3.86-2.22-7.93-4.14-12.08-5.77-6.4-2.51-11.87-.31-14.05,5.27-2.03,5.18,.41,10.51,6.68,13.01,11.19,4.46,20.23,11.36,26.03,22,2.2,4.03,3.67,8.45,5.94,13.8-2.77-.41-4.43-.67-6.09-.91-24.01-3.45-46.71,.21-67.22,13.55-21.2,13.79-32.2,34.37-34.56,58.9-4.47,46.41,8.81,87.46,40.13,122.36,.44,.49,.91,.97,1.33,1.48,.2,.24,.32,.55,.92,1.63h-5.53c-35.02,0-70.05,0-105.07,0-18.2,0-28.8,8.41-32.89,26.11-4.33,18.73-8.63,37.47-12.86,56.22-.66,2.91-1.83,4.73-4.84,6.08-11.32,5.07-17.29,14.14-17.84,26.51-.31,6.96-.29,13.95-.02,20.91,.49,12.58,6.53,21.76,18.05,26.89,2.84,1.27,3.97,2.95,4.59,5.7,4.33,19.24,8.74,38.46,13.13,57.69,3.58,15.69,14.82,24.9,30.91,24.9,125.49,.04,250.97,.04,376.46,0,16.09,0,27.39-9.2,30.96-24.84,4.35-19.06,8.74-38.12,13-57.21,.69-3.11,1.81-5.15,5.13-6.42,8.44-3.22,13.16-10.2,16.74-18.1v107.59H5V6c106.92,0,213.84,0,320.77,0Z"/><path class="b" d="M516.03,371.59c-3.96-8.73-9.51-15.79-18.94-19.27-1.33-.49-2.31-3.01-2.72-4.77-4.48-19.19-8.82-38.42-13.2-57.64-3.57-15.66-14.83-24.86-30.89-24.89-35.5-.07-71-.02-106.51-.02-1.76,0-3.52,0-6.35,0,3.65-4.03,6.8-7.13,9.52-10.56,17.66-22.34,28.12-47.82,32.58-75.85,3.08-19.4,3.11-38.68-3.29-57.51-8.66-25.45-25.91-42.27-51.55-50.45-1.26-.4-2.5-.86-3.74-1.32-.1-.04-.13-.27,0,.02,4.6-7.92,9.84-15.25,13.29-23.35,3.4-7.99,5.21-16.7,7.29-25.19,1.59-6.48-.47-11.72-6.79-14.8h181.3V371.59Z"/><path class="b" d="M262.04,265c-7.8,0-15.63-.38-23.4,.08-17.33,1.03-31.21-5.88-42.07-18.63-26.03-30.58-37.53-66.16-32.86-106.07,3.59-30.66,23.52-49.15,54.6-53.65,13.48-1.95,26.3-.76,38.94,4.7,3.12,1.35,7.86,.65,11.27-.65,25.03-9.54,48.44-5.74,69.83,9.25,15.64,10.96,21.75,27.87,22.73,46.22,2.05,38.25-9.03,72.41-34.6,101.26-10.47,11.81-23.67,18.39-40.04,17.57-8.11-.41-16.26-.07-24.4-.07Zm79.59-112.67l1.05-.26c-1.89-7.49-2.93-15.32-5.83-22.4-6.66-16.24-28.69-27.16-46.31-23.83-5.08,.96-8.74,5.29-8.52,10.11,.22,4.9,3.91,8.74,9.25,9.48,4.75,.66,9.57,.9,14.24,1.9,8.75,1.88,13.63,7.79,15.19,16.37,.74,4.05,.7,8.24,1.21,12.34,.68,5.5,4.92,9.34,9.95,9.26,5.08-.08,9.17-4.03,9.75-9.5,.12-1.15,.02-2.32,.02-3.48Z"/><path class="b" d="M474.13,350.67h-5.98c-45.14,0-90.28,0-135.43,0-9.93,0-11.89,1.43-15.07,10.88-1,2.96-2.06,5.9-3.16,9.05h-13.58c-29.04,0-58.09-.07-87.13,.09-3.48,.02-4.77-1.12-5.81-4.3-5.15-15.75-5.25-15.72-22-15.72H49.42c2.19-9.64,4.28-18.79,6.36-27.94,2.09-9.21,4.14-18.43,6.28-27.63,1.8-7.73,4.92-10.17,12.93-10.17,124.64-.01,249.28-.01,373.92,0,7.82,0,11.06,2.18,12.71,9.11,4.27,18.06,8.36,36.16,12.49,54.25,.14,.62,.02,1.3,.02,2.37Zm-192.43-22.91c12.61,0,25.23,.04,37.84-.01,7.33-.03,11.95-3.8,12.13-9.71,.18-6.06-4.62-10.18-12.14-10.19-25.06-.04-50.13-.04-75.19,0-7.33,.01-11.95,3.8-12.12,9.71-.18,6.07,4.62,10.16,12.14,10.19,12.45,.05,24.9,.01,37.35,.01Zm-69.57-9.91c.03-5.21-4.62-9.91-9.83-9.94-5.2-.03-9.89,4.61-9.93,9.83-.04,5.19,4.61,9.9,9.83,9.93,5.2,.04,9.91-4.62,9.93-9.83Z"/><path class="b" d="M49.67,430.53H474.49c-1.87,8.42-3.65,16.57-5.49,24.71-2.27,10.02-4.58,20.03-6.87,30.04-1.92,8.41-4.87,10.83-13.41,10.83-124.46,0-248.91,0-373.37,0-8.57,0-11.52-2.4-13.44-10.79-3.88-16.96-7.76-33.92-11.62-50.88-.25-1.12-.37-2.26-.62-3.91Z"/><path class="b" d="M261.8,410.44c-73.54,0-147.09,0-220.63,0-11.21,0-14.25-3.02-14.25-14.15,0-4.48-.04-8.97,0-13.45,.09-8.43,3.77-12.21,12.16-12.23,17.93-.06,35.86-.02,53.79-.02,30.21,0,60.43,.04,90.64-.06,3.35-.01,5.23,.56,6.43,4.26,5.1,15.78,5.26,15.72,21.97,15.72,35.53,0,71.05,0,106.58,0,8.53,0,11.05-1.84,13.81-9.94q3.39-9.98,14.1-9.98c45.65,0,91.31,0,136.96,0,10.48,0,13.73,3.24,13.74,13.66,0,5.15,.13,10.3-.04,15.44-.23,6.62-4.04,10.35-10.64,10.72-1.49,.08-2.99,.02-4.48,.02-73.38,0-146.76,0-220.13,0Z"/><path class="b" d="M275.79,66.91c6.99-21.6,21.56-34.12,43.79-39.13-2.58,11.08-7.9,20.02-14.89,28.27-7.54,8.91-17.43,11.03-28.9,10.86Z"/><path d="M341.63,152.33c0,1.16,.1,2.33-.02,3.48-.58,5.47-4.67,9.42-9.75,9.5-5.04,.08-9.27-3.77-9.95-9.26-.51-4.1-.47-8.29-1.21-12.34-1.57-8.58-6.45-14.49-15.19-16.37-4.67-1-9.5-1.24-14.24-1.9-5.34-.75-9.03-4.59-9.25-9.48-.21-4.82,3.44-9.15,8.52-10.11,17.62-3.33,39.65,7.6,46.31,23.83,2.9,7.07,3.94,14.91,5.83,22.4l-1.05,.26Z"/><path d="M281.69,327.76c-12.45,0-24.9,.04-37.35-.01-7.52-.03-12.32-4.12-12.14-10.19,.17-5.91,4.8-9.69,12.12-9.71,25.06-.04,50.13-.04,75.19,0,7.52,.01,12.32,4.12,12.14,10.19-.17,5.9-4.8,9.68-12.13,9.71-12.61,.05-25.23,.01-37.84,.01Z"/><path d="M212.12,317.86c-.03,5.21-4.73,9.86-9.93,9.83-5.22-.04-9.87-4.74-9.83-9.93,.04-5.22,4.73-9.86,9.93-9.83,5.21,.03,9.86,4.73,9.83,9.94Z"/></svg>