<?xml version="1.0" encoding="UTF-8"?><svg id="a" xmlns="http://www.w3.org/2000/svg" viewBox="0 0 384 384"><defs><style>.b{fill:#fff;}</style></defs><path class="b" d="M384,374H0V-10H384V374ZM167.31,205.4c2.83-14.24-5.07-23.84-19.25-23.84-8.13,0-16.28-.41-24.37,.13-6.33,.42-11.09-1.37-15.66-5.77-9.88-9.52-20.27-18.5-30.33-27.83-7.42-6.88-15.98-11.44-25.88-13.52-25.78-5.43-40.79,13.11-40.12,32.7,.89,26.05,.21,52.16,.23,78.24,.02,25.79,18.04,43.85,43.8,43.89,18.13,.02,36.26,.09,54.38-.08,3.05-.03,4.3,.98,5.4,3.68,5.4,13.27,11.03,26.45,16.59,39.66,3.38,8.04,6.75,16.09,10.2,24.1,1.67,3.88,4.77,5.37,7.99,4.07,3.45-1.4,4.57-4.65,3-8.76-.13-.35-.28-.69-.42-1.04-9.57-22.74-19.19-45.46-28.67-68.24-1.62-3.89-4.1-5.44-8.32-5.42-20.75,.13-41.51,.18-62.26,.01-16.43-.13-29.56-13.21-29.65-29.58-.15-28.08-.11-56.16-.01-84.23,.03-10.19,8.04-17.97,18.24-17.89,11.79,.09,21.43,5.02,29.47,13.45,2.66,2.8,5.47,5.47,8.36,8.03,8.98,7.95,17.94,15.92,27.12,23.63,1.81,1.52,4.57,2.6,6.93,2.66,10.49,.28,21,.12,31.5,.12,.75,0,1.5,0,2.25,0,4.96,.04,8,2.27,8.05,5.92,.06,3.66-3.02,6.04-7.92,6.05-12.5,.02-25.01,.12-37.5-.09-2.45-.04-5.27-.83-7.26-2.21-14.65-10.2-29.14-20.65-43.69-31-1.01-.72-2.03-1.47-3.15-2-2.75-1.3-5.19-.6-7.04,1.67-1.99,2.45-1.89,5.09,.1,7.52,.69,.85,1.67,1.49,2.58,2.14,15.09,10.88,30.09,21.9,45.39,32.48,2.97,2.05,7.14,3.33,10.76,3.34,55.88,.21,111.77,.21,167.65-.01,3.71-.01,7.96-1.48,11.04-3.6,15.01-10.35,29.7-21.14,44.5-31.8,1.11-.8,2.31-1.57,3.16-2.61,2-2.43,2.05-5.1,.03-7.52-1.87-2.24-4.34-2.94-7.06-1.58-1.33,.66-2.54,1.57-3.76,2.44-14.34,10.22-28.62,20.51-43.06,30.59-1.9,1.33-4.57,2.12-6.9,2.16-12.62,.21-25.25,.11-37.88,.09-4.9,0-7.96-2.43-7.85-6.12,.1-3.55,3.07-5.83,7.74-5.85,9.63-.03,19.27-.39,28.87,.12,6.47,.34,11.29-1.48,15.99-5.99,11.17-10.7,22.88-20.85,34.3-31.29,6.68-6.11,14.47-9.71,23.45-10.63,12.84-1.32,21.6,6.54,21.61,19.32,.02,26.95,.03,53.91,0,80.86-.02,18.7-12.83,31.43-31.61,31.46-20,.02-40.01,0-60.01,0-5.52,0-6.66,.75-8.77,5.76-8.6,20.45-17.19,40.9-25.77,61.35-1.3,3.1-2.76,6.16-3.72,9.36-.96,3.2,.51,5.66,3.57,6.91,2.97,1.21,5.39,.15,7.13-2.41,.62-.91,1-2,1.43-3.03,8.76-20.79,17.56-41.55,26.18-62.39,1.13-2.73,2.42-3.67,5.43-3.64,19.13,.15,38.26,.3,57.38-.02,21.63-.36,40.15-17.96,40.55-39.34,.55-29.32,.36-58.65,.08-87.97-.13-13.42-10.53-25.48-23.81-27.55-17.66-2.75-32.36,3.51-44.4,16.41-1.11,1.18-2.11,2.48-3.32,3.55-9.66,8.49-19.35,16.96-29.06,25.39-.82,.71-1.83,1.65-2.78,1.68-5.44,.16-10.89,.08-16.51,.08,0-2.87,0-5.22,0-7.58,0-7.97,.57-16.01-2.32-23.69-5.24-13.88-13.41-26.28-29-27.74-18.94-1.77-38.28-1.67-57.25-.09-16.74,1.4-31.08,21.27-31.42,39.75-.08,4.39,2.08,7.19,5.69,7.37,3.59,.17,6.04-2.46,6.3-6.82,.46-7.74,3.31-14.54,8.22-20.47,4.8-5.79,10.76-8.87,18.58-8.71,13.5,.28,27.02,.52,40.5-.06,12.09-.52,19.44,5.49,24.82,15.27,5.7,10.37,3.45,21.56,3.88,32.87-7.18-.55-13.71-.14-18.82,5.1-5.14,5.27-6.12,11.61-4.54,18.65h-49.29Zm-83.37,36.06c0-5.96,.04-11.43-.01-16.91-.04-4.37-2.42-7.07-6.05-7.03-3.62,.04-5.9,2.72-5.93,7.15-.04,6.99-.03,13.98,0,20.96,.02,5.82,2.02,7.79,7.94,7.79,16.88,.01,33.76-.01,50.63,.01,7.64,.01,11.75,3.36,13.46,10.82,6.95,30.24,13.88,60.48,20.91,90.7,.4,1.73,1.23,3.61,2.45,4.84,1.96,1.97,4.56,1.98,6.89,.43,2.8-1.85,3.05-4.52,2.34-7.61-6.91-29.99-13.8-59.99-20.63-90-3.25-14.29-11.8-21.17-26.55-21.17-14.99,0-29.97,0-45.46,0Zm216.05,0c-16.4,0-32.27-.07-48.13,.02-11.05,.07-20.26,7.3-23.09,17.93-.74,2.77-1.32,5.58-1.96,8.37-6.49,28.3-12.95,56.6-19.48,84.89-.71,3.09-.42,5.75,2.39,7.6,3.84,2.52,8.1,.26,9.31-4.96,6.97-30.23,13.91-60.47,20.86-90.71,1.83-7.97,5.78-11.15,13.95-11.15,17-.01,34,.02,51-.02,4.9-.01,7.1-2.21,7.13-7.09,.05-7.24,.05-14.47,0-21.71-.03-4.4-2.35-7.09-5.98-7.1-3.63,0-5.96,2.68-6,7.08-.05,5.47-.01,10.93-.01,16.86ZM47.89,49.79c-19.78,.02-35.97,16.21-35.96,35.97,.02,19.74,16.26,35.92,36.04,35.89,19.79-.02,35.97-16.21,35.95-35.97-.02-19.76-16.22-35.9-36.03-35.89Zm288.06,0c-19.78,.01-35.98,16.21-35.96,35.96,.01,19.74,16.25,35.92,36.03,35.9,19.79-.02,35.97-16.21,35.96-35.97-.02-19.76-16.22-35.9-36.03-35.89Zm-108,24.14c.08-19.79-16.01-36.03-35.8-36.12-19.81-.09-36.11,16-36.19,35.73-.09,19.77,16.04,36.04,35.8,36.13,19.81,.09,36.1-16,36.19-35.74Z"/><path d="M167.31,205.4h49.29c-1.58-7.04-.59-13.38,4.54-18.65,5.11-5.24,11.64-5.65,18.82-5.1-.43-11.32,1.82-22.51-3.88-32.87-5.38-9.78-12.72-15.79-24.82-15.27-13.48,.58-27,.33-40.5,.06-7.81-.16-13.77,2.92-18.58,8.71-4.92,5.93-7.76,12.73-8.22,20.47-.26,4.36-2.71,6.99-6.3,6.82-3.61-.18-5.77-2.97-5.69-7.37,.34-18.48,14.68-38.35,31.42-39.75,18.97-1.58,38.31-1.68,57.25,.09,15.59,1.46,23.76,13.85,29,27.74,2.9,7.67,2.32,15.71,2.32,23.69,0,2.36,0,4.72,0,7.58,5.62,0,11.07,.08,16.51-.08,.95-.03,1.97-.97,2.78-1.68,9.71-8.44,19.4-16.9,29.06-25.39,1.21-1.06,2.21-2.36,3.32-3.55,12.05-12.9,26.75-19.17,44.4-16.41,13.28,2.07,23.68,14.13,23.81,27.55,.28,29.32,.48,58.66-.08,87.97-.4,21.38-18.92,38.98-40.55,39.34-19.12,.32-38.26,.17-57.38,.02-3.01-.02-4.3,.91-5.43,3.64-8.62,20.84-17.43,41.61-26.18,62.39-.43,1.03-.81,2.12-1.43,3.03-1.74,2.56-4.17,3.63-7.13,2.41-3.06-1.25-4.53-3.71-3.57-6.91,.96-3.21,2.42-6.27,3.72-9.36,8.58-20.45,17.18-40.9,25.77-61.35,2.11-5.01,3.25-5.76,8.77-5.76,20,0,40.01,.02,60.01,0,18.78-.02,31.59-12.75,31.61-31.46,.03-26.95,.02-53.91,0-80.86-.01-12.78-8.77-20.63-21.61-19.32-8.98,.92-16.77,4.52-23.45,10.63-11.42,10.44-23.13,20.59-34.3,31.29-4.7,4.5-9.52,6.33-15.99,5.99-9.6-.51-19.25-.15-28.87-.12-4.67,.01-7.64,2.3-7.74,5.85-.11,3.68,2.95,6.11,7.85,6.12,12.63,.02,25.26,.12,37.88-.09,2.33-.04,5-.83,6.9-2.16,14.44-10.08,28.72-20.37,43.06-30.59,1.22-.87,2.43-1.78,3.76-2.44,2.72-1.35,5.19-.66,7.06,1.58,2.02,2.42,1.97,5.09-.03,7.52-.85,1.04-2.05,1.81-3.16,2.61-14.8,10.65-29.49,21.45-44.5,31.8-3.08,2.12-7.32,3.59-11.04,3.6-55.88,.22-111.77,.22-167.65,.01-3.62-.01-7.79-1.29-10.76-3.34-15.3-10.58-30.3-21.6-45.39-32.48-.91-.65-1.88-1.29-2.58-2.14-1.99-2.43-2.1-5.08-.1-7.52,1.85-2.27,4.29-2.97,7.04-1.67,1.12,.53,2.14,1.28,3.15,2,14.55,10.36,29.03,20.8,43.69,31,1.99,1.39,4.81,2.17,7.26,2.21,12.5,.22,25,.11,37.5,.09,4.9,0,7.98-2.39,7.92-6.05-.06-3.65-3.1-5.88-8.05-5.92-.75,0-1.5,0-2.25,0-10.5,0-21.01,.16-31.5-.12-2.36-.06-5.12-1.14-6.93-2.66-9.18-7.71-18.14-15.68-27.12-23.63-2.89-2.56-5.7-5.23-8.36-8.03-8.03-8.44-17.67-13.36-29.47-13.45-10.21-.08-18.21,7.69-18.24,17.89-.09,28.08-.14,56.16,.01,84.23,.09,16.38,13.22,29.45,29.65,29.58,20.75,.17,41.51,.12,62.26-.01,4.22-.03,6.7,1.53,8.32,5.42,9.48,22.78,19.1,45.5,28.67,68.24,.15,.34,.29,.69,.42,1.04,1.57,4.11,.45,7.36-3,8.76-3.22,1.31-6.32-.19-7.99-4.07-3.45-8.01-6.82-16.06-10.2-24.1-5.56-13.21-11.19-26.39-16.59-39.66-1.1-2.7-2.35-3.71-5.4-3.68-18.13,.17-36.25,.11-54.38,.08-25.75-.03-43.78-18.09-43.8-43.89-.02-26.08,.67-52.19-.23-78.24-.67-19.59,14.34-38.13,40.12-32.7,9.9,2.09,18.46,6.65,25.88,13.52,10.06,9.33,20.45,18.31,30.33,27.83,4.57,4.4,9.32,6.2,15.66,5.77,8.09-.54,16.24-.13,24.37-.13,14.18,0,22.08,9.6,19.25,23.84Z"/><path d="M83.94,241.46c15.49,0,30.48,0,45.46,0,14.76,0,23.3,6.88,26.55,21.17,6.83,30.01,13.71,60.01,20.63,90,.71,3.09,.46,5.76-2.34,7.61-2.34,1.55-4.94,1.54-6.89-.43-1.22-1.23-2.05-3.11-2.45-4.84-7.02-30.22-13.96-60.46-20.91-90.7-1.72-7.47-5.82-10.81-13.46-10.82-16.88-.02-33.76,0-50.63-.01-5.92,0-7.92-1.97-7.94-7.79-.02-6.99-.03-13.98,0-20.96,.03-4.42,2.3-7.11,5.93-7.15,3.64-.04,6.01,2.65,6.05,7.03,.05,5.47,.01,10.94,.01,16.91Z"/><path d="M299.98,241.47c0-5.92-.04-11.39,.01-16.86,.04-4.39,2.36-7.08,6-7.08,3.63,0,5.95,2.69,5.98,7.1,.05,7.24,.05,14.48,0,21.71-.04,4.88-2.23,7.08-7.13,7.09-17,.04-34,0-51,.02-8.17,0-12.12,3.18-13.95,11.15-6.95,30.24-13.89,60.48-20.86,90.71-1.2,5.22-5.47,7.48-9.31,4.96-2.81-1.84-3.1-4.51-2.39-7.6,6.52-28.29,12.99-56.59,19.48-84.89,.64-2.79,1.23-5.6,1.96-8.37,2.83-10.62,12.03-17.86,23.09-17.93,15.86-.1,31.73-.02,48.13-.02Z"/><path d="M47.89,49.79c19.81-.02,36.01,16.12,36.03,35.89,.02,19.76-16.16,35.95-35.95,35.97-19.78,.02-36.02-16.15-36.04-35.89-.02-19.76,16.17-35.95,35.96-35.97Zm24.03,36.04c.05-13.24-10.72-24.05-23.97-24.07-13.09-.01-23.89,10.62-24.02,23.64-.13,13.24,10.58,24.17,23.78,24.26,13.26,.09,24.16-10.64,24.2-23.84Z"/><path d="M335.95,49.79c19.81-.01,36.01,16.13,36.03,35.89,.02,19.76-16.17,35.95-35.96,35.97-19.78,.02-36.02-16.16-36.03-35.9-.01-19.76,16.18-35.95,35.96-35.96Zm-.09,59.88c13.25,.06,24.11-10.71,24.12-23.92,.01-13.07-10.62-23.85-23.68-23.98-13.27-.14-24.21,10.54-24.31,23.73-.1,13.23,10.65,24.12,23.86,24.17Z"/><path d="M227.95,73.93c-.08,19.74-16.38,35.83-36.19,35.74-19.76-.09-35.89-16.36-35.8-36.13,.08-19.73,16.38-35.82,36.19-35.73,19.78,.09,35.88,16.33,35.8,36.12Zm-12-.06c.05-13.25-10.71-24.06-23.96-24.08-13.1-.02-23.89,10.61-24.03,23.63-.14,13.25,10.56,24.17,23.77,24.27,13.27,.1,24.16-10.62,24.22-23.82Z"/><path class="b" d="M71.92,85.83c-.05,13.19-10.95,23.93-24.2,23.84-13.2-.09-23.91-11.02-23.78-24.26,.13-13.03,10.92-23.65,24.02-23.64,13.25,.01,24.02,10.82,23.97,24.07Z"/><path class="b" d="M335.86,109.67c-13.21-.06-23.96-10.94-23.86-24.17,.09-13.19,11.03-23.86,24.31-23.73,13.05,.13,23.69,10.91,23.68,23.98-.01,13.21-10.87,23.98-24.12,23.92Z"/><path class="b" d="M215.95,73.86c-.05,13.2-10.95,23.92-24.22,23.82-13.21-.1-23.9-11.02-23.77-24.27,.13-13.03,10.93-23.65,24.03-23.63,13.25,.02,24.01,10.83,23.96,24.08Z"/></svg>