<svg xmlns="http://www.w3.org/2000/svg" viewBox="0 0 522 766.08"><defs><style>.a{fill:gray;}.b,.c,.f{fill:none;}.b,.c,.d,.g,.h,.i{stroke:#5d5d5d;}.b,.c,.d,.f,.g,.h,.i{stroke-miterlimit:10;}.c,.g,.h{stroke-width:2px;}.d,.g{fill:#fff;}.e{fill:#a0a0a0;}.f{stroke:#d1d1d1;stroke-width:3px;}.h,.j{fill:#bfbfbf;}.i,.l{fill:#e1e1e1;}.i{stroke-width:0.5px;}.k{fill:#9d9d9d;}.m{fill:#e4e4e4;}.n{fill:#f1f1f1;}</style></defs><path class="a" d="M392.75,78.94c4.21-3.43,21.08-16.76,45.62-16.16,21.62.53,36.5,11.55,46.57,19,8.71,6.45,14.7,12.93,22.82,22.81,16.44,20,29.19,35.56,42.77,60.84,18.64,34.69,44.1,82.09,26.61,102.65-10.74,12.62-33.83,10.59-35.17,10.45-15.12-1.51-25.14-10.05-30-14.25-13.29-11.64-14.06-21.86-26.13-42.78a219.15,219.15,0,0,0-26.61-36.11c-20.12-21.78-30.61-21.57-59.88-49.43-19.84-18.89-23.72-27.26-22.81-35.17C377.69,91.21,385.52,84.83,392.75,78.94Z"/><ellipse class="b" cx="310.49" cy="430.2" rx="1.69" ry="14.82" transform="translate(-217.57 378.93) rotate(-48.64)"/><ellipse class="b" cx="308.23" cy="432.76" rx="1.69" ry="14.82" transform="translate(-220.26 378.1) rotate(-48.64)"/><path class="c" d="M360.39,288.06H547.09a0,0,0,0,1,0,0v244a11.79,11.79,0,0,1-11.79,11.79H360.39a0,0,0,0,1,0,0V288.06a0,0,0,0,1,0,0Z" transform="translate(407.16 -197.82) rotate(43.15)"/><path class="c" d="M359,287.14H545.66a0,0,0,0,1,0,0v244A11.79,11.79,0,0,1,533.87,543H359a0,0,0,0,1,0,0V287.14a0,0,0,0,1,0,0Z" transform="translate(406.14 -197.09) rotate(43.15)"/><path class="c" d="M356,287.44H545a0,0,0,0,1,0,0v244a11.79,11.79,0,0,1-11.79,11.79H356a0,0,0,0,1,0,0V287.44a0,0,0,0,1,0,0Z" transform="translate(405.85 -195.76) rotate(43.15)"/><path class="c" d="M353.42,287.54h193.4a0,0,0,0,1,0,0v244A11.79,11.79,0,0,1,535,543.36H353.42a0,0,0,0,1,0,0V287.54A0,0,0,0,1,353.42,287.54Z" transform="translate(410.78 -195.83) rotate(43.61)"/><ellipse class="b" cx="320.36" cy="418.99" rx="1.69" ry="14.82" transform="translate(-205.81 382.54) rotate(-48.64)"/><ellipse class="b" cx="318.1" cy="421.56" rx="1.69" ry="14.82" transform="translate(-208.5 381.71) rotate(-48.64)"/><ellipse class="b" cx="330.84" cy="409.11" rx="1.69" ry="14.82" transform="translate(-194.84 387.05) rotate(-48.64)"/><ellipse class="b" cx="328.58" cy="411.68" rx="1.69" ry="14.82" transform="translate(-197.54 386.23) rotate(-48.64)"/><ellipse class="b" cx="340.41" cy="398.24" rx="1.69" ry="14.82" transform="translate(-183.44 390.55) rotate(-48.64)"/><ellipse class="b" cx="338.15" cy="400.81" rx="1.69" ry="14.82" transform="translate(-186.13 389.72) rotate(-48.64)"/><ellipse class="b" cx="349.71" cy="387.68" rx="1.69" ry="14.82" transform="translate(-172.36 393.95) rotate(-48.64)"/><ellipse class="b" cx="347.45" cy="390.25" rx="1.69" ry="14.82" transform="translate(-175.05 393.12) rotate(-48.64)"/><ellipse class="b" cx="359.17" cy="376.93" rx="1.69" ry="14.82" transform="translate(-161.08 397.41) rotate(-48.64)"/><ellipse class="b" cx="356.91" cy="379.5" rx="1.69" ry="14.82" transform="translate(-163.78 396.58) rotate(-48.64)"/><ellipse class="b" cx="368.55" cy="366.28" rx="1.69" ry="14.82" transform="translate(-149.91 400.83) rotate(-48.64)"/><ellipse class="b" cx="366.29" cy="368.85" rx="1.69" ry="14.82" transform="translate(-152.6 400.01) rotate(-48.64)"/><ellipse class="b" cx="378.73" cy="355.41" rx="1.69" ry="14.82" transform="translate(-138.29 404.78) rotate(-48.64)"/><ellipse class="b" cx="376.47" cy="357.97" rx="1.69" ry="14.82" transform="translate(-140.99 403.96) rotate(-48.64)"/><ellipse class="b" cx="388.81" cy="345.53" rx="1.69" ry="14.82" transform="translate(-127.46 409) rotate(-48.64)"/><ellipse class="b" cx="386.55" cy="348.1" rx="1.69" ry="14.82" transform="translate(-130.16 408.17) rotate(-48.64)"/><ellipse class="b" cx="398.27" cy="334.79" rx="1.69" ry="14.82" transform="translate(-116.19 412.45) rotate(-48.64)"/><ellipse class="b" cx="396" cy="337.36" rx="1.69" ry="14.82" transform="translate(-118.89 411.63) rotate(-48.64)"/><ellipse class="b" cx="408.2" cy="323.5" rx="1.69" ry="14.82" transform="translate(-104.35 416.08) rotate(-48.64)"/><ellipse class="b" cx="405.94" cy="326.07" rx="1.69" ry="14.82" transform="translate(-107.04 415.26) rotate(-48.64)"/><ellipse class="b" cx="417.84" cy="312.56" rx="1.69" ry="14.82" transform="translate(-92.87 419.6) rotate(-48.64)"/><ellipse class="b" cx="415.57" cy="315.13" rx="1.69" ry="14.82" transform="translate(-95.57 418.78) rotate(-48.64)"/><ellipse class="b" cx="427.61" cy="301.46" rx="1.69" ry="14.82" transform="translate(-81.23 423.17) rotate(-48.64)"/><ellipse class="b" cx="425.35" cy="304.03" rx="1.69" ry="14.82" transform="translate(-83.92 422.35) rotate(-48.64)"/><ellipse class="b" cx="438.29" cy="292.04" rx="1.69" ry="14.82" transform="translate(-70.53 427.99) rotate(-48.64)"/><ellipse class="b" cx="436.03" cy="294.61" rx="1.69" ry="14.82" transform="translate(-73.23 427.17) rotate(-48.64)"/><ellipse class="b" cx="447.98" cy="281.04" rx="1.69" ry="14.82" transform="translate(-58.99 431.53) rotate(-48.64)"/><ellipse class="b" cx="445.72" cy="283.6" rx="1.69" ry="14.82" transform="translate(-61.68 430.71) rotate(-48.64)"/><ellipse class="b" cx="458.19" cy="271.16" rx="1.69" ry="14.82" transform="translate(-48.11 435.85) rotate(-48.64)"/><ellipse class="b" cx="455.93" cy="273.73" rx="1.69" ry="14.82" transform="translate(-50.81 435.02) rotate(-48.64)"/><ellipse class="d" cx="268.42" cy="80.42" rx="69.97" ry="69.09"/><ellipse class="d" cx="279.46" cy="70.48" rx="74.37" ry="73.43"/><circle class="b" cx="279.77" cy="69.56" r="66.2"/><path class="b" d="M260.15,65.92c-4.1,3-5,7.59-6.89,16.52a55.44,55.44,0,0,0-1.4,9.42,42.09,42.09,0,0,0,.09,5.31,47.57,47.57,0,0,0,2.38,10.22c1.22,3.56,1.79,4,2.14,4.16,3.27,1.72,10.21-4.33,14-9.63a32.6,32.6,0,0,0,5.82-17,31.56,31.56,0,0,0-2.73-14.37c-2.26-5.38-4.27-6.3-4.87-6.54C265,62.55,260.86,65.41,260.15,65.92Z"/><path class="b" d="M250.65,91.71c6-9.43,11.53-23.46,7.84-26.38-.91-.72-2.27-.67-5.23.24C238.44,70.09,229,82,225.7,86.36c-3,4.08-5.83,8-7.61,14-1,3.53-3.87,13.18-.47,15.68C222.6,119.75,240.45,107.58,250.65,91.71Z"/><path class="b" d="M225,49.17c.21,4.78,6.56,7.71,16.4,12.24a59.46,59.46,0,0,0,7,2.62l.18,0a53.46,53.46,0,0,0,8.18,1.73c4.66.53,8.53,1,10.21-1.07,2.34-2.89-.48-8.57-1.18-10-3.61-7.27-10.63-10.39-15.33-12.48-6.15-2.73-11.06-4.92-16.52-3C229.72,40.8,224.8,44.85,225,49.17Z"/><path class="b" d="M251.82,64.38c2.33.47-16.9,2.9-32.78,2.5A78.08,78.08,0,0,1,196.35,63c-5.28-1.76-7.62-3.2-8-5.22-.59-3.56,5.34-7.15,6.3-7.73,3.12-1.88,6.26-2.61,16.75-3.44,7.3-.58,11.55-1.67,12-.71C225,49.17,222,58.32,251.82,64.38Z"/><path class="b" d="M252,39.43c-5.88-7.77-7.38-15.33-9.86-28.63C240-.41,240.72-3.32,242.21-5.6c2.53-3.86,7.84-6.79,12-5.47,3.36,1.07,4.89,5.15,8,13.31,1.85,4.92,2.82,9.22,4.75,17.82,1.24,5.49,1.24,6.28,1.19,7-.41,6-4.29,7.51-5,14-.47,4.36,1,6.6-.12,7.25-.51.31,2-12.32,7.61-25.66.73-1.76,2.92-6.79,7.84-9.39,1-.52,3.38-1.78,4.87-.83s1.41,4.16.83,7.84c-1.22,7.83-2.15,13.79-6.89,21.86-3.47,5.91-9.35,13.6-11.52,12.6-1.1-.51-.19-2.75-1.19-5.71C262.69,43.59,255.66,44.33,252,39.43Z"/><path class="b" d="M283.44,10.2c-.09-2.27,1.8-4.1,5.58-7.13,5.5-4.4,8.25-6.61,11.88-8.55.74-.39,13.07-6.92,14.74-4.63.74,1-1.39,2.79-2.38,7.72a26.29,26.29,0,0,0-.36,6.3c0,5-1.49,9-3.68,14.61-1.63,4.19-5.38,9.74-12.83,20.67-5.19,7.62-6.87,9.8-10.22,10.93-4.21,1.43-10,.84-11.29-1.9-1.4-3,3.84-5.67,8.44-16,2.1-4.72,5.66-12.75,2.38-17.94C284.73,12.72,283.51,12,283.44,10.2Z"/><path class="b" d="M303.28,32.18a31.45,31.45,0,0,1,12.12-2c5.94-.11,7,1.17,7.37,1.67s1.07,2-1.31,7.6c-1.92,4.53-3.45,8.15-7,11.52-2.92,2.77-6.93,4.18-15,7-3,1.06-1.7.49-16.28,4.52-7.36,2-9.73,2.74-12,1.31A7.76,7.76,0,0,1,268,56.06a7.6,7.6,0,0,1,6.18-6.17c2.92-.3,3.62,2.21,6.18,2.61C287,53.53,289.93,37.72,303.28,32.18Z"/><path class="b" d="M303,60.1c5.34.11,12.93.34,21.15,4.76,2.84,1.52,11.55,6.35,15.21,16,1,2.74,2.42,6.4.71,8.91-2.46,3.61-9.77,2.51-17,1.42-7-1-10.49-1.58-13.31-4.16-5.16-4.72-1.9-9.66-7.24-15.09-4-4-9.7-5.26-13.43-6.06-5.93-1.26-9.54-.46-9.62-1.06C279.36,63.78,290.36,59.86,303,60.1Z"/><path class="b" d="M277.38,74c4.73,5.75,8.57,4.14,16.51,10.82,5.61,4.71,6.89,5.94,6.9,5.94,3.19,3,4.38,4.66,5.82,4.39,2-.38,3.09-4.23,3.32-6.41,1-8.91-8.68-16.35-10.33-17.59-9.64-7.24-23.61-9-25.67-5.23C272.65,68.26,276.13,72.49,277.38,74Z"/><path class="b" d="M300.31,93.37a57.74,57.74,0,0,1,7.37,26.5c.16,7.29-1.36,8.29-1.9,8.55-4.46,2.11-15.2-12.15-17.23-14.85-4.09-5.43-6.77-11-12.12-22.22-3.24-6.76-6.28-13.81-5.23-22.34.28-2.29.66-3.06,1.31-3.44C276.81,63,291.59,78,300.31,93.37Z"/><path class="b" d="M276.07,94.8c3.75,2.89,1.27,11.2-.59,15.2-.42.91-4.6,9.68-8.91,8.91-3.19-.56-4.53-6-4.76-6.89-1.55-6.28.9-14.79,7-17.34C269.32,94.47,273.48,92.8,276.07,94.8Z"/><path class="b" d="M257.06,113.45c-1.24,5.62,3.67,10.8,9.63,17.11,5.37,5.68,10.38,8.13,17.82,11.76,4.8,2.34,6,2.36,6.89,1.9,4.33-2.17,2.28-14.83.12-22.1-2.52-8.44-4.72-15.83-11.53-18.53C271.3,100.13,258.76,105.77,257.06,113.45Z"/><rect class="b" x="-163.73" y="55.66" width="337.25" height="371.35" rx="20.92" transform="translate(-41.18 4.39) rotate(-9.84)"/><rect class="e" x="17.79" y="83.97" width="29.09" height="13.62" rx="5.28" transform="translate(-15.04 6.86) rotate(-9.84)"/><rect class="e" x="50.32" y="78.33" width="29.09" height="13.62" rx="5.28" transform="translate(-13.6 12.34) rotate(-9.84)"/><rect class="e" x="83.03" y="72.78" width="29.09" height="13.62" rx="5.28" transform="translate(-12.17 17.85) rotate(-9.84)"/><rect class="e" x="72.81" y="92.43" width="44.6" height="26.46" rx="5.28" transform="translate(-16.66 17.81) rotate(-9.84)"/><rect class="e" x="41" y="99.64" width="27.25" height="27.25" rx="5.28" transform="translate(-18.56 11.01) rotate(-9.84)"/><rect class="e" x="10.33" y="105.34" width="27.25" height="27.25" rx="5.28" transform="translate(-19.98 5.85) rotate(-9.84)"/><rect class="e" x="-21.47" y="110.86" width="27.25" height="27.25" rx="5.28" transform="translate(-21.4 0.49) rotate(-9.84)"/><rect class="e" x="-0.44" y="138.48" width="27.25" height="27.25" rx="5.28" transform="translate(-25.81 4.49) rotate(-9.84)"/><rect class="e" x="31.58" y="132.92" width="27.25" height="27.25" rx="5.28" transform="translate(-24.39 9.89) rotate(-9.84)"/><rect class="e" x="63.97" y="127.3" width="27.25" height="27.25" rx="5.28" transform="translate(-22.95 15.34) rotate(-9.84)"/><rect class="e" x="13.18" y="168.26" width="27.25" height="27.25" rx="5.28" transform="translate(-30.7 7.26) rotate(-9.84)"/><rect class="e" x="-18.28" y="173.72" width="27.25" height="27.25" rx="5.28" transform="translate(-32.1 1.96) rotate(-9.84)"/><rect class="e" x="45.57" y="162.64" width="27.25" height="27.25" rx="5.28" transform="translate(-29.26 12.71) rotate(-9.84)"/><rect class="e" x="77.34" y="157.13" width="27.25" height="27.25" rx="5.28" transform="translate(-27.85 18.06) rotate(-9.84)"/><rect class="e" x="3.78" y="201.53" width="27.25" height="27.25" rx="5.28" transform="translate(-36.52 6.14) rotate(-9.84)"/><rect class="e" x="35.5" y="196.02" width="27.25" height="27.25" rx="5.28" transform="translate(-35.12 11.48) rotate(-9.84)"/><rect class="e" x="66.45" y="187.1" width="68.2" height="27.25" rx="5.28" transform="translate(-32.83 20.14) rotate(-9.84)"/><rect class="e" x="18.41" y="231.27" width="27.25" height="30.8" rx="5.28" transform="translate(-41.7 9.11) rotate(-9.84)"/><rect class="e" x="-13.33" y="236.04" width="27.25" height="30.66" rx="5.28" transform="translate(-42.97 3.75) rotate(-9.84)"/><rect class="e" x="50.42" y="240.84" width="29.09" height="14.83" rx="5.28" transform="translate(-41.48 14.76) rotate(-9.84)"/><rect class="e" x="114.26" y="229.76" width="29.09" height="14.83" rx="5.28" transform="translate(-38.65 25.51) rotate(-9.84)"/><path class="e" d="M84.15,219.35h18.69a5.2,5.2,0,0,1,5.2,5.2v7a2.65,2.65,0,0,1-2.65,2.65H81.75a2.81,2.81,0,0,1-2.81-2.81v-6.82a5.2,5.2,0,0,1,5.2-5.2Z" transform="translate(-37.39 19.32) rotate(-9.84)"/><path class="e" d="M85,235.3h24.08a2.31,2.31,0,0,1,2.31,2.31v7.23a5.28,5.28,0,0,1-5.28,5.28H87.62a5.28,5.28,0,0,1-5.28-5.28V238A2.69,2.69,0,0,1,85,235.3Z" transform="translate(-40.07 20.14) rotate(-9.84)"/><path class="e" d="M99.25,121.13h18.14a5.47,5.47,0,0,1,5.47,5.47v21.7a0,0,0,0,1,0,0H99.25a5.47,5.47,0,0,1-5.47-5.47V126.6a5.47,5.47,0,0,1,5.47-5.47Z" transform="translate(-21.43 20.5) rotate(-9.84)"/><path class="e" d="M108.05,146.89h19.82a0,0,0,0,1,0,0v27a5.28,5.28,0,0,1-5.28,5.28h-9.26a5.28,5.28,0,0,1-5.28-5.28v-27a0,0,0,0,1,0,0Z" transform="translate(-26.14 22.57) rotate(-9.84)"/><rect class="f" x="-81.68" y="79.49" width="214.34" height="189.59" rx="6.14" transform="translate(-29.42 6.92) rotate(-9.84)"/><rect class="g" x="101.66" y="202.38" width="133.46" height="278.48" rx="12.16" transform="translate(156.33 -39.06) rotate(24.42)"/><rect class="h" x="107.75" y="208.32" width="121.4" height="267.62" rx="7.31" transform="translate(156.54 -39.04) rotate(24.42)"/><rect class="i" x="-76.57" y="292.92" width="95.54" height="128.75" rx="7.46" transform="matrix(0.99, -0.17, 0.17, 0.99, -61.5, 0.34)"/><path class="j" d="M402.73,65.92c4.21-3.43,21.08-16.75,45.62-16.15,21.62.52,36.5,11.55,46.57,19,8.71,6.45,14.7,12.92,22.82,22.81,16.43,20,29.19,35.55,42.77,60.83,18.64,34.69,44.1,82.1,26.61,102.65-10.74,12.63-33.83,10.59-35.17,10.46-15.12-1.52-25.14-10-30-14.26-13.3-11.64-14.06-21.86-26.13-42.77a218.59,218.59,0,0,0-26.61-36.12c-20.12-21.78-30.61-21.56-59.88-49.43-19.84-18.88-23.72-27.25-22.81-35.16C387.67,78.2,395.5,71.81,402.73,65.92Z"/><path class="b" d="M-4.55,52.89,125.58,29.82a12.55,12.55,0,0,0,1.71-.42l5.34-1.72a13.21,13.21,0,0,0,5.27-3.2l2.64-2.63A14,14,0,0,0,142,20.14l6.9-9.63c6-8.44,36.13-46.9,25.94-47.95-38.39-4-146.75,15-148,15-1.75,0-64.48,4.21-65.11,5.18-.48.73,12.44,41,18.91,61.09A13.22,13.22,0,0,0-4.55,52.89Z"/><path class="k" d="M-11.76,51.74,118.38,28.67a12.78,12.78,0,0,0,1.7-.42l5.35-1.71a13.27,13.27,0,0,0,5.26-3.21l2.64-2.63a12.47,12.47,0,0,0,1.46-1.7l6.91-9.64c6-8.44,36.12-46.89,25.94-47.95-38.39-4-146.76,15-148,15-1.74,0-64.48,4.21-65.11,5.18-.48.73,12.44,41,18.91,61.09A13.21,13.21,0,0,0-11.76,51.74Z"/><path class="c" d="M320.67,315c-2.07,4.68-.14,9.36.31,10.46a15.55,15.55,0,0,0,3.49,5.07c.74.72,7.21,7,14.26,4.43,4.91-1.78,6.83-6.84,7.6-8.87s2.25-5.92.63-10.14c-2.21-5.78-9.2-8.89-15.2-8.23C331,307.75,323.43,308.71,320.67,315Z"/><rect class="g" x="277.72" y="297.08" width="67.99" height="12.79" rx="6.4" transform="translate(73.21 -60.36) rotate(12.52)"/><path class="c" d="M246.21,365c-3.49,2.74-3.78,8.39-3.17,11.73.73,3.92,3.08,6.58,5.39,9.18,1.75,2,2.7,3.05,4.43,3.81,5.05,2.18,10.24-1.12,10.46-1.27a12.34,12.34,0,0,0,5.07-7.29,13.5,13.5,0,0,0-.63-7.6C264.54,365.75,252,360.44,246.21,365Z"/><rect class="g" x="255.12" y="356.66" width="59.62" height="12.79" rx="6.4" transform="translate(-29.68 25.4) rotate(-4.85)"/><line class="d" x1="253.6" y1="368.4" x2="250.54" y2="370.77"/><rect class="l" x="295.55" y="190.89" width="113.69" height="56.69" rx="22.95" transform="translate(165.53 -151.35) rotate(31.35)"/><rect class="b" x="291.16" y="190.32" width="119.35" height="61.15" rx="22.95" transform="translate(166.16 -150.29) rotate(31.35)"/><path class="b" d="M329,170.06H429.5a12.44,12.44,0,0,1,12.44,12.44v0a17.36,17.36,0,0,1-17.36,17.36H324.15a7.56,7.56,0,0,1-7.56-7.56v-9.8A12.44,12.44,0,0,1,329,170.06Z" transform="translate(151.62 -170.33) rotate(31.35)"/><path class="m" d="M323,179.79H429.68a3.49,3.49,0,0,1,3.49,3.49v0a14.09,14.09,0,0,1-14.09,14.09H327a7.54,7.54,0,0,1-7.54-7.54v-6.55a3.49,3.49,0,0,1,3.49-3.49Z" transform="translate(153.08 -168.27) rotate(31.35)"/><ellipse class="n" cx="318.59" cy="198.76" rx="14.74" ry="15.43"/><ellipse class="n" cx="386.55" cy="239.97" rx="14.74" ry="15.43"/><rect class="n" x="328" y="203.78" width="45.67" height="8.88" rx="4.44" transform="translate(77.06 -94.26) rotate(17.16)"/><rect class="n" x="332.51" y="221.64" width="45.67" height="8.88" rx="4.44" transform="translate(82.54 -94.79) rotate(17.16)"/></svg>