<?xml version="1.0" encoding="UTF-8"?><svg id="a" xmlns="http://www.w3.org/2000/svg" viewBox="0 0 422 421"><defs><style>.b{fill:#fff;}</style></defs><path class="b" d="M6,342.2V7c91.82,0,183.64,0,275.46,0-.88,.26-1.74,.62-2.64,.76-22.79,3.49-41.15,22.2-44.61,45.12-1.36,9.04-.28,17.75,2.33,26.31-5.39,1.03-10.69,1.64-15.75,3.07-55.41,15.58-76.39,81.24-40.34,126.23,1.63,2.04,1.28,3.43,.53,5.64-2.47,7.26-5.73,14.55-6.52,22.05-3.11,29.47,8.14,52.74,33.61,67.65,24.78,14.52,49.81,12.57,73.77-3.16,1.62-1.06,3.13-2.28,4.92-3.58v103.3h-84.33c0-9.37-.07-18.53,.1-27.7,.02-.98,1.16-2.26,2.12-2.87,11-7.01,16-18.82,12.78-30.51-3.41-12.4-13.81-20.27-27.32-20.29-51.9-.06-103.79-.1-155.69,.11-4.5,.02-9.25,1.27-13.42,3.06-8.63,3.7-12.66,11.33-15,20.01ZM57.3,152.9c-1.05-.88-1.84-1.57-2.66-2.22-7.58-6-16.12-8.48-25.72-6.87-7.05,1.18-10.23,4.6-9.34,9.91,.84,4.97,4.88,6.95,11.95,5.85,7.41-1.15,14.18,2.43,17.3,9.17,.5,1.08,.65,2.59,1.48,3.22,2.21,1.67,4.67,4.04,7.09,4.11,2.23,.06,5.77-1.99,6.59-4,4.28-10.44,11.56-14.4,22.45-12.11,.39,.08,.8,.12,1.19,.09,3.73-.28,6.23-2.2,7.19-5.83,.96-3.63-.25-6.67-3.43-8.57-1.66-.99-3.69-1.52-5.62-1.86-10.87-1.88-20.16,1.5-28.48,9.09Zm50.98-59.06c-1.01-.79-1.74-1.34-2.45-1.92-8.5-6.97-18.13-9.01-28.75-6.54-4.85,1.13-7.32,4.76-6.52,9.35,.76,4.41,4.54,6.86,9.51,6.16,11.03-1.54,15.96,1.05,20.62,11.05,1.56,3.35,3.95,5.41,7.65,5.36,3.51-.05,5.82-2.02,7.34-5.22,4.81-10.18,9.65-12.77,20.53-11.21,5.02,.72,8.81-1.63,9.64-5.98,.9-4.71-1.66-8.37-6.75-9.55-11.63-2.69-21.77,.29-30.81,8.5Z"/><path d="M6,342.2c2.34-8.68,6.37-16.31,15-20.01,4.16-1.79,8.92-3.04,13.42-3.06,51.9-.21,103.79-.17,155.69-.11,13.51,.02,23.91,7.88,27.32,20.29,3.21,11.7-1.78,23.51-12.78,30.51-.96,.61-2.11,1.88-2.12,2.87-.16,9.16-.1,18.33-.1,27.7h84.33v-103.3c-1.79,1.31-3.3,2.52-4.92,3.58-23.96,15.73-48.98,17.67-73.77,3.16-25.47-14.92-36.73-38.19-33.61-67.65,.79-7.51,4.04-14.79,6.52-22.05,.75-2.21,1.1-3.6-.53-5.64-36.05-44.99-15.08-110.65,40.34-126.23,5.07-1.42,10.36-2.04,15.75-3.07-2.6-8.56-3.69-17.27-2.33-26.31,3.46-22.92,21.82-41.63,44.61-45.12,.9-.14,1.76-.5,2.64-.76,3.99,0,7.98,0,11.98,0,.75,.24,1.48,.59,2.25,.71,28.22,4.48,47.99,29.74,45.53,58.25-.18,2.06-.48,4.1-.72,6.15,29.1,5.92,50.33,21.62,62.18,48.53,11.91,27.04,9.07,53.45-6.08,78.52,23.69,26.59,22.61,61.52,6.02,85.02-11.4,16.14-26.96,25.77-46.6,28.48-19.71,2.72-37.11-3.08-52.82-15.35v103.3c1.61,0,3.04,0,4.47,0,7.58,0,15.17-.06,22.75,.04,3.79,.05,6.65,1.75,7.96,5.49,1.2,3.44,.08,6.27-2.53,8.6-.77,.69-1.66,1.25-2.5,1.87H144.93c-5.13-3.1-6.68-5.94-5.55-10.21,1.03-3.89,4.32-5.76,10.19-5.78,1.55,0,3.1,0,4.66,0v-27.01H69.88c0,10.68-.17,21.18,.07,31.67,.12,4.98-1.2,8.84-5.66,11.33H27.56c-4.45-2.48-5.78-6.33-5.66-11.31,.24-10.37,.12-20.75,.02-31.13-.01-1.29-.4-3.3-1.25-3.76-7.95-4.22-12.02-11.24-14.66-19.41v-8.8ZM303.02,212.39c1.54-1.44,2.51-2.29,3.41-3.19,9.51-9.51,19-19.04,28.52-28.55,1.03-1.03,2.07-2.09,3.25-2.94,3.32-2.4,7.42-2.12,10.21,.57,2.84,2.74,3.25,6.72,.9,10.18-.89,1.31-2.02,2.46-3.15,3.59-13.63,13.68-27.31,27.31-40.86,41.07-1.16,1.18-2.15,3.11-2.18,4.71-.19,10.79-.16,21.6-.03,32.39,.02,1.47,.61,3.15,1.47,4.35,12.67,17.64,29.87,24.95,51.3,21.99,26.45-3.66,46.61-31.21,42.54-57.56-1.93-12.46-7.26-22.96-16.39-31.62-5-4.74-5.23-8.04-1.35-13.63,.53-.77,1.09-1.51,1.62-2.28,19.88-28.72,13.56-68.96-14.09-90.27-11.33-8.74-24.2-12.99-38.34-14.04-6.47-.48-9.17-4.96-7.44-11.26,.91-3.32,2.02-6.64,2.51-10.03,2.09-14.44-5.19-29.82-17.28-36.95-13.71-8.09-30.34-7.73-42.08,1.23-13.07,9.98-18.33,23.27-14.87,39.4,1.06,4.93,3.94,9.51,6.2,14.14,3.06,6.25-.4,12.1-7.34,12.15-1.73,.01-3.46-.08-5.18-.18-25.42-1.5-49.12,12.98-60.23,36.81-10.56,22.66-6.06,50.45,11.15,68.79,6.37,6.78,6.55,8.42,1.88,16.39-6.36,10.84-8.66,22.45-6.84,34.94,5.72,39.29,52.61,58.28,83.81,33.96,8.68-6.77,15.37-14.39,12.93-26.54-.1-.51,.13-1.12-.04-1.59-.65-1.76-.97-3.89-2.18-5.15-7.86-8.14-15.99-16.03-23.87-24.15-1.98-2.04-3.45-2.48-6.06-.96-7.23,4.23-14.61,8.19-22.01,12.11-4.4,2.33-9.01,1.08-11.12-2.72-2.19-3.94-.97-8.32,3.16-11.07,1.21-.81,2.55-1.43,3.83-2.14,5.78-3.19,11.56-6.37,18.42-10.15-4.59-4.22-8.87-7.83-12.75-11.84-2.65-2.75-2.86-6.23-.72-9.54,2.06-3.18,5.22-4.32,8.67-3.16,2.02,.68,3.86,2.3,5.43,3.86,12.01,11.91,23.93,23.91,35.89,35.87,.89,.89,1.85,1.7,3,2.74,.17-.82,.31-1.18,.31-1.55,.01-15.6,.07-31.19-.07-46.79-.01-1.49-.96-3.27-2.03-4.4-4.58-4.83-9.39-9.44-14.06-14.19-4.45-4.52-4.95-9.07-1.46-12.65,3.43-3.53,8.25-3.11,12.62,1.22,1.45,1.44,2.68,3.1,4.01,4.66l1.02-.75c0-1.3,0-2.6,0-3.9,0-5.07-.11-10.14,.05-15.2,.16-5.08,3.3-8.33,7.79-8.4,4.66-.08,7.84,3.24,8.11,8.51,.06,1.06,.02,2.13,.02,3.2,0,22,0,43.99,0,65.99v4.55Zm-190.84,122.61c-17.82,0-35.64,0-53.46,0-8.51,0-17.02-.1-25.53,.05-6.43,.12-11.19,5.04-11.19,11.16,0,6.12,4.77,10.88,11.21,11.17,1.06,.05,2.13,.02,3.19,.02,50.54,0,101.07,0,151.61,0,1.33,0,2.67,.08,3.99-.07,4.63-.5,7.95-2.86,9.64-7.25,2.91-7.55-2.61-15.03-11.25-15.06-26.07-.07-52.13-.02-78.2-.03Zm-73.97,38.58v26.7h15.48v-26.7h-15.48Zm132.34,26.69h15.62v-26.56h-15.62v26.56Z"/><path class="b" d="M333.36,416.6c.84-.62,1.73-1.18,2.5-1.87,2.61-2.33,3.73-5.16,2.53-8.6-1.3-3.74-4.17-5.45-7.96-5.49-7.58-.09-15.16-.03-22.75-.04-1.43,0-2.86,0-4.47,0v-103.3c15.71,12.26,33.11,18.06,52.82,15.35,19.64-2.71,35.2-12.33,46.6-28.48,16.59-23.49,17.67-58.43-6.02-85.02,15.15-25.07,17.99-51.48,6.08-78.52-11.85-26.9-33.08-42.61-62.18-48.53,.24-2.04,.54-4.09,.72-6.15,2.46-28.51-17.31-53.77-45.53-58.25-.77-.12-1.5-.47-2.25-.71,40.72,0,81.44,0,122.16,0V416.6h-50.3c.92-.5,1.9-.94,2.76-1.53,3.2-2.18,4.33-5.96,2.9-9.42-1.36-3.29-4.91-5.39-8.26-4.89-3.66,.55-6.63,3.56-6.85,7.2-.27,4.53,2.45,7.01,6.26,8.64h-28.74Z"/><path class="b" d="M64.29,416.6c4.46-2.49,5.78-6.35,5.66-11.33-.24-10.49-.07-20.99-.07-31.67h84.35v27.01c-1.56,0-3.11,0-4.66,0-5.86,.02-9.16,1.9-10.19,5.78-1.13,4.27,.42,7.11,5.55,10.21H64.29Z"/><path class="b" d="M6,351c2.64,8.16,6.71,15.19,14.66,19.41,.86,.45,1.24,2.46,1.25,3.76,.1,10.38,.22,20.76-.02,31.13-.12,4.97,1.22,8.82,5.66,11.31H6v-65.6Z"/><path d="M362.1,416.6c-3.81-1.63-6.53-4.11-6.26-8.64,.22-3.65,3.19-6.65,6.85-7.2,3.35-.5,6.9,1.6,8.26,4.89,1.43,3.46,.29,7.24-2.9,9.42-.86,.59-1.84,1.02-2.76,1.53h-3.19Z"/><path d="M57.3,152.9c8.33-7.59,17.62-10.97,28.48-9.09,1.93,.33,3.96,.87,5.62,1.86,3.18,1.9,4.38,4.94,3.43,8.57-.96,3.63-3.45,5.55-7.19,5.83-.39,.03-.8-.01-1.19-.09-10.89-2.29-18.17,1.67-22.45,12.11-.82,2-4.37,4.06-6.59,4-2.42-.07-4.88-2.44-7.09-4.11-.83-.63-.98-2.13-1.48-3.22-3.13-6.74-9.89-10.32-17.3-9.17-7.07,1.1-11.12-.88-11.95-5.85-.89-5.3,2.29-8.72,9.34-9.91,9.6-1.61,18.14,.87,25.72,6.87,.82,.65,1.61,1.34,2.66,2.22Z"/><path d="M108.28,93.84c9.04-8.21,19.18-11.19,30.81-8.5,5.08,1.18,7.65,4.84,6.75,9.55-.83,4.35-4.61,6.7-9.64,5.98-10.88-1.56-15.73,1.04-20.53,11.21-1.51,3.2-3.82,5.17-7.34,5.22-3.7,.05-6.09-2.01-7.65-5.36-4.65-10-9.59-12.6-20.62-11.05-4.97,.7-8.74-1.75-9.51-6.16-.8-4.59,1.68-8.22,6.52-9.35,10.62-2.47,20.25-.44,28.75,6.54,.71,.58,1.44,1.13,2.45,1.92Z"/><path class="b" d="M303.02,212.39v-4.55c0-22,0-43.99,0-65.99,0-1.07,.04-2.14-.02-3.2-.27-5.27-3.45-8.58-8.11-8.51-4.49,.08-7.64,3.32-7.79,8.4-.16,5.06-.04,10.13-.05,15.2,0,1.3,0,2.6,0,3.9l-1.02,.75c-1.33-1.56-2.56-3.22-4.01-4.66-4.37-4.33-9.19-4.74-12.62-1.22-3.48,3.58-2.99,8.13,1.46,12.65,4.67,4.74,9.48,9.35,14.06,14.19,1.07,1.12,2.02,2.91,2.03,4.4,.14,15.6,.09,31.19,.07,46.79,0,.36-.14,.73-.31,1.55-1.14-1.04-2.11-1.85-3-2.74-11.96-11.96-23.88-23.96-35.89-35.87-1.57-1.56-3.41-3.18-5.43-3.86-3.45-1.15-6.61-.02-8.67,3.16-2.15,3.31-1.93,6.8,.72,9.54,3.87,4.01,8.16,7.62,12.75,11.84-6.86,3.78-12.64,6.96-18.42,10.15-1.28,.71-2.61,1.33-3.83,2.14-4.13,2.75-5.35,7.12-3.16,11.07,2.11,3.8,6.72,5.05,11.12,2.72,7.4-3.92,14.79-7.88,22.01-12.11,2.6-1.52,4.07-1.08,6.06,.96,7.88,8.12,16.01,16.01,23.87,24.15,1.21,1.25,1.53,3.39,2.18,5.15,.17,.47-.06,1.07,.04,1.59,2.44,12.16-4.25,19.78-12.93,26.54-31.2,24.33-78.09,5.33-83.81-33.96-1.82-12.48,.48-24.09,6.84-34.94,4.67-7.96,4.48-9.6-1.88-16.39-17.21-18.33-21.71-46.13-11.15-68.79,11.11-23.84,34.81-38.32,60.23-36.81,1.73,.1,3.46,.19,5.18,.18,6.95-.04,10.4-5.9,7.34-12.15-2.27-4.63-5.15-9.21-6.2-14.14-3.46-16.13,1.8-29.42,14.87-39.4,11.73-8.97,28.36-9.32,42.08-1.23,12.09,7.13,19.37,22.51,17.28,36.95-.49,3.39-1.59,6.71-2.51,10.03-1.73,6.3,.97,10.78,7.44,11.26,14.15,1.06,27.01,5.31,38.34,14.04,27.65,21.31,33.96,61.55,14.09,90.27-.53,.77-1.09,1.51-1.62,2.28-3.89,5.59-3.66,8.89,1.35,13.63,9.13,8.66,14.47,19.15,16.39,31.62,4.08,26.35-16.09,53.9-42.54,57.56-21.43,2.97-38.63-4.34-51.3-21.99-.86-1.2-1.45-2.88-1.47-4.35-.12-10.8-.16-21.6,.03-32.39,.03-1.6,1.02-3.54,2.18-4.71,13.56-13.75,27.23-27.39,40.86-41.07,1.12-1.13,2.26-2.28,3.15-3.59,2.35-3.46,1.94-7.44-.9-10.18-2.79-2.69-6.89-2.96-10.21-.57-1.18,.85-2.21,1.91-3.25,2.94-9.51,9.51-19.01,19.04-28.52,28.55-.91,.91-1.87,1.75-3.41,3.19Zm-108.24-55.95c-.31,5.92,2.81,9.86,7.83,9.89,4.28,.03,7.39-2.61,7.85-7.38,.75-7.88,2.95-15.01,8.17-21.2,3.7-4.39,3.4-9.02-.15-12.05-3.71-3.16-8.33-2.43-12.21,2.03-7.15,8.23-10.94,17.82-11.49,28.71Zm54.59-36.76c.01-4.19-3.6-7.83-7.85-7.9-4.29-.07-7.9,3.38-8,7.66-.11,4.38,3.65,8.23,7.98,8.18,4.13-.05,7.86-3.81,7.87-7.94Z"/><path class="b" d="M112.18,335c26.07,0,52.13-.04,78.2,.03,8.64,.02,14.15,7.51,11.25,15.06-1.69,4.39-5.01,6.75-9.64,7.25-1.32,.14-2.66,.07-3.99,.07-50.54,0-101.07,0-151.61,0-1.06,0-2.13,.03-3.19-.02-6.43-.29-11.2-5.05-11.21-11.17,0-6.12,4.76-11.04,11.19-11.16,8.51-.16,17.02-.05,25.53-.05,17.82,0,35.64,0,53.46,0Z"/><path class="b" d="M38.22,373.58h15.48v26.7h-15.48v-26.7Z"/><path class="b" d="M170.56,400.27v-26.56h15.62v26.56h-15.62Z"/><path d="M194.78,156.44c.55-10.89,4.34-20.48,11.49-28.71,3.87-4.45,8.5-5.19,12.21-2.03,3.55,3.02,3.86,7.65,.15,12.05-5.22,6.19-7.42,13.32-8.17,21.2-.46,4.78-3.56,7.41-7.85,7.38-5.03-.03-8.15-3.97-7.83-9.89Z"/><path d="M249.38,119.68c-.01,4.13-3.74,7.89-7.87,7.94-4.32,.05-8.08-3.81-7.98-8.18,.1-4.27,3.71-7.72,8-7.66,4.24,.06,7.86,3.7,7.85,7.9Z"/></svg>