<?xml version="1.0" encoding="UTF-8"?><svg id="a" xmlns="http://www.w3.org/2000/svg" viewBox="0 0 394 384"><defs><style>.b{fill:#fff;}</style></defs><path class="b" d="M389,238.81v145.19H5c0-48.37,0-96.78,0-145.19,.19,.44,.49,.87,.56,1.34,1.31,8.64,5.44,15.64,12.16,21.19,7.45,6.16,16.17,7.94,25.55,7.69,4.2-.11,8.4-.02,12.87-.02,0,2.92-.05,5.28,.01,7.63,.11,3.73-.04,7.5,.53,11.16,.73,4.66,4.66,7.14,9.32,6.49,4.35-.61,7.12-3.94,7.23-9.03,.11-5.31,.02-10.62,.02-15.99h247.49c0,5.62-.15,10.98,.04,16.33,.22,6.27,5.21,10.05,10.88,8.51,3.83-1.04,6.08-4.43,6.16-9.6,.08-5.06,.02-10.12,.02-15.52,5.52,0,10.49,0,15.47,0,12.01,.01,22.2-4.23,28.95-14.26,3.16-4.7,4.54-10.59,6.73-15.94Z"/><path class="b" d="M5,163.2V0c128,0,256,0,384,0V163.2c-.22-.71-.51-1.4-.63-2.12-3.28-19.7-23.49-32.51-42.62-26.94-2.57,.75-5.02,1.88-7.7,2.9-.28-4.29-.58-8.26-.78-12.24-.82-16.37-10.6-28.85-26.49-32.61-6.24-1.48-12.86-1.92-19.3-1.94-60.85-.14-121.71-.1-182.56-.06-5.87,0-11.74,.18-17.6,.5-18.19,.98-30.64,11.81-33.86,29.69-.98,5.42-1.13,10.99-1.69,16.78-.94-.4-1.61-.68-2.27-.98-14.74-6.67-30.56-2.97-40.87,9.41-4.3,5.16-6.16,11.28-7.6,17.61Z"/><path d="M5,163.2c1.45-6.34,3.31-12.46,7.6-17.61,10.32-12.38,26.14-16.07,40.87-9.41,.66,.3,1.34,.58,2.27,.98,.56-5.79,.72-11.36,1.69-16.78,3.22-17.89,15.67-28.71,33.86-29.69,5.86-.32,11.73-.49,17.6-.5,60.85-.03,121.71-.08,182.56,.06,6.45,.01,13.06,.46,19.3,1.94,15.89,3.76,25.67,16.24,26.49,32.61,.2,3.98,.5,7.95,.78,12.24,2.68-1.02,5.13-2.15,7.7-2.9,19.13-5.57,39.34,7.24,42.62,26.94,.12,.72,.42,1.42,.63,2.12v75.61c-2.19,5.35-3.56,11.24-6.73,15.94-6.75,10.03-16.94,14.27-28.95,14.26-4.97,0-9.95,0-15.47,0,0,5.4,.06,10.46-.02,15.52-.08,5.17-2.33,8.57-6.16,9.6-5.68,1.54-10.67-2.25-10.88-8.51-.19-5.35-.04-10.71-.04-16.33H73.26c0,5.37,.09,10.68-.02,15.99-.1,5.08-2.88,8.42-7.23,9.03-4.66,.65-8.59-1.83-9.32-6.49-.57-3.66-.43-7.44-.53-11.16-.07-2.35-.01-4.71-.01-7.63-4.47,0-8.67-.09-12.87,.02-9.38,.25-18.1-1.53-25.55-7.69-6.72-5.56-10.85-12.56-12.16-21.19-.07-.46-.37-.89-.56-1.34,0-25.2,0-50.41,0-75.61Zm315.56,29.05c0-21.6,.04-42.79-.05-63.98,0-2.34-.56-4.7-1.13-6.99-1.7-6.95-6.14-11.36-13.14-12.75-4.14-.82-8.41-1.31-12.63-1.32-64.46-.08-128.93-.08-193.39,0-4.09,0-8.23,.51-12.26,1.27-7.19,1.36-11.84,5.78-13.33,12.94-.86,4.11-1.28,8.39-1.31,12.59-.14,18.2-.06,36.41-.05,54.62,0,1.19,.11,2.39,.17,3.61h247.12ZM56.14,209.38c0-1.69,0-3.03,0-4.37,0-12.22,.27-24.46-.16-36.67-.13-3.9-1.33-8.21-3.37-11.52-3.81-6.16-11.66-8.34-18.54-6.19-6.87,2.14-11.8,8.27-11.85,15.62-.14,23.08-.06,46.15-.03,69.23,0,1.23,.18,2.49,.5,3.68,2.26,8.44,8.86,12.92,19.07,12.92,103.48,0,206.95,0,310.43-.01,1.74,0,3.5-.14,5.22-.39,8.08-1.21,14.26-7.67,14.33-15.79,.18-23.32,.14-46.65,0-69.97-.03-6.07-3.19-10.7-8.39-13.73-11.06-6.43-25,1.08-25.36,13.88-.36,13.09-.12,26.19-.15,39.29,0,1.31-.12,2.63-.19,4.03H56.14Z"/><path class="b" d="M320.56,192.25H73.43c-.06-1.22-.16-2.42-.17-3.61-.01-18.21-.09-36.41,.05-54.62,.03-4.21,.45-8.48,1.31-12.59,1.49-7.16,6.15-11.59,13.33-12.94,4.03-.76,8.17-1.26,12.26-1.27,64.46-.08,128.93-.08,193.39,0,4.22,0,8.49,.5,12.63,1.32,7,1.39,11.44,5.79,13.14,12.75,.56,2.29,1.12,4.66,1.13,6.99,.09,21.19,.05,42.37,.05,63.98Z"/><path class="b" d="M56.14,209.38H337.66c.07-1.4,.19-2.71,.19-4.03,.04-13.1-.21-26.2,.15-39.29,.36-12.81,14.3-20.31,25.36-13.88,5.21,3.02,8.36,7.66,8.39,13.73,.13,23.32,.17,46.65,0,69.97-.06,8.12-6.25,14.58-14.33,15.79-1.72,.26-3.48,.39-5.22,.39-103.48,.02-206.95,.02-310.43,.01-10.21,0-16.81-4.48-19.07-12.92-.32-1.19-.5-2.45-.5-3.68-.03-23.08-.1-46.15,.03-69.23,.04-7.35,4.98-13.48,11.85-15.62,6.88-2.15,14.74,.03,18.54,6.19,2.04,3.3,3.24,7.61,3.37,11.52,.42,12.21,.16,24.44,.16,36.67,0,1.34,0,2.68,0,4.37Z"/></svg>