<?xml version="1.0" encoding="UTF-8"?><svg id="a" xmlns="http://www.w3.org/2000/svg" viewBox="0 0 384 384"><defs><style>.b{fill:#fff;}</style></defs><path class="b" d="M384,384H0V0H384V384ZM182.81,189.31c-1.9,0-3.39,0-4.88,0-27.25,0-54.51-.07-81.76,.03-15.34,.05-27.04,11.78-27.21,27.04-.09,7.86-.07,15.72,0,23.59,.11,12.72,8.14,23.11,20.5,26.22,2.22,.56,3.1,1.43,3.43,3.56,4.5,28.95,9.12,57.87,13.58,86.83,2.32,15.06,12.96,24.4,28.31,24.41,38.13,.02,76.26,.02,114.39,0,15.06,0,25.78-8.94,28.15-23.69,4.65-29.05,9.18-58.12,13.7-87.19,.34-2.19,1-3.32,3.48-3.94,12.32-3.04,20.36-13.49,20.48-26.23,.07-7.24,.02-14.48,.01-21.71-.03-17.7-11.32-28.92-29.12-28.92-26.88-.01-53.76,0-80.64,0h-4.04v-18.58c1.68,0,3.16,.04,4.62,0,6.99-.25,14.02-.11,20.95-.86,42.35-4.59,78.95-37.11,89.04-78.46,3.91-16.02,3.02-32.22,2.88-48.41-.04-4.66-4.1-7.91-9.3-7.86-9.99,.09-20.03-.06-29.97,.78-30.53,2.6-55.78,15.34-74.54,39.97-1.17,1.53-2.34,3.06-3.9,5.11-.28-2.22-.5-3.69-.64-5.17-3.45-35.05-30.78-65.14-65.45-70.55-12.37-1.93-25.15-1.31-37.74-1.63-6.64-.17-10.15,3.5-10.18,10.15-.04,7.99-.09,15.97,.02,23.96,.22,14.93,4.11,28.9,12.24,41.43,15.99,24.6,38.85,37.34,68.25,38.21,5.08,.15,10.16,.02,15.34,.02v71.89Z"/><path d="M182.81,189.31V117.42c-5.18,0-10.27,.13-15.34-.02-29.4-.87-52.26-13.6-68.25-38.21-8.14-12.52-12.02-26.5-12.24-41.43-.12-7.98-.07-15.97-.02-23.96,.03-6.65,3.54-10.32,10.18-10.15,12.6,.32,25.38-.3,37.74,1.63,34.67,5.41,62,35.5,65.45,70.55,.15,1.48,.36,2.96,.64,5.17,1.56-2.05,2.73-3.58,3.9-5.11,18.76-24.63,44.01-37.38,74.54-39.97,9.94-.85,19.97-.69,29.97-.78,5.2-.05,9.25,3.2,9.3,7.86,.14,16.19,1.03,32.39-2.88,48.41-10.09,41.34-46.69,73.86-89.04,78.46-6.93,.75-13.97,.61-20.95,.86-1.47,.05-2.94,0-4.62,0v18.58h4.04c26.88,0,53.76,0,80.64,0,17.8,0,29.1,11.23,29.12,28.92,.01,7.24,.06,14.48-.01,21.71-.12,12.73-8.16,23.18-20.48,26.23-2.49,.61-3.14,1.74-3.48,3.94-4.52,29.07-9.04,58.14-13.7,87.19-2.36,14.75-13.09,23.69-28.15,23.69-38.13,.02-76.26,.02-114.39,0-15.35,0-25.99-9.35-28.31-24.41-4.46-28.95-9.08-57.88-13.58-86.83-.33-2.14-1.21-3-3.43-3.56-12.36-3.11-20.38-13.5-20.5-26.22-.07-7.86-.08-15.72,0-23.59,.17-15.27,11.88-26.99,27.21-27.04,27.25-.1,54.51-.03,81.76-.03,1.49,0,2.98,0,4.88,0Zm-72.18,78.04c3.02,19.08,5.99,37.86,8.98,56.74,13.46,0,26.46,0,39.45,0,15.5,0,31-.03,46.51,.02,6.26,.02,10.15,4.01,9.75,9.75-.36,5.05-4.19,8.19-10.19,8.2-26.13,.02-52.26,0-78.38,0-1.34,0-2.67,0-4.23,0,.47,3.54,.85,6.63,1.32,9.71,.21,1.35,.54,2.69,.93,4.01,1.56,5.26,4.07,7.24,9.46,7.24,38.38,.02,76.76,.02,115.14,0,6.07,0,9.21-2.76,10.16-8.75,3.46-21.67,6.91-43.33,10.34-65,1.14-7.23,2.22-14.46,3.36-21.92H110.63Zm81.29-60.07c-31.36,0-62.73,0-94.09,0-7.61,0-10.87,3.31-10.89,10.99-.01,6.98-.05,13.97,.01,20.95,.05,6.36,3.63,9.97,10.02,9.97,63.35,.02,126.7,.02,190.05,0,6.37,0,9.89-3.62,9.94-10.04,.05-6.86,.02-13.72,.01-20.58-.01-8.12-3.18-11.29-11.35-11.29-31.24,0-62.48,0-93.71,0Zm9.21-67.52c1.34-1.24,2.25-2.03,3.1-2.88,7.34-7.32,14.65-14.66,22.02-21.96,4.45-4.41,9.78-4.84,13.59-1.2,4.01,3.83,3.73,9.26-.83,13.85-7.3,7.35-14.67,14.65-21.99,21.98-.83,.83-1.6,1.73-3.06,3.34,26.9-.93,48.65-10.67,65.71-30.23,17.4-19.95,23.08-43.52,20.85-69.4-64.76-5.21-99.91,44.18-99.38,86.5ZM105.19,21.91c-2.6,27.97,5.37,49.5,23.55,63.84,11.98,9.44,32.07,15.9,41.17,12.85-1.26-1.05-2.38-1.86-3.35-2.82-5.41-5.36-10.86-10.67-16.13-16.16-3.74-3.89-3.65-9.21-.1-12.74,3.55-3.54,8.76-3.52,12.78,.12,1.66,1.51,3.21,3.15,4.79,4.74,4.79,4.82,9.58,9.65,14.53,14.64,.34-.79,.49-1,.5-1.21,.04-.62,.05-1.25,.03-1.87-.71-19.41-8.5-35.37-23.51-47.75-15.82-13.05-34.44-15.29-54.26-13.64Z"/><path class="b" d="M110.63,267.36h162.6c-1.14,7.45-2.22,14.69-3.36,21.92-3.43,21.67-6.89,43.33-10.34,65-.96,5.99-4.09,8.74-10.16,8.75-38.38,.02-76.76,.02-115.14,0-5.39,0-7.9-1.98-9.46-7.24-.39-1.31-.72-2.65-.93-4.01-.47-3.08-.84-6.17-1.32-9.71,1.56,0,2.9,0,4.23,0,26.13,0,52.26,.01,78.38,0,6,0,9.83-3.15,10.19-8.2,.4-5.74-3.49-9.72-9.75-9.75-15.5-.05-31-.02-46.51-.02-13,0-25.99,0-39.45,0-2.99-18.88-5.96-37.66-8.98-56.74Zm134.68,65.71c0-5-4.03-9-9-8.95-4.91,.05-9.03,4.28-8.91,9.15,.12,4.75,4.14,8.71,8.92,8.77,4.99,.06,8.99-3.93,8.99-8.96Z"/><path class="b" d="M191.92,207.29c31.24,0,62.48,0,93.71,0,8.16,0,11.34,3.16,11.35,11.29,0,6.86,.04,13.72-.01,20.58-.05,6.42-3.57,10.04-9.94,10.04-63.35,.03-126.7,.03-190.05,0-6.39,0-9.97-3.61-10.02-9.97-.06-6.98-.03-13.97-.01-20.95,.02-7.68,3.28-10.98,10.89-10.99,31.36-.01,62.73,0,94.09,0Z"/><path class="b" d="M201.12,139.77c-.53-42.33,34.61-91.71,99.38-86.5,2.23,25.88-3.45,49.45-20.85,69.4-17.06,19.56-38.81,29.3-65.71,30.23,1.47-1.6,2.23-2.5,3.06-3.34,7.33-7.33,14.69-14.62,21.99-21.98,4.56-4.59,4.84-10.02,.83-13.85-3.81-3.64-9.14-3.21-13.59,1.2-7.36,7.3-14.67,14.64-22.02,21.96-.85,.85-1.76,1.64-3.1,2.88Z"/><path class="b" d="M105.19,21.91c19.82-1.65,38.44,.59,54.26,13.64,15,12.37,22.8,28.34,23.51,47.75,.02,.62,.01,1.25-.03,1.87-.01,.22-.17,.42-.5,1.21-4.95-4.99-9.74-9.82-14.53-14.64-1.58-1.59-3.13-3.23-4.79-4.74-4.02-3.64-9.23-3.65-12.78-.12-3.55,3.54-3.64,8.85,.1,12.74,5.27,5.49,10.73,10.81,16.13,16.16,.97,.96,2.1,1.77,3.35,2.82-9.1,3.04-29.2-3.41-41.17-12.85-18.18-14.34-26.15-35.86-23.55-63.84Z"/></svg>