<?xml version="1.0" encoding="UTF-8"?><svg id="a" xmlns="http://www.w3.org/2000/svg" viewBox="0 0 384 384"><defs><style>.b{fill:#fff;}</style></defs><path class="b" d="M384,384H0V0H384V384ZM83.94,168.24c0-13.7,.02-27.03,0-40.36-.01-5.35-2.13-7.43-7.53-7.44-10.63-.03-21.25,.11-31.88-.06-4.54-.08-7.89,1.05-8.84,6.05-3.67,0-7.17-.04-10.66,0-4.89,.07-7.05,2.21-7.08,7.13-.05,7.24-.05,14.47,0,21.71,.04,4.88,2.22,7.01,7.14,7.08,3.58,.05,7.15,0,10.66,0v5.99c-7.4,0-14.62-.01-21.84,0-5.95,.01-7.95,1.95-7.97,7.76-.02,6.86-.03,13.73,0,20.59,.02,5.56,2.09,7.56,7.77,7.59,5.1,.02,10.2,0,15.49,0-1.03,8.97-2.02,17.5-3,26.04-2.86,24.77-5.7,49.55-8.57,74.32-1.84,15.85-3.74,31.7-5.55,47.56-.58,5.1,1.86,7.74,7.04,7.82,3.5,.05,7,.02,10.5,0,3.14-.02,5.21-1.6,6.13-4.54,.48-1.54,.65-3.17,.96-4.76,9.15-47.48,18.35-94.94,27.36-142.45,.64-3.38,1.9-4.05,5.04-4.05,49.5,.09,99,.06,148.51,.06,32.63,0,65.25,.03,97.88-.06,2.76,0,3.75,.69,4.29,3.55,5.83,30.98,11.84,61.93,17.82,92.89,3.45,17.86,6.9,35.73,10.39,53.58,.81,4.14,2.75,5.7,6.98,5.77,2.87,.05,5.75,.02,8.63,.01,6.91-.01,8.97-2.45,8.16-9.18-1.98-16.46-3.84-32.94-5.75-49.42-2.89-24.9-5.79-49.79-8.67-74.69-.85-7.38-1.67-14.76-2.54-22.46,5.74,0,11.09,.06,16.45-.02,4.44-.06,6.71-2.29,6.76-6.7,.08-7.61,.09-15.22-.01-22.83-.05-3.99-2.35-6.19-6.32-6.36-2.09-.09-4.19-.02-6.09-.02v-12.73s.34-.24,.68-.39c8.85-4.12,13.22-11.97,11.35-20.42-1.99-8.98-9.01-14.37-18.82-14.38-14.88-.02-29.75-.01-44.63,0-6.19,0-8.12,1.9-8.14,7.97-.02,5.21,0,10.42,0,15.99-1.31,0-2.27,0-3.24,0-7.18,.07-8.76,1.66-8.77,8.84,0,4.95,0,9.89,0,14.95h-72.91c-.62-3.9-1.21-7.67-1.87-11.81h4.4c14,0,28,.02,42,0,13.48-.03,22.34-8.82,22.36-22.24,.03-29.07,.03-58.15,0-87.22-.01-13.48-8.83-22.31-22.27-22.31-49.13-.02-98.25-.02-147.38,0-13.5,0-22.35,8.79-22.37,22.22-.03,29.07-.02,58.15,0,87.22,.01,13.47,8.82,22.31,22.26,22.34,14.13,.03,28.25,0,42.38,0,1.31,0,2.62,0,4.18,0-.72,4.32-1.35,8.08-1.98,11.87H83.94Z"/><path d="M83.94,168.24h78.84c.63-3.79,1.26-7.56,1.98-11.87-1.56,0-2.87,0-4.18,0-14.13,0-28.25,.02-42.38,0-13.44-.03-22.25-8.86-22.26-22.34-.02-29.07-.03-58.15,0-87.22,.01-13.42,8.87-22.21,22.37-22.22,49.13-.02,98.25-.02,147.38,0,13.45,0,22.26,8.84,22.27,22.31,.03,29.07,.03,58.15,0,87.22-.01,13.42-8.88,22.21-22.36,22.24-14,.03-28,0-42,0h-4.4c.65,4.14,1.25,7.91,1.87,11.81h72.91c0-5.05,0-10,0-14.95,0-7.18,1.58-8.77,8.77-8.84,.96,0,1.93,0,3.24,0,0-5.57-.01-10.78,0-15.99,.02-6.07,1.95-7.96,8.14-7.97,14.88-.01,29.75-.02,44.63,0,9.81,.01,16.83,5.4,18.82,14.38,1.87,8.44-2.5,16.3-11.35,20.42-.34,.16-.64,.37-.68,.39v12.73c1.9,0,4-.07,6.09,.02,3.97,.17,6.27,2.37,6.32,6.36,.1,7.61,.09,15.22,.01,22.83-.04,4.41-2.32,6.64-6.76,6.7-5.36,.08-10.71,.02-16.45,.02,.87,7.71,1.68,15.09,2.54,22.46,2.88,24.9,5.78,49.79,8.67,74.69,1.91,16.47,3.77,32.95,5.75,49.42,.81,6.73-1.24,9.17-8.16,9.18-2.88,0-5.75,.04-8.63-.01-4.23-.07-6.17-1.63-6.98-5.77-3.49-17.86-6.94-35.72-10.39-53.58-5.98-30.96-11.99-61.9-17.82-92.89-.54-2.86-1.53-3.56-4.29-3.55-32.63,.09-65.25,.06-97.88,.06-49.5,0-99,.03-148.51-.06-3.14,0-4.4,.67-5.04,4.05-9,47.5-18.2,94.97-27.36,142.45-.31,1.59-.48,3.23-.96,4.76-.92,2.94-2.99,4.52-6.13,4.54-3.5,.02-7,.05-10.5,0-5.18-.07-7.62-2.71-7.04-7.82,1.81-15.86,3.72-31.7,5.55-47.56,2.87-24.77,5.72-49.55,8.57-74.32,.98-8.54,1.97-17.08,3-26.04-5.29,0-10.39,.02-15.49,0-5.68-.02-7.75-2.03-7.77-7.59-.03-6.86-.02-13.73,0-20.59,.02-5.8,2.02-7.74,7.97-7.76,7.22-.02,14.44,0,21.84,0v-5.99c-3.51,0-7.08,.04-10.66,0-4.92-.06-7.11-2.2-7.14-7.08-.05-7.24-.05-14.47,0-21.71,.03-4.92,2.19-7.06,7.08-7.13,3.49-.05,6.99,0,10.66,0,.95-5,4.3-6.12,8.84-6.05,10.62,.18,21.25,.04,31.88,.06,5.4,.01,7.52,2.09,7.53,7.44,.03,13.33,0,26.66,0,40.36Zm82.7-23.89c.7-4.17,1.34-8.2,2.06-12.23,.69-3.87,2.7-5.66,6.65-5.69,11-.06,21.99-.05,32.99,0,4.19,.02,6.18,1.76,6.91,5.83,.51,2.82,1.17,5.64,1.36,8.48,.18,2.8,1.15,3.75,4.1,3.72,14.87-.16,29.74-.06,44.61-.08,7.3-.01,10.66-3.43,10.66-10.85,.01-28.69,.01-57.38,0-86.06,0-7.6-3.33-10.9-10.99-10.9-48.73,0-97.47,0-146.2,0-7.43,0-10.82,3.35-10.84,10.67-.02,12.6,0,25.2,0,37.79,0,16.46-.03,32.93,.02,49.39,.01,5.74,3.31,9.81,8.54,9.87,16.61,.17,33.22,.06,50.13,.06ZM18.09,192.05H365.69v-11.52H18.09v11.52Zm186.02-53.47h-24.32c-1.58,9.9-3.14,19.67-4.72,29.49h33.78c-1.61-10-3.17-19.69-4.75-29.49Zm-156.02,29.5h23.54v-35.47h-23.54v35.47Zm-6.83,36.34c-5.34,46.24-10.65,92.17-15.96,138.1l.71,.11c8.86-46,17.72-91.99,26.62-138.2h-11.37Zm316.65,138.24l.71-.11c-5.31-45.97-10.63-91.95-15.96-138.08h-11.37c8.9,46.19,17.76,92.19,26.62,138.18Zm-39.85-198.27h3.18c12.35,0,24.69,.01,37.04,0,4.93,0,7.78-2.32,7.67-6.14-.1-3.7-2.82-5.82-7.6-5.83-12.47-.02-24.94-.01-37.41,0-.94,0-1.89,.17-2.88,.27v11.7Zm-11.9,12.01v11.9c14.23,0,28.29,.08,42.35-.06,3.24-.03,5.52-2.93,5.45-6.02-.07-3.11-2.39-5.75-5.71-5.78-13.94-.12-27.88-.05-42.08-.05ZM30.16,138.46v11.64h5.47v-11.64h-5.47Z"/><path class="b" d="M166.64,144.35c-16.92,0-33.53,.11-50.13-.06-5.24-.05-8.53-4.13-8.54-9.87-.04-16.46-.02-32.93-.02-49.39,0-12.6-.02-25.2,0-37.79,.01-7.32,3.41-10.67,10.84-10.67,48.73-.01,97.47,0,146.2,0,7.65,0,10.98,3.3,10.99,10.9,.01,28.69,.01,57.38,0,86.06,0,7.41-3.36,10.84-10.66,10.85-14.87,.02-29.74-.08-44.61,.08-2.95,.03-3.92-.92-4.1-3.72-.19-2.85-.85-5.66-1.36-8.48-.73-4.07-2.72-5.81-6.91-5.83-11-.05-21.99-.05-32.99,0-3.95,.02-5.96,1.82-6.65,5.69-.72,4.02-1.36,8.06-2.06,12.23Z"/><path class="b" d="M18.09,192.05v-11.52H365.69v11.52H18.09Z"/><path class="b" d="M204.11,138.58c1.58,9.8,3.14,19.49,4.75,29.49h-33.78c1.57-9.82,3.13-19.59,4.72-29.49h24.32Z"/><path class="b" d="M48.1,168.08v-35.47h23.54v35.47h-23.54Z"/><path class="b" d="M41.26,204.42h11.37c-8.9,46.21-17.76,92.2-26.62,138.2l-.71-.11c5.31-45.93,10.62-91.85,15.96-138.1Z"/><path class="b" d="M357.92,342.65c-8.86-45.99-17.72-91.99-26.62-138.18h11.37c5.33,46.13,10.65,92.1,15.96,138.08l-.71,.11Z"/><path class="b" d="M318.07,144.39v-11.7c1-.1,1.94-.27,2.88-.27,12.47-.02,24.94-.02,37.41,0,4.78,0,7.5,2.13,7.6,5.83,.1,3.82-2.75,6.13-7.67,6.14-12.35,.02-24.69,0-37.04,0h-3.18Z"/><path class="b" d="M306.17,156.4c14.2,0,28.14-.07,42.08,.05,3.32,.03,5.64,2.67,5.71,5.78,.07,3.09-2.21,5.98-5.45,6.02-14.05,.14-28.11,.06-42.35,.06v-11.9Z"/><path class="b" d="M30.16,138.46h5.47v11.64h-5.47v-11.64Z"/></svg>